{"glyphs":{"0":{"ha":921,"x_min":63,"x_max":858,"o":"m 458 -14 q 249 35 338 -14 q 111 191 160 83 q 63 475 63 299 q 113 774 63 663 q 252 935 163 886 q 461 983 342 983 q 672 934 582 983 q 810 773 761 885 q 858 474 858 661 q 808 188 858 296 q 669 33 758 81 q 458 -14 579 -14 m 458 83 q 517 99 489 83 q 565 155 544 114 q 598 274 586 196 q 610 476 610 351 q 598 692 610 610 q 565 815 586 774 q 518 872 544 857 q 461 886 492 886 q 403 872 431 886 q 356 815 376 857 q 322 690 335 772 q 310 472 310 608 q 322 272 310 349 q 354 155 333 196 q 402 99 375 114 q 458 83 429 83 z "},"1":{"ha":667,"x_min":60,"x_max":614,"o":"m 128 0 q 103 44 113 15 q 94 94 94 74 q 205 120 163 94 q 247 218 247 146 l 247 721 q 185 765 247 765 q 141 760 165 765 q 97 747 117 756 l 60 817 l 276 943 q 350 978 324 971 q 394 986 376 986 q 447 960 433 986 q 460 911 460 935 l 460 218 q 501 119 460 144 q 614 94 542 94 q 606 44 614 74 q 582 0 597 15 l 128 0 z "},"2":{"ha":813,"x_min":42,"x_max":771,"o":"m 92 -15 l 47 19 q 100 167 63 101 q 188 288 138 232 q 290 394 238 343 q 386 495 342 444 q 458 603 431 546 q 486 729 486 661 q 447 850 486 813 q 349 888 407 888 q 224 826 268 888 q 282 785 260 817 q 304 719 304 753 q 264 637 304 668 q 174 606 224 606 q 82 642 122 606 q 42 747 42 679 q 85 865 42 811 q 208 951 129 918 q 392 985 286 985 q 565 954 488 985 q 690 862 643 924 q 736 706 736 800 q 707 573 736 631 q 630 470 678 515 q 524 387 582 425 q 406 312 465 349 q 297 236 347 275 q 213 149 246 197 q 312 180 253 167 q 421 193 371 193 l 494 193 q 614 224 561 193 q 682 311 667 256 l 721 311 q 757 256 743 292 q 771 179 771 219 q 749 92 771 136 q 676 20 728 49 q 532 -8 625 -8 q 443 -3 483 -8 q 361 8 403 3 q 264 14 319 14 q 175 7 219 14 q 93 -15 131 0 l 94 -14 l 92 -15 z "},"3":{"ha":867,"x_min":56,"x_max":804,"o":"m 393 -11 q 221 14 297 -11 q 100 85 144 39 q 56 197 56 132 q 89 288 56 257 q 171 319 122 319 q 249 291 219 319 q 278 224 278 263 q 269 179 278 204 q 239 135 261 154 q 294 118 257 121 q 371 115 331 115 q 502 158 457 115 q 547 274 547 201 q 531 366 547 322 q 478 438 515 410 q 382 467 442 467 q 300 447 343 457 l 272 531 q 406 583 360 554 q 470 649 453 613 q 488 726 488 685 q 449 834 488 792 q 349 876 411 876 q 291 867 315 876 q 246 832 267 858 q 279 805 264 825 q 294 757 294 785 q 267 695 294 726 q 186 664 239 664 q 103 698 132 664 q 75 783 75 732 q 120 891 75 847 q 240 958 165 935 q 404 982 315 982 q 574 956 500 982 q 692 880 649 929 q 735 760 735 831 q 716 672 735 715 q 650 588 697 628 q 518 513 603 547 q 664 494 599 518 q 767 415 729 469 q 804 272 804 360 q 751 124 804 188 q 606 24 699 60 q 393 -11 513 -11 z "},"4":{"ha":921,"x_min":14,"x_max":907,"o":"m 331 0 q 308 44 315 15 q 300 93 300 72 q 408 110 365 93 q 451 169 451 126 l 451 267 l 39 267 l 14 353 l 383 969 l 665 969 l 665 381 l 688 381 q 772 403 743 381 q 819 474 801 425 l 851 474 q 891 443 875 467 q 907 389 907 419 q 890 323 907 350 q 822 281 874 296 q 665 267 769 267 l 665 168 q 701 109 665 125 q 810 93 738 93 q 801 44 810 72 q 776 0 792 15 l 331 0 m 208 381 l 451 381 l 451 844 l 208 381 z "},"5":{"ha":838,"x_min":56,"x_max":782,"o":"m 381 -11 q 210 15 283 -11 q 96 85 136 40 q 56 189 56 131 q 91 280 56 247 q 175 313 126 313 q 255 283 224 313 q 286 210 286 254 q 273 163 286 183 q 228 125 260 143 q 272 111 244 117 q 331 106 299 106 q 476 162 425 106 q 528 297 528 218 q 473 441 528 394 q 325 488 418 488 q 243 480 286 488 q 168 457 200 472 l 114 519 l 161 969 l 467 969 q 681 1011 617 969 l 713 1011 q 742 967 732 997 q 753 906 753 938 q 708 810 753 842 q 599 778 663 778 q 490 796 539 778 q 394 834 440 814 q 299 860 349 854 l 265 565 q 351 597 303 582 q 457 611 400 611 q 631 573 558 611 q 743 468 704 535 q 782 315 782 401 q 736 156 782 231 q 601 35 690 82 q 381 -11 511 -11 z "},"6":{"ha":882,"x_min":63,"x_max":826,"o":"m 447 -11 q 247 42 333 -11 q 111 201 160 96 q 63 465 63 307 q 121 758 63 643 q 276 927 179 872 q 490 982 374 982 q 639 960 572 982 q 746 895 706 939 q 786 786 786 851 q 756 697 786 733 q 669 661 725 661 q 586 690 619 661 q 553 764 553 719 q 567 808 553 786 q 606 843 582 831 q 556 874 588 864 q 490 885 525 885 q 398 853 440 885 q 330 747 356 821 q 304 546 304 674 q 306 531 304 535 q 401 584 342 565 q 524 603 460 603 q 678 568 610 603 q 787 470 747 533 q 826 318 826 407 q 778 152 826 226 q 645 33 731 78 q 447 -11 560 -11 m 451 93 q 520 110 488 93 q 574 169 553 128 q 594 285 594 211 q 549 442 594 396 q 443 489 504 489 q 360 471 396 489 q 304 417 324 453 q 303 388 303 403 q 303 360 303 374 q 324 200 303 258 q 380 117 346 142 q 451 93 414 93 z "},"7":{"ha":753,"x_min":28,"x_max":753,"o":"m 319 -14 q 260 -9 292 -14 q 204 7 229 -4 q 253 276 214 146 q 371 540 293 406 q 571 822 449 674 q 461 798 522 808 q 331 788 400 788 q 215 764 250 788 q 164 678 179 740 l 86 678 q 46 735 64 699 q 28 825 28 772 q 69 939 28 894 q 204 983 110 983 q 306 974 242 983 q 442 953 369 964 q 575 943 514 943 q 626 947 607 943 q 661 960 644 950 q 703 988 678 969 l 753 919 q 576 633 633 768 q 500 380 518 497 q 482 165 482 263 l 482 88 q 471 40 482 64 q 426 1 460 17 q 319 -14 392 -14 z "},"8":{"ha":883,"x_min":50,"x_max":833,"o":"m 422 -11 q 210 25 292 -11 q 89 119 128 61 q 50 242 50 176 q 103 390 50 324 q 246 492 157 457 q 138 594 182 538 q 93 729 93 651 q 134 859 93 801 q 256 951 175 917 q 457 985 338 985 q 647 952 576 985 q 748 871 717 919 q 779 771 779 822 q 731 651 779 704 q 613 561 683 597 q 781 430 728 501 q 833 274 833 358 q 785 127 833 192 q 644 26 736 63 q 422 -11 553 -11 m 506 607 q 610 768 610 674 q 576 856 610 819 q 469 892 542 892 q 360 862 404 892 q 315 783 315 832 q 358 698 315 742 q 506 607 400 654 m 421 92 q 546 128 497 92 q 594 225 594 165 q 573 297 594 263 q 497 365 551 332 q 346 432 443 399 q 264 360 293 406 q 235 263 235 315 q 285 141 235 190 q 421 92 335 92 z "},"9":{"ha":878,"x_min":56,"x_max":815,"o":"m 410 -15 q 187 39 271 -15 q 103 190 103 93 q 134 281 103 247 q 221 315 165 315 q 298 291 264 315 q 332 218 332 267 q 318 167 332 190 q 269 131 304 143 q 324 96 292 104 q 394 88 357 88 q 531 167 492 88 q 569 399 569 246 l 569 431 q 480 385 532 401 q 368 369 428 369 q 210 406 281 369 q 97 508 139 442 q 56 667 56 575 q 101 823 56 750 q 229 940 146 896 q 426 985 313 985 q 653 921 568 985 q 777 745 739 857 q 815 486 815 633 q 764 218 815 331 q 622 45 713 106 q 410 -15 531 -15 m 281 693 q 331 535 281 586 q 450 483 382 483 q 522 497 489 483 q 572 536 554 510 q 574 588 574 563 q 551 776 574 711 q 493 864 528 840 q 425 888 458 888 q 358 872 392 888 q 303 813 325 856 q 281 693 281 771 z "},"A":{"ha":940,"x_min":-28,"x_max":968,"o":"m 4 0 q -28 89 -28 35 q 42 111 10 89 q 90 179 75 133 l 318 851 q 178 869 263 869 q 211 969 178 929 l 592 969 l 850 183 q 899 113 865 138 q 968 89 932 89 q 936 0 968 35 l 560 0 q 528 89 528 35 q 585 105 564 89 q 607 156 607 121 q 605 185 607 168 q 597 221 603 201 l 589 250 l 278 250 l 269 221 q 260 188 264 203 q 257 160 257 172 q 281 106 257 122 q 346 89 304 89 q 314 0 346 35 l 4 0 m 308 358 l 558 358 l 460 703 q 428 774 447 744 l 308 358 z "},"Á":{"ha":940,"x_min":-28,"x_max":968,"o":"m 4 0 q -28 89 -28 35 q 42 111 10 89 q 90 179 75 133 l 318 851 q 178 869 263 869 q 211 969 178 929 l 592 969 l 850 183 q 899 113 865 138 q 968 89 932 89 q 936 0 968 35 l 560 0 q 528 89 528 35 q 585 105 564 89 q 607 156 607 121 q 605 185 607 168 q 597 221 603 201 l 589 250 l 278 250 l 269 221 q 260 188 264 203 q 257 160 257 172 q 281 106 257 122 q 346 89 304 89 q 314 0 346 35 l 4 0 m 308 358 l 558 358 l 460 703 q 428 774 447 744 l 308 358 m 415 1024 q 367 1039 389 1024 q 342 1088 346 1054 q 436 1160 386 1117 q 532 1256 486 1203 q 608 1367 578 1310 q 673 1349 646 1367 q 715 1305 700 1331 q 729 1256 729 1279 q 694 1178 729 1218 q 608 1102 660 1138 q 504 1045 557 1067 q 415 1024 451 1024 z "},"Ă":{"ha":940,"x_min":-28,"x_max":968,"o":"m 4 0 q -28 89 -28 35 q 42 111 10 89 q 90 179 75 133 l 318 851 q 178 869 263 869 q 211 969 178 929 l 592 969 l 850 183 q 899 113 865 138 q 968 89 932 89 q 936 0 968 35 l 560 0 q 528 89 528 35 q 585 105 564 89 q 607 156 607 121 q 605 185 607 168 q 597 221 603 201 l 589 250 l 278 250 l 269 221 q 260 188 264 203 q 257 160 257 172 q 281 106 257 122 q 346 89 304 89 q 314 0 346 35 l 4 0 m 308 358 l 558 358 l 460 703 q 428 774 447 744 l 308 358 m 460 1043 q 277 1104 344 1043 q 210 1282 210 1165 q 231 1303 214 1296 q 268 1310 249 1310 q 306 1304 286 1310 q 332 1288 325 1299 q 366 1210 332 1240 q 460 1181 400 1181 q 553 1210 519 1181 q 588 1288 588 1240 q 615 1304 594 1299 q 651 1310 635 1310 q 690 1303 672 1310 q 710 1282 707 1296 q 642 1104 710 1165 q 460 1043 575 1043 z "},"Ắ":{"ha":940,"x_min":-28,"x_max":968,"o":"m 4 0 q -28 89 -28 35 q 42 111 10 89 q 90 179 75 133 l 318 851 q 178 869 263 869 q 211 969 178 929 l 592 969 l 850 183 q 899 113 865 138 q 968 89 932 89 q 936 0 968 35 l 560 0 q 528 89 528 35 q 585 105 564 89 q 607 156 607 121 q 605 185 607 168 q 597 221 603 201 l 589 250 l 278 250 l 269 221 q 260 188 264 203 q 257 160 257 172 q 281 106 257 122 q 346 89 304 89 q 314 0 346 35 l 4 0 m 308 358 l 558 358 l 460 703 q 428 774 447 744 l 308 358 m 421 1268 q 385 1279 401 1268 q 367 1315 369 1290 q 467 1398 415 1347 q 553 1511 519 1449 q 618 1483 593 1511 q 643 1431 643 1456 q 619 1375 643 1404 q 558 1322 594 1346 q 485 1283 522 1299 q 421 1268 447 1268 m 460 1043 q 295 1098 356 1043 q 235 1258 235 1153 q 253 1277 238 1271 q 286 1283 268 1283 q 321 1279 303 1283 q 344 1264 339 1275 q 376 1190 344 1221 q 460 1158 407 1158 q 544 1190 513 1158 q 575 1264 575 1221 q 600 1279 582 1275 q 633 1283 618 1283 q 668 1277 653 1283 q 685 1258 683 1271 q 624 1098 685 1153 q 460 1043 563 1043 z "},"Ặ":{"ha":940,"x_min":-28,"x_max":968,"o":"m 4 0 q -28 89 -28 35 q 42 111 10 89 q 90 179 75 133 l 318 851 q 178 869 263 869 q 211 969 178 929 l 592 969 l 850 183 q 899 113 865 138 q 968 89 932 89 q 936 0 968 35 l 560 0 q 528 89 528 35 q 585 105 564 89 q 607 156 607 121 q 605 185 607 168 q 597 221 603 201 l 589 250 l 278 250 l 269 221 q 260 188 264 203 q 257 160 257 172 q 281 106 257 122 q 346 89 304 89 q 314 0 346 35 l 4 0 m 308 358 l 558 358 l 460 703 q 428 774 447 744 l 308 358 m 446 -362 q 351 -327 386 -362 q 315 -232 315 -292 q 352 -137 315 -174 q 449 -101 389 -101 q 545 -137 510 -101 q 581 -232 581 -174 q 544 -327 581 -292 q 446 -362 507 -362 m 460 1043 q 277 1104 344 1043 q 210 1282 210 1165 q 231 1303 214 1296 q 268 1310 249 1310 q 306 1304 286 1310 q 332 1288 325 1299 q 366 1210 332 1240 q 460 1181 400 1181 q 553 1210 519 1181 q 588 1288 588 1240 q 615 1304 594 1299 q 651 1310 635 1310 q 690 1303 672 1310 q 710 1282 707 1296 q 642 1104 710 1165 q 460 1043 575 1043 z "},"Ằ":{"ha":940,"x_min":-28,"x_max":968,"o":"m 4 0 q -28 89 -28 35 q 42 111 10 89 q 90 179 75 133 l 318 851 q 178 869 263 869 q 211 969 178 929 l 592 969 l 850 183 q 899 113 865 138 q 968 89 932 89 q 936 0 968 35 l 560 0 q 528 89 528 35 q 585 105 564 89 q 607 156 607 121 q 605 185 607 168 q 597 221 603 201 l 589 250 l 278 250 l 269 221 q 260 188 264 203 q 257 160 257 172 q 281 106 257 122 q 346 89 304 89 q 314 0 346 35 l 4 0 m 308 358 l 558 358 l 460 703 q 428 774 447 744 l 308 358 m 503 1296 q 439 1310 476 1296 q 365 1349 401 1325 q 305 1402 329 1374 q 281 1458 281 1431 q 306 1511 281 1483 q 371 1539 331 1539 q 456 1426 404 1476 q 557 1343 507 1375 q 538 1307 554 1318 q 503 1296 522 1296 m 460 1043 q 295 1098 356 1043 q 235 1258 235 1153 q 253 1277 238 1271 q 286 1283 268 1283 q 321 1279 303 1283 q 344 1264 339 1275 q 376 1190 344 1221 q 460 1158 407 1158 q 544 1190 513 1158 q 575 1264 575 1221 q 600 1279 582 1275 q 633 1283 618 1283 q 668 1277 653 1283 q 685 1258 683 1271 q 624 1098 685 1153 q 460 1043 563 1043 z "},"Ẳ":{"ha":940,"x_min":-28,"x_max":968,"o":"m 4 0 q -28 89 -28 35 q 42 111 10 89 q 90 179 75 133 l 318 851 q 178 869 263 869 q 211 969 178 929 l 592 969 l 850 183 q 899 113 865 138 q 968 89 932 89 q 936 0 968 35 l 560 0 q 528 89 528 35 q 585 105 564 89 q 607 156 607 121 q 605 185 607 168 q 597 221 603 201 l 589 250 l 278 250 l 269 221 q 260 188 264 203 q 257 160 257 172 q 281 106 257 122 q 346 89 304 89 q 314 0 346 35 l 4 0 m 308 358 l 558 358 l 460 703 q 428 774 447 744 l 308 358 m 460 1296 q 419 1299 435 1296 q 385 1306 404 1301 l 367 1367 q 383 1365 374 1365 q 403 1364 393 1364 q 457 1376 431 1364 q 483 1422 483 1388 q 463 1458 483 1442 q 407 1475 443 1475 q 369 1468 389 1475 q 325 1450 349 1461 l 300 1525 q 356 1554 314 1538 q 440 1571 397 1571 q 513 1559 474 1571 q 581 1517 553 1547 q 608 1433 608 1488 q 591 1369 608 1401 q 540 1317 574 1338 q 460 1296 507 1296 m 460 1043 q 295 1098 356 1043 q 235 1258 235 1153 q 253 1277 238 1271 q 286 1283 268 1283 q 321 1279 303 1283 q 344 1264 339 1275 q 376 1190 344 1221 q 460 1158 407 1158 q 544 1190 513 1158 q 575 1264 575 1221 q 600 1279 582 1275 q 633 1283 618 1283 q 668 1277 653 1283 q 685 1258 683 1271 q 624 1098 685 1153 q 460 1043 563 1043 z "},"Ẵ":{"ha":940,"x_min":-28,"x_max":968,"o":"m 4 0 q -28 89 -28 35 q 42 111 10 89 q 90 179 75 133 l 318 851 q 178 869 263 869 q 211 969 178 929 l 592 969 l 850 183 q 899 113 865 138 q 968 89 932 89 q 936 0 968 35 l 560 0 q 528 89 528 35 q 585 105 564 89 q 607 156 607 121 q 605 185 607 168 q 597 221 603 201 l 589 250 l 278 250 l 269 221 q 260 188 264 203 q 257 160 257 172 q 281 106 257 122 q 346 89 304 89 q 314 0 346 35 l 4 0 m 308 358 l 558 358 l 460 703 q 428 774 447 744 l 308 358 m 532 1303 q 470 1319 493 1303 q 428 1353 447 1336 q 383 1371 410 1369 q 300 1324 346 1374 q 276 1325 292 1317 q 251 1350 261 1333 q 244 1382 240 1367 q 272 1428 251 1406 q 324 1468 293 1451 q 390 1485 356 1485 q 460 1469 436 1486 q 501 1434 485 1451 q 539 1417 518 1417 q 578 1428 558 1417 q 622 1465 599 1439 q 647 1464 632 1472 q 672 1439 661 1456 q 678 1406 683 1422 q 629 1337 668 1371 q 532 1303 590 1303 m 460 1043 q 295 1098 356 1043 q 235 1258 235 1153 q 253 1277 238 1271 q 286 1283 268 1283 q 321 1279 303 1283 q 344 1264 339 1275 q 376 1190 344 1221 q 460 1158 407 1158 q 544 1190 513 1158 q 575 1264 575 1221 q 600 1279 582 1275 q 633 1283 618 1283 q 668 1277 653 1283 q 685 1258 683 1271 q 624 1098 685 1153 q 460 1043 563 1043 z "},"Ǎ":{"ha":940,"x_min":-28,"x_max":968,"o":"m 4 0 q -28 89 -28 35 q 42 111 10 89 q 90 179 75 133 l 318 851 q 178 869 263 869 q 211 969 178 929 l 592 969 l 850 183 q 899 113 865 138 q 968 89 932 89 q 936 0 968 35 l 560 0 q 528 89 528 35 q 585 105 564 89 q 607 156 607 121 q 605 185 607 168 q 597 221 603 201 l 589 250 l 278 250 l 269 221 q 260 188 264 203 q 257 160 257 172 q 281 106 257 122 q 346 89 304 89 q 314 0 346 35 l 4 0 m 308 358 l 558 358 l 460 703 q 428 774 447 744 l 308 358 m 407 1043 l 201 1269 q 229 1313 208 1293 q 276 1342 250 1332 l 460 1201 l 642 1342 q 689 1313 668 1332 q 718 1269 710 1293 l 513 1043 l 407 1043 z "},"Â":{"ha":940,"x_min":-28,"x_max":968,"o":"m 4 0 q -28 89 -28 35 q 42 111 10 89 q 90 179 75 133 l 318 851 q 178 869 263 869 q 211 969 178 929 l 592 969 l 850 183 q 899 113 865 138 q 968 89 932 89 q 936 0 968 35 l 560 0 q 528 89 528 35 q 585 105 564 89 q 607 156 607 121 q 605 185 607 168 q 597 221 603 201 l 589 250 l 278 250 l 269 221 q 260 188 264 203 q 257 160 257 172 q 281 106 257 122 q 346 89 304 89 q 314 0 346 35 l 4 0 m 308 358 l 558 358 l 460 703 q 428 774 447 744 l 308 358 m 275 1044 q 228 1074 249 1054 q 200 1115 207 1093 l 406 1343 l 511 1343 l 718 1115 q 689 1074 710 1093 q 642 1044 668 1054 l 458 1182 l 275 1044 z "},"Ấ":{"ha":940,"x_min":-28,"x_max":968,"o":"m 4 0 q -28 89 -28 35 q 42 111 10 89 q 90 179 75 133 l 318 851 q 178 869 263 869 q 211 969 178 929 l 592 969 l 850 183 q 899 113 865 138 q 968 89 932 89 q 936 0 968 35 l 560 0 q 528 89 528 35 q 585 105 564 89 q 607 156 607 121 q 605 185 607 168 q 597 221 603 201 l 589 250 l 278 250 l 269 221 q 260 188 264 203 q 257 160 257 172 q 281 106 257 122 q 346 89 304 89 q 314 0 346 35 l 4 0 m 308 358 l 558 358 l 460 703 q 428 774 447 744 l 308 358 m 636 1243 q 601 1254 617 1243 q 582 1290 585 1265 q 683 1373 631 1322 q 768 1486 735 1424 q 833 1458 808 1486 q 858 1406 858 1431 q 834 1349 858 1378 q 774 1297 810 1321 q 700 1258 738 1272 q 636 1243 663 1243 m 288 1040 q 217 1107 233 1058 l 410 1293 l 510 1293 l 704 1107 q 677 1067 697 1085 q 632 1040 657 1049 l 460 1142 l 288 1040 z "},"Ậ":{"ha":940,"x_min":-28,"x_max":968,"o":"m 4 0 q -28 89 -28 35 q 42 111 10 89 q 90 179 75 133 l 318 851 q 178 869 263 869 q 211 969 178 929 l 592 969 l 850 183 q 899 113 865 138 q 968 89 932 89 q 936 0 968 35 l 560 0 q 528 89 528 35 q 585 105 564 89 q 607 156 607 121 q 605 185 607 168 q 597 221 603 201 l 589 250 l 278 250 l 269 221 q 260 188 264 203 q 257 160 257 172 q 281 106 257 122 q 346 89 304 89 q 314 0 346 35 l 4 0 m 308 358 l 558 358 l 460 703 q 428 774 447 744 l 308 358 m 446 -362 q 351 -327 386 -362 q 315 -232 315 -292 q 352 -137 315 -174 q 449 -101 389 -101 q 545 -137 510 -101 q 581 -232 581 -174 q 544 -327 581 -292 q 446 -362 507 -362 m 275 1044 q 228 1074 249 1054 q 200 1115 207 1093 l 406 1343 l 511 1343 l 718 1115 q 689 1074 710 1093 q 642 1044 668 1054 l 458 1182 l 275 1044 z "},"Ầ":{"ha":940,"x_min":-28,"x_max":968,"o":"m 4 0 q -28 89 -28 35 q 42 111 10 89 q 90 179 75 133 l 318 851 q 178 869 263 869 q 211 969 178 929 l 592 969 l 850 183 q 899 113 865 138 q 968 89 932 89 q 936 0 968 35 l 560 0 q 528 89 528 35 q 585 105 564 89 q 607 156 607 121 q 605 185 607 168 q 597 221 603 201 l 589 250 l 278 250 l 269 221 q 260 188 264 203 q 257 160 257 172 q 281 106 257 122 q 346 89 304 89 q 314 0 346 35 l 4 0 m 308 358 l 558 358 l 460 703 q 428 774 447 744 l 308 358 m 813 1203 q 749 1217 786 1203 q 675 1256 711 1232 q 615 1309 639 1281 q 590 1365 590 1338 q 615 1418 590 1390 q 681 1446 640 1446 q 765 1333 714 1383 q 867 1250 817 1282 q 848 1214 864 1225 q 813 1203 832 1203 m 288 1043 q 217 1110 233 1061 l 410 1296 l 510 1296 l 704 1110 q 677 1069 697 1088 q 632 1043 657 1051 l 460 1144 l 288 1043 z "},"Ẩ":{"ha":940,"x_min":-28,"x_max":968,"o":"m 4 0 q -28 89 -28 35 q 42 111 10 89 q 90 179 75 133 l 318 851 q 178 869 263 869 q 211 969 178 929 l 592 969 l 850 183 q 899 113 865 138 q 968 89 932 89 q 936 0 968 35 l 560 0 q 528 89 528 35 q 585 105 564 89 q 607 156 607 121 q 605 185 607 168 q 597 221 603 201 l 589 250 l 278 250 l 269 221 q 260 188 264 203 q 257 160 257 172 q 281 106 257 122 q 346 89 304 89 q 314 0 346 35 l 4 0 m 308 358 l 558 358 l 460 703 q 428 774 447 744 l 308 358 m 701 1231 q 661 1233 676 1231 q 626 1240 646 1236 l 608 1301 q 625 1299 615 1300 q 644 1299 635 1299 q 699 1310 672 1299 q 725 1357 725 1322 q 705 1393 725 1376 q 649 1410 685 1410 q 610 1403 631 1410 q 567 1385 590 1396 l 542 1460 q 597 1489 556 1472 q 682 1506 639 1506 q 754 1494 715 1506 q 822 1452 793 1482 q 850 1368 850 1422 q 833 1304 850 1336 q 782 1251 815 1272 q 701 1231 749 1231 m 292 1040 q 221 1107 238 1058 l 414 1293 l 514 1293 l 708 1107 q 681 1067 701 1085 q 636 1040 661 1049 l 464 1142 l 292 1040 z "},"Ẫ":{"ha":940,"x_min":-28,"x_max":968,"o":"m 4 0 q -28 89 -28 35 q 42 111 10 89 q 90 179 75 133 l 318 851 q 178 869 263 869 q 211 969 178 929 l 592 969 l 850 183 q 899 113 865 138 q 968 89 932 89 q 936 0 968 35 l 560 0 q 528 89 528 35 q 585 105 564 89 q 607 156 607 121 q 605 185 607 168 q 597 221 603 201 l 589 250 l 278 250 l 269 221 q 260 188 264 203 q 257 160 257 172 q 281 106 257 122 q 346 89 304 89 q 314 0 346 35 l 4 0 m 308 358 l 558 358 l 460 703 q 428 774 447 744 l 308 358 m 531 1321 q 469 1338 492 1321 q 427 1371 446 1354 q 382 1389 408 1388 q 299 1342 344 1392 q 275 1343 290 1335 q 249 1368 260 1351 q 243 1400 239 1385 q 271 1447 250 1424 q 323 1486 292 1469 q 389 1503 354 1503 q 459 1487 435 1504 q 500 1452 483 1469 q 538 1435 517 1435 q 577 1446 557 1435 q 621 1483 597 1457 q 645 1482 631 1490 q 671 1457 660 1474 q 676 1424 682 1440 q 628 1355 667 1389 q 531 1321 589 1321 m 286 1040 q 215 1107 232 1058 l 408 1293 l 508 1293 l 703 1107 q 676 1067 696 1085 q 631 1040 656 1049 l 458 1142 l 286 1040 z "},"Ȁ":{"ha":940,"x_min":-28,"x_max":968,"o":"m 4 0 q -28 89 -28 35 q 42 111 10 89 q 90 179 75 133 l 318 851 q 178 869 263 869 q 211 969 178 929 l 592 969 l 850 183 q 899 113 865 138 q 968 89 932 89 q 936 0 968 35 l 560 0 q 528 89 528 35 q 585 105 564 89 q 607 156 607 121 q 605 185 607 168 q 597 221 603 201 l 589 250 l 278 250 l 269 221 q 260 188 264 203 q 257 160 257 172 q 281 106 257 122 q 346 89 304 89 q 314 0 346 35 l 4 0 m 308 358 l 558 358 l 460 703 q 428 774 447 744 l 308 358 m 626 1043 q 547 1072 592 1043 q 462 1144 503 1100 q 394 1234 421 1188 q 368 1318 368 1281 q 398 1372 368 1353 q 482 1392 428 1392 q 537 1287 514 1335 q 588 1196 560 1239 q 661 1107 617 1153 q 655 1058 657 1072 q 626 1043 653 1043 m 347 1043 q 264 1070 313 1043 q 169 1140 215 1097 q 93 1229 124 1183 q 63 1313 63 1275 q 93 1367 63 1347 q 178 1386 124 1386 q 270 1225 225 1300 q 382 1107 315 1150 q 376 1058 378 1072 q 347 1043 374 1043 z "},"Ä":{"ha":940,"x_min":-28,"x_max":968,"o":"m 4 0 q -28 89 -28 35 q 42 111 10 89 q 90 179 75 133 l 318 851 q 178 869 263 869 q 211 969 178 929 l 592 969 l 850 183 q 899 113 865 138 q 968 89 932 89 q 936 0 968 35 l 560 0 q 528 89 528 35 q 585 105 564 89 q 607 156 607 121 q 605 185 607 168 q 597 221 603 201 l 589 250 l 278 250 l 269 221 q 260 188 264 203 q 257 160 257 172 q 281 106 257 122 q 346 89 304 89 q 314 0 346 35 l 4 0 m 308 358 l 558 358 l 460 703 q 428 774 447 744 l 308 358 m 629 1043 q 547 1083 576 1043 q 518 1175 518 1122 q 547 1266 518 1228 q 629 1304 576 1304 q 713 1266 683 1304 q 742 1175 742 1228 q 713 1083 742 1122 q 629 1043 683 1043 m 290 1043 q 207 1083 236 1043 q 178 1175 178 1122 q 207 1266 178 1228 q 290 1304 236 1304 q 372 1266 343 1304 q 401 1175 401 1228 q 372 1083 401 1122 q 290 1043 343 1043 z "},"Ǟ":{"ha":940,"x_min":-28,"x_max":968,"o":"m 4 0 q -28 89 -28 35 q 42 111 10 89 q 90 179 75 133 l 318 851 q 178 869 263 869 q 211 969 178 929 l 592 969 l 850 183 q 899 113 865 138 q 968 89 932 89 q 936 0 968 35 l 560 0 q 528 89 528 35 q 585 105 564 89 q 607 156 607 121 q 605 185 607 168 q 597 221 603 201 l 589 250 l 278 250 l 269 221 q 260 188 264 203 q 257 160 257 172 q 281 106 257 122 q 346 89 304 89 q 314 0 346 35 l 4 0 m 308 358 l 558 358 l 460 703 q 428 774 447 744 l 308 358 m 629 1043 q 547 1083 576 1043 q 518 1175 518 1122 q 547 1266 518 1228 q 629 1304 576 1304 q 713 1266 683 1304 q 742 1175 742 1228 q 713 1083 742 1122 q 629 1043 683 1043 m 290 1043 q 207 1083 236 1043 q 178 1175 178 1122 q 207 1266 178 1228 q 290 1304 236 1304 q 372 1266 343 1304 q 401 1175 401 1228 q 372 1083 401 1122 q 290 1043 343 1043 m 242 1346 q 235 1374 238 1357 q 233 1407 233 1390 q 235 1444 233 1426 q 243 1471 238 1461 l 678 1471 q 684 1442 682 1460 q 686 1407 686 1425 q 679 1346 686 1367 l 242 1346 z "},"Ȧ":{"ha":940,"x_min":-28,"x_max":968,"o":"m 4 0 q -28 89 -28 35 q 42 111 10 89 q 90 179 75 133 l 318 851 q 178 869 263 869 q 211 969 178 929 l 592 969 l 850 183 q 899 113 865 138 q 968 89 932 89 q 936 0 968 35 l 560 0 q 528 89 528 35 q 585 105 564 89 q 607 156 607 121 q 605 185 607 168 q 597 221 603 201 l 589 250 l 278 250 l 269 221 q 260 188 264 203 q 257 160 257 172 q 281 106 257 122 q 346 89 304 89 q 314 0 346 35 l 4 0 m 308 358 l 558 358 l 460 703 q 428 774 447 744 l 308 358 m 458 1043 q 363 1078 399 1043 q 328 1174 328 1114 q 365 1268 328 1232 q 461 1304 401 1304 q 557 1268 522 1304 q 592 1174 592 1232 q 556 1078 592 1114 q 458 1043 519 1043 z "},"Ạ":{"ha":940,"x_min":-28,"x_max":968,"o":"m 4 0 q -28 89 -28 35 q 42 111 10 89 q 90 179 75 133 l 318 851 q 178 869 263 869 q 211 969 178 929 l 592 969 l 850 183 q 899 113 865 138 q 968 89 932 89 q 936 0 968 35 l 560 0 q 528 89 528 35 q 585 105 564 89 q 607 156 607 121 q 605 185 607 168 q 597 221 603 201 l 589 250 l 278 250 l 269 221 q 260 188 264 203 q 257 160 257 172 q 281 106 257 122 q 346 89 304 89 q 314 0 346 35 l 4 0 m 308 358 l 558 358 l 460 703 q 428 774 447 744 l 308 358 m 446 -362 q 351 -327 386 -362 q 315 -232 315 -292 q 352 -137 315 -174 q 449 -101 389 -101 q 545 -137 510 -101 q 581 -232 581 -174 q 544 -327 581 -292 q 446 -362 507 -362 z "},"Ǡ":{"ha":940,"x_min":-28,"x_max":968,"o":"m 4 0 q -28 89 -28 35 q 42 111 10 89 q 90 179 75 133 l 318 851 q 178 869 263 869 q 211 969 178 929 l 592 969 l 850 183 q 899 113 865 138 q 968 89 932 89 q 936 0 968 35 l 560 0 q 528 89 528 35 q 585 105 564 89 q 607 156 607 121 q 605 185 607 168 q 597 221 603 201 l 589 250 l 278 250 l 269 221 q 260 188 264 203 q 257 160 257 172 q 281 106 257 122 q 346 89 304 89 q 314 0 346 35 l 4 0 m 308 358 l 558 358 l 460 703 q 428 774 447 744 l 308 358 m 458 1043 q 363 1078 399 1043 q 328 1174 328 1114 q 365 1268 328 1232 q 461 1304 401 1304 q 557 1268 522 1304 q 592 1174 592 1232 q 556 1078 592 1114 q 458 1043 519 1043 m 242 1347 q 235 1375 238 1358 q 233 1408 233 1392 q 235 1445 233 1428 q 243 1472 238 1463 l 678 1472 q 684 1444 682 1461 q 686 1408 686 1426 q 679 1347 686 1368 l 242 1347 z "},"À":{"ha":940,"x_min":-28,"x_max":968,"o":"m 4 0 q -28 89 -28 35 q 42 111 10 89 q 90 179 75 133 l 318 851 q 178 869 263 869 q 211 969 178 929 l 592 969 l 850 183 q 899 113 865 138 q 968 89 932 89 q 936 0 968 35 l 560 0 q 528 89 528 35 q 585 105 564 89 q 607 156 607 121 q 605 185 607 168 q 597 221 603 201 l 589 250 l 278 250 l 269 221 q 260 188 264 203 q 257 160 257 172 q 281 106 257 122 q 346 89 304 89 q 314 0 346 35 l 4 0 m 308 358 l 558 358 l 460 703 q 428 774 447 744 l 308 358 m 579 1043 q 511 1058 551 1043 q 428 1097 471 1072 q 348 1151 385 1121 q 288 1213 311 1181 q 265 1275 265 1246 q 280 1324 265 1299 q 322 1368 294 1350 q 386 1386 350 1386 q 462 1276 417 1329 q 558 1179 507 1222 q 653 1107 608 1136 q 628 1058 649 1074 q 579 1043 607 1043 z "},"Ả":{"ha":940,"x_min":-28,"x_max":968,"o":"m 4 0 q -28 89 -28 35 q 42 111 10 89 q 90 179 75 133 l 318 851 q 178 869 263 869 q 211 969 178 929 l 592 969 l 850 183 q 899 113 865 138 q 968 89 932 89 q 936 0 968 35 l 560 0 q 528 89 528 35 q 585 105 564 89 q 607 156 607 121 q 605 185 607 168 q 597 221 603 201 l 589 250 l 278 250 l 269 221 q 260 188 264 203 q 257 160 257 172 q 281 106 257 122 q 346 89 304 89 q 314 0 346 35 l 4 0 m 308 358 l 558 358 l 460 703 q 428 774 447 744 l 308 358 m 467 1019 q 413 1024 433 1019 q 365 1033 392 1028 l 340 1117 q 363 1113 351 1115 q 389 1111 375 1111 q 464 1128 428 1111 q 500 1192 500 1144 q 472 1242 500 1219 q 396 1264 444 1264 q 343 1254 369 1264 q 285 1229 317 1244 l 250 1331 q 292 1358 263 1343 q 362 1383 322 1372 q 442 1393 401 1393 q 515 1385 475 1393 q 590 1356 554 1376 q 647 1298 625 1335 q 669 1206 669 1261 q 646 1119 669 1163 q 577 1048 622 1076 q 467 1019 532 1019 z "},"Ȃ":{"ha":940,"x_min":-28,"x_max":968,"o":"m 4 0 q -28 89 -28 35 q 42 111 10 89 q 90 179 75 133 l 318 851 q 178 869 263 869 q 211 969 178 929 l 592 969 l 850 183 q 899 113 865 138 q 968 89 932 89 q 936 0 968 35 l 560 0 q 528 89 528 35 q 585 105 564 89 q 607 156 607 121 q 605 185 607 168 q 597 221 603 201 l 589 250 l 278 250 l 269 221 q 260 188 264 203 q 257 160 257 172 q 281 106 257 122 q 346 89 304 89 q 314 0 346 35 l 4 0 m 308 358 l 558 358 l 460 703 q 428 774 447 744 l 308 358 m 268 1024 q 231 1031 249 1024 q 210 1051 214 1038 q 277 1238 210 1168 q 460 1308 344 1308 q 642 1238 575 1308 q 710 1051 710 1168 q 690 1031 707 1038 q 651 1024 672 1024 q 615 1029 635 1024 q 588 1046 594 1035 q 553 1132 588 1093 q 460 1171 519 1171 q 366 1132 400 1171 q 332 1046 332 1093 q 306 1029 325 1035 q 268 1024 286 1024 z "},"Ā":{"ha":940,"x_min":-28,"x_max":968,"o":"m 4 0 q -28 89 -28 35 q 42 111 10 89 q 90 179 75 133 l 318 851 q 178 869 263 869 q 211 969 178 929 l 592 969 l 850 183 q 899 113 865 138 q 968 89 932 89 q 936 0 968 35 l 560 0 q 528 89 528 35 q 585 105 564 89 q 607 156 607 121 q 605 185 607 168 q 597 221 603 201 l 589 250 l 278 250 l 269 221 q 260 188 264 203 q 257 160 257 172 q 281 106 257 122 q 346 89 304 89 q 314 0 346 35 l 4 0 m 308 358 l 558 358 l 460 703 q 428 774 447 744 l 308 358 m 242 1067 q 235 1094 238 1078 q 233 1128 233 1111 q 235 1165 233 1147 q 243 1192 238 1182 l 678 1192 q 684 1163 682 1181 q 686 1128 686 1146 q 679 1067 686 1088 l 242 1067 z "},"Ą":{"ha":942,"x_min":-28,"x_max":968,"o":"m 4 0 q -28 89 -28 35 q 42 111 10 89 q 90 179 75 133 l 318 851 q 178 869 263 869 q 211 969 178 929 l 592 969 l 850 183 q 899 113 865 138 q 968 89 932 89 q 936 0 968 35 l 875 0 q 784 -53 814 -17 q 754 -135 754 -90 q 782 -177 754 -165 q 842 -189 810 -189 q 897 -181 871 -189 q 936 -164 924 -174 q 945 -189 943 -174 q 947 -217 947 -204 q 942 -255 947 -236 q 922 -289 938 -274 q 865 -320 904 -307 q 776 -333 825 -333 q 692 -318 733 -333 q 623 -268 650 -303 q 596 -176 596 -233 q 628 -70 596 -114 q 704 0 661 -26 l 560 0 q 528 89 528 35 q 585 105 564 89 q 607 156 607 121 q 605 185 607 168 q 597 221 603 201 l 589 250 l 278 250 l 269 221 q 260 188 264 203 q 257 160 257 172 q 281 106 257 122 q 346 89 304 89 q 314 0 346 35 l 4 0 m 308 358 l 558 358 l 460 703 q 428 774 447 744 l 308 358 z "},"Å":{"ha":940,"x_min":-28,"x_max":968,"o":"m 4 0 q -28 89 -28 35 q 42 111 10 89 q 90 179 75 133 l 318 851 q 178 869 263 869 q 211 969 178 929 l 592 969 l 850 183 q 899 113 865 138 q 968 89 932 89 q 936 0 968 35 l 560 0 q 528 89 528 35 q 585 105 564 89 q 607 156 607 121 q 605 185 607 168 q 597 221 603 201 l 589 250 l 278 250 l 269 221 q 260 188 264 203 q 257 160 257 172 q 281 106 257 122 q 346 89 304 89 q 314 0 346 35 l 4 0 m 308 358 l 558 358 l 460 703 q 428 774 447 744 l 308 358 m 458 1043 q 316 1096 369 1043 q 263 1235 263 1149 q 316 1374 263 1321 q 458 1428 369 1428 q 602 1374 549 1428 q 656 1235 656 1321 q 602 1096 656 1149 q 458 1043 549 1043 m 458 1157 q 515 1178 494 1157 q 536 1233 536 1200 q 515 1290 536 1269 q 458 1311 494 1311 q 403 1290 424 1311 q 382 1233 382 1269 q 403 1178 382 1200 q 458 1157 424 1157 z "},"Ǻ":{"ha":913,"x_min":-28,"x_max":968,"o":"m 429 1063 q 292 1113 343 1063 q 240 1247 240 1164 q 292 1381 240 1329 q 429 1432 343 1432 q 468 1429 450 1432 q 538 1498 504 1460 q 596 1581 572 1536 q 661 1553 636 1581 q 686 1500 686 1525 q 652 1433 686 1468 q 574 1375 618 1399 q 619 1247 619 1325 q 567 1113 619 1164 q 429 1063 515 1063 m 429 1172 q 484 1193 464 1172 q 504 1246 504 1214 q 484 1300 504 1279 q 429 1321 464 1321 q 376 1300 396 1321 q 356 1246 356 1279 q 376 1193 356 1214 q 429 1172 396 1172 m 4 0 q -28 89 -28 35 q 42 111 10 89 q 90 179 75 133 l 318 851 q 178 869 263 869 q 211 969 178 929 l 592 969 l 850 183 q 899 113 865 138 q 968 89 932 89 q 936 0 968 35 l 560 0 q 528 89 528 35 q 585 105 564 89 q 607 156 607 121 q 605 185 607 168 q 597 221 603 201 l 589 250 l 278 250 l 269 221 q 260 188 264 203 q 257 160 257 172 q 281 106 257 122 q 346 89 304 89 q 314 0 346 35 l 4 0 m 308 358 l 558 358 l 460 703 q 428 774 447 744 l 308 358 z "},"Ḁ":{"ha":940,"x_min":-28,"x_max":968,"o":"m 4 0 q -28 89 -28 35 q 42 111 10 89 q 90 179 75 133 l 318 851 q 178 869 263 869 q 211 969 178 929 l 592 969 l 850 183 q 899 113 865 138 q 968 89 932 89 q 936 0 968 35 l 560 0 q 528 89 528 35 q 585 105 564 89 q 607 156 607 121 q 605 185 607 168 q 597 221 603 201 l 589 250 l 278 250 l 269 221 q 260 188 264 203 q 257 160 257 172 q 281 106 257 122 q 346 89 304 89 q 314 0 346 35 l 4 0 m 308 358 l 558 358 l 460 703 q 428 774 447 744 l 308 358 m 449 -403 q 306 -350 360 -403 q 253 -210 253 -297 q 306 -71 253 -124 q 449 -18 360 -18 q 592 -71 539 -18 q 644 -210 644 -124 q 592 -350 644 -297 q 449 -403 539 -403 m 449 -287 q 505 -267 485 -287 q 525 -211 525 -246 q 505 -155 525 -176 q 449 -133 485 -133 q 393 -155 414 -133 q 372 -211 372 -176 q 393 -267 372 -246 q 449 -287 414 -287 z "},"Ã":{"ha":940,"x_min":-28,"x_max":968,"o":"m 4 0 q -28 89 -28 35 q 42 111 10 89 q 90 179 75 133 l 318 851 q 178 869 263 869 q 211 969 178 929 l 592 969 l 850 183 q 899 113 865 138 q 968 89 932 89 q 936 0 968 35 l 560 0 q 528 89 528 35 q 585 105 564 89 q 607 156 607 121 q 605 185 607 168 q 597 221 603 201 l 589 250 l 278 250 l 269 221 q 260 188 264 203 q 257 160 257 172 q 281 106 257 122 q 346 89 304 89 q 314 0 346 35 l 4 0 m 308 358 l 558 358 l 460 703 q 428 774 447 744 l 308 358 m 549 1038 q 486 1051 511 1038 q 443 1082 461 1064 q 407 1113 425 1100 q 364 1126 389 1126 q 319 1117 342 1126 q 265 1072 296 1107 q 235 1075 254 1064 q 203 1107 217 1086 q 194 1149 189 1128 q 228 1208 203 1179 q 291 1255 253 1236 q 372 1274 329 1274 q 442 1260 415 1274 q 488 1229 469 1247 q 522 1198 506 1211 q 557 1185 538 1185 q 602 1194 581 1185 q 654 1238 624 1203 q 685 1235 665 1247 q 717 1203 704 1224 q 725 1161 731 1182 q 668 1077 714 1117 q 549 1038 622 1038 z "},"Æ":{"ha":1250,"x_min":-76,"x_max":1228,"o":"m 1165 -22 q 1144 -15 1157 -19 q 1107 0 1132 -11 l 474 0 q 442 88 442 39 q 507 104 488 88 q 526 160 526 121 l 526 228 l 244 228 l 242 221 q 222 151 222 178 q 246 104 222 119 q 308 89 269 89 q 276 0 308 36 l -46 0 q -76 89 -76 38 q -8 113 -40 89 q 44 178 25 138 l 350 792 q 302 851 344 829 q 194 874 260 874 q 140 869 168 874 q 171 969 140 931 l 1004 969 q 1060 987 1029 981 q 1117 993 1090 993 q 1145 928 1129 971 q 1174 844 1161 886 q 1186 779 1186 803 q 1151 757 1175 768 q 1101 738 1126 746 q 1060 725 1076 729 q 1006 811 1044 771 q 913 851 968 851 l 756 851 l 756 558 l 856 558 q 920 581 894 558 q 946 660 946 604 q 1058 631 1008 660 l 1058 372 q 947 343 1011 343 q 922 424 947 399 q 857 449 896 449 l 756 449 l 756 122 l 924 122 q 1027 173 985 122 q 1079 293 1069 224 l 1228 293 q 1222 228 1228 272 q 1206 134 1215 185 q 1186 40 1197 83 q 1165 -22 1175 -3 m 296 336 l 526 336 l 526 856 l 296 336 z "},"Ǽ":{"ha":1250,"x_min":-76,"x_max":1228,"o":"m 1165 -22 q 1144 -15 1157 -19 q 1107 0 1132 -11 l 474 0 q 442 88 442 39 q 507 104 488 88 q 526 160 526 121 l 526 228 l 244 228 l 242 221 q 222 151 222 178 q 246 104 222 119 q 308 89 269 89 q 276 0 308 36 l -46 0 q -76 89 -76 38 q -8 113 -40 89 q 44 178 25 138 l 350 792 q 302 851 344 829 q 194 874 260 874 q 140 869 168 874 q 171 969 140 931 l 1004 969 q 1060 987 1029 981 q 1117 993 1090 993 q 1145 928 1129 971 q 1174 844 1161 886 q 1186 779 1186 803 q 1151 757 1175 768 q 1101 738 1126 746 q 1060 725 1076 729 q 1006 811 1044 771 q 913 851 968 851 l 756 851 l 756 558 l 856 558 q 920 581 894 558 q 946 660 946 604 q 1058 631 1008 660 l 1058 372 q 947 343 1011 343 q 922 424 947 399 q 857 449 896 449 l 756 449 l 756 122 l 924 122 q 1027 173 985 122 q 1079 293 1069 224 l 1228 293 q 1222 228 1228 272 q 1206 134 1215 185 q 1186 40 1197 83 q 1165 -22 1175 -3 m 296 336 l 526 336 l 526 856 l 296 336 m 581 1024 q 533 1039 554 1024 q 507 1088 511 1054 q 601 1160 551 1117 q 697 1256 651 1203 q 774 1367 743 1310 q 838 1349 811 1367 q 880 1305 865 1331 q 894 1256 894 1279 q 860 1178 894 1218 q 774 1102 825 1138 q 669 1045 722 1067 q 581 1024 617 1024 z "},"Ǣ":{"ha":1250,"x_min":-76,"x_max":1228,"o":"m 1165 -22 q 1144 -15 1157 -19 q 1107 0 1132 -11 l 474 0 q 442 88 442 39 q 507 104 488 88 q 526 160 526 121 l 526 228 l 244 228 l 242 221 q 222 151 222 178 q 246 104 222 119 q 308 89 269 89 q 276 0 308 36 l -46 0 q -76 89 -76 38 q -8 113 -40 89 q 44 178 25 138 l 350 792 q 302 851 344 829 q 194 874 260 874 q 140 869 168 874 q 171 969 140 931 l 1004 969 q 1060 987 1029 981 q 1117 993 1090 993 q 1145 928 1129 971 q 1174 844 1161 886 q 1186 779 1186 803 q 1151 757 1175 768 q 1101 738 1126 746 q 1060 725 1076 729 q 1006 811 1044 771 q 913 851 968 851 l 756 851 l 756 558 l 856 558 q 920 581 894 558 q 946 660 946 604 q 1058 631 1008 660 l 1058 372 q 947 343 1011 343 q 922 424 947 399 q 857 449 896 449 l 756 449 l 756 122 l 924 122 q 1027 173 985 122 q 1079 293 1069 224 l 1228 293 q 1222 228 1228 272 q 1206 134 1215 185 q 1186 40 1197 83 q 1165 -22 1175 -3 m 296 336 l 526 336 l 526 856 l 296 336 m 407 1067 q 401 1094 403 1078 q 399 1128 399 1111 q 401 1165 399 1147 q 408 1192 403 1182 l 843 1192 q 849 1163 847 1181 q 851 1128 851 1146 q 844 1067 851 1088 l 407 1067 z "},"B":{"ha":879,"x_min":36,"x_max":857,"o":"m 432 -11 q 281 -6 367 -11 q 67 0 194 0 q 36 88 36 38 q 103 103 83 88 q 122 158 122 119 l 122 811 q 103 866 122 850 q 36 882 83 882 q 67 969 36 932 q 224 972 165 969 q 323 975 282 974 q 406 976 364 976 q 604 955 526 976 q 726 899 682 933 q 787 824 769 865 q 804 743 804 783 q 764 610 804 665 q 628 514 724 554 q 802 436 747 489 q 857 272 857 383 q 839 167 857 218 q 774 76 821 117 q 644 13 728 36 q 432 -11 561 -11 m 393 547 q 537 592 494 547 q 579 711 579 636 q 538 831 579 786 q 408 875 497 875 q 378 874 394 875 q 351 869 363 872 l 351 550 q 372 548 361 549 q 393 547 383 547 m 410 90 q 604 258 604 90 q 556 400 604 353 q 397 447 508 447 q 373 447 386 447 q 351 446 360 446 l 351 94 q 376 92 361 93 q 410 90 392 90 z "},"Ḃ":{"ha":879,"x_min":36,"x_max":857,"o":"m 432 -11 q 281 -6 367 -11 q 67 0 194 0 q 36 88 36 38 q 103 103 83 88 q 122 158 122 119 l 122 811 q 103 866 122 850 q 36 882 83 882 q 67 969 36 932 q 224 972 165 969 q 323 975 282 974 q 406 976 364 976 q 604 955 526 976 q 726 899 682 933 q 787 824 769 865 q 804 743 804 783 q 764 610 804 665 q 628 514 724 554 q 802 436 747 489 q 857 272 857 383 q 839 167 857 218 q 774 76 821 117 q 644 13 728 36 q 432 -11 561 -11 m 393 547 q 537 592 494 547 q 579 711 579 636 q 538 831 579 786 q 408 875 497 875 q 378 874 394 875 q 351 869 363 872 l 351 550 q 372 548 361 549 q 393 547 383 547 m 410 90 q 604 258 604 90 q 556 400 604 353 q 397 447 508 447 q 373 447 386 447 q 351 446 360 446 l 351 94 q 376 92 361 93 q 410 90 392 90 m 404 1043 q 309 1078 344 1043 q 274 1174 274 1114 q 310 1268 274 1232 q 407 1304 347 1304 q 503 1268 468 1304 q 538 1174 538 1232 q 501 1078 538 1114 q 404 1043 465 1043 z "},"Ḅ":{"ha":879,"x_min":36,"x_max":857,"o":"m 432 -11 q 281 -6 367 -11 q 67 0 194 0 q 36 88 36 38 q 103 103 83 88 q 122 158 122 119 l 122 811 q 103 866 122 850 q 36 882 83 882 q 67 969 36 932 q 224 972 165 969 q 323 975 282 974 q 406 976 364 976 q 604 955 526 976 q 726 899 682 933 q 787 824 769 865 q 804 743 804 783 q 764 610 804 665 q 628 514 724 554 q 802 436 747 489 q 857 272 857 383 q 839 167 857 218 q 774 76 821 117 q 644 13 728 36 q 432 -11 561 -11 m 393 547 q 537 592 494 547 q 579 711 579 636 q 538 831 579 786 q 408 875 497 875 q 378 874 394 875 q 351 869 363 872 l 351 550 q 372 548 361 549 q 393 547 383 547 m 410 90 q 604 258 604 90 q 556 400 604 353 q 397 447 508 447 q 373 447 386 447 q 351 446 360 446 l 351 94 q 376 92 361 93 q 410 90 392 90 m 421 -362 q 326 -327 361 -362 q 290 -232 290 -292 q 327 -137 290 -174 q 424 -101 364 -101 q 520 -137 485 -101 q 556 -232 556 -174 q 519 -327 556 -292 q 421 -362 482 -362 z "},"Ḇ":{"ha":879,"x_min":36,"x_max":857,"o":"m 432 -11 q 281 -6 367 -11 q 67 0 194 0 q 36 88 36 38 q 103 103 83 88 q 122 158 122 119 l 122 811 q 103 866 122 850 q 36 882 83 882 q 67 969 36 932 q 224 972 165 969 q 323 975 282 974 q 406 976 364 976 q 604 955 526 976 q 726 899 682 933 q 787 824 769 865 q 804 743 804 783 q 764 610 804 665 q 628 514 724 554 q 802 436 747 489 q 857 272 857 383 q 839 167 857 218 q 774 76 821 117 q 644 13 728 36 q 432 -11 561 -11 m 393 547 q 537 592 494 547 q 579 711 579 636 q 538 831 579 786 q 408 875 497 875 q 378 874 394 875 q 351 869 363 872 l 351 550 q 372 548 361 549 q 393 547 383 547 m 410 90 q 604 258 604 90 q 556 400 604 353 q 397 447 508 447 q 373 447 386 447 q 351 446 360 446 l 351 94 q 376 92 361 93 q 410 90 392 90 m 206 -243 q 199 -212 201 -232 q 197 -175 197 -192 q 199 -135 197 -156 q 207 -104 201 -114 l 642 -104 q 648 -136 646 -115 q 650 -175 650 -157 q 648 -213 650 -193 q 643 -243 646 -233 l 206 -243 z "},"C":{"ha":797,"x_min":35,"x_max":771,"o":"m 478 -19 q 258 36 360 -19 q 96 205 157 92 q 35 489 35 318 q 90 763 35 653 q 242 928 144 872 q 469 985 340 985 q 539 976 500 985 q 607 954 578 968 q 644 967 621 961 q 692 979 668 974 q 731 985 717 985 q 757 880 749 940 q 768 760 765 819 q 771 660 771 701 l 614 660 q 565 807 603 750 q 465 864 526 864 q 333 788 385 864 q 281 538 281 711 q 319 309 281 394 q 422 187 358 224 q 560 150 486 150 q 668 174 624 150 q 731 225 713 199 q 759 187 749 213 q 769 142 769 161 q 735 72 769 110 q 637 7 701 33 q 478 -19 572 -19 z "},"Ć":{"ha":797,"x_min":35,"x_max":771,"o":"m 478 -19 q 258 36 360 -19 q 96 205 157 92 q 35 489 35 318 q 90 763 35 653 q 242 928 144 872 q 469 985 340 985 q 539 976 500 985 q 607 954 578 968 q 644 967 621 961 q 692 979 668 974 q 731 985 717 985 q 757 880 749 940 q 768 760 765 819 q 771 660 771 701 l 614 660 q 565 807 603 750 q 465 864 526 864 q 333 788 385 864 q 281 538 281 711 q 319 309 281 394 q 422 187 358 224 q 560 150 486 150 q 668 174 624 150 q 731 225 713 199 q 759 187 749 213 q 769 142 769 161 q 735 72 769 110 q 637 7 701 33 q 478 -19 572 -19 m 426 1024 q 378 1039 400 1024 q 353 1088 357 1054 q 447 1160 397 1117 q 543 1256 497 1203 q 619 1367 589 1310 q 684 1349 657 1367 q 726 1305 711 1331 q 740 1256 740 1279 q 706 1178 740 1218 q 619 1102 671 1138 q 515 1045 568 1067 q 426 1024 463 1024 z "},"Č":{"ha":797,"x_min":35,"x_max":771,"o":"m 478 -19 q 258 36 360 -19 q 96 205 157 92 q 35 489 35 318 q 90 763 35 653 q 242 928 144 872 q 469 985 340 985 q 539 976 500 985 q 607 954 578 968 q 644 967 621 961 q 692 979 668 974 q 731 985 717 985 q 757 880 749 940 q 768 760 765 819 q 771 660 771 701 l 614 660 q 565 807 603 750 q 465 864 526 864 q 333 788 385 864 q 281 538 281 711 q 319 309 281 394 q 422 187 358 224 q 560 150 486 150 q 668 174 624 150 q 731 225 713 199 q 759 187 749 213 q 769 142 769 161 q 735 72 769 110 q 637 7 701 33 q 478 -19 572 -19 m 418 1043 l 213 1269 q 240 1313 219 1293 q 288 1342 261 1332 l 471 1201 l 653 1342 q 700 1313 679 1332 q 729 1269 721 1293 l 524 1043 l 418 1043 z "},"Ç":{"ha":797,"x_min":35,"x_max":771,"o":"m 478 -19 q 258 36 360 -19 q 96 205 157 92 q 35 489 35 318 q 90 763 35 653 q 242 928 144 872 q 469 985 340 985 q 539 976 500 985 q 607 954 578 968 q 644 967 621 961 q 692 979 668 974 q 731 985 717 985 q 757 880 749 940 q 768 760 765 819 q 771 660 771 701 l 614 660 q 565 807 603 750 q 465 864 526 864 q 333 788 385 864 q 281 538 281 711 q 319 309 281 394 q 422 187 358 224 q 560 150 486 150 q 668 174 624 150 q 731 225 713 199 q 759 187 749 213 q 769 142 769 161 q 735 72 769 110 q 637 7 701 33 q 478 -19 572 -19 m 479 -417 q 358 -398 408 -417 q 286 -358 308 -379 q 297 -317 286 -337 q 319 -286 307 -297 q 456 -333 386 -333 q 514 -308 496 -333 q 532 -265 532 -283 q 517 -224 532 -247 q 465 -201 501 -201 q 444 -203 456 -201 q 413 -210 432 -204 l 361 -181 l 404 17 l 519 17 l 486 -128 q 563 -117 519 -117 q 642 -136 610 -117 q 690 -185 674 -156 q 706 -246 706 -215 q 680 -326 706 -286 q 604 -391 654 -365 q 479 -417 554 -417 z "},"Ḉ":{"ha":797,"x_min":35,"x_max":771,"o":"m 478 -19 q 258 36 360 -19 q 96 205 157 92 q 35 489 35 318 q 90 763 35 653 q 242 928 144 872 q 469 985 340 985 q 539 976 500 985 q 607 954 578 968 q 644 967 621 961 q 692 979 668 974 q 731 985 717 985 q 757 880 749 940 q 768 760 765 819 q 771 660 771 701 l 614 660 q 565 807 603 750 q 465 864 526 864 q 333 788 385 864 q 281 538 281 711 q 319 309 281 394 q 422 187 358 224 q 560 150 486 150 q 668 174 624 150 q 731 225 713 199 q 759 187 749 213 q 769 142 769 161 q 735 72 769 110 q 637 7 701 33 q 478 -19 572 -19 m 479 -417 q 358 -398 408 -417 q 286 -358 308 -379 q 297 -317 286 -337 q 319 -286 307 -297 q 456 -333 386 -333 q 514 -308 496 -333 q 532 -265 532 -283 q 517 -224 532 -247 q 465 -201 501 -201 q 444 -203 456 -201 q 413 -210 432 -204 l 361 -181 l 404 17 l 519 17 l 486 -128 q 563 -117 519 -117 q 642 -136 610 -117 q 690 -185 674 -156 q 706 -246 706 -215 q 680 -326 706 -286 q 604 -391 654 -365 q 479 -417 554 -417 m 426 1024 q 378 1039 400 1024 q 353 1088 357 1054 q 447 1160 397 1117 q 543 1256 497 1203 q 619 1367 589 1310 q 684 1349 657 1367 q 726 1305 711 1331 q 740 1256 740 1279 q 706 1178 740 1218 q 619 1102 671 1138 q 515 1045 568 1067 q 426 1024 463 1024 z "},"Ĉ":{"ha":797,"x_min":35,"x_max":771,"o":"m 478 -19 q 258 36 360 -19 q 96 205 157 92 q 35 489 35 318 q 90 763 35 653 q 242 928 144 872 q 469 985 340 985 q 539 976 500 985 q 607 954 578 968 q 644 967 621 961 q 692 979 668 974 q 731 985 717 985 q 757 880 749 940 q 768 760 765 819 q 771 660 771 701 l 614 660 q 565 807 603 750 q 465 864 526 864 q 333 788 385 864 q 281 538 281 711 q 319 309 281 394 q 422 187 358 224 q 560 150 486 150 q 668 174 624 150 q 731 225 713 199 q 759 187 749 213 q 769 142 769 161 q 735 72 769 110 q 637 7 701 33 q 478 -19 572 -19 m 286 1044 q 239 1074 260 1054 q 211 1115 218 1093 l 417 1343 l 522 1343 l 729 1115 q 700 1074 721 1093 q 653 1044 679 1054 l 469 1182 l 286 1044 z "},"Ċ":{"ha":797,"x_min":35,"x_max":771,"o":"m 478 -19 q 258 36 360 -19 q 96 205 157 92 q 35 489 35 318 q 90 763 35 653 q 242 928 144 872 q 469 985 340 985 q 539 976 500 985 q 607 954 578 968 q 644 967 621 961 q 692 979 668 974 q 731 985 717 985 q 757 880 749 940 q 768 760 765 819 q 771 660 771 701 l 614 660 q 565 807 603 750 q 465 864 526 864 q 333 788 385 864 q 281 538 281 711 q 319 309 281 394 q 422 187 358 224 q 560 150 486 150 q 668 174 624 150 q 731 225 713 199 q 759 187 749 213 q 769 142 769 161 q 735 72 769 110 q 637 7 701 33 q 478 -19 572 -19 m 469 1043 q 374 1078 410 1043 q 339 1174 339 1114 q 376 1268 339 1232 q 472 1304 413 1304 q 568 1268 533 1304 q 603 1174 603 1232 q 567 1078 603 1114 q 469 1043 531 1043 z "},"D":{"ha":928,"x_min":36,"x_max":890,"o":"m 406 -15 q 333 -11 374 -15 q 231 -3 293 -7 q 67 0 168 0 q 36 89 36 39 q 102 105 82 89 q 122 160 122 121 l 122 813 q 102 866 122 850 q 36 882 82 882 q 67 969 36 935 q 299 978 204 969 q 425 986 394 986 q 633 948 546 986 q 778 844 721 910 q 863 691 835 778 q 890 506 890 604 q 863 304 890 399 q 776 138 835 210 q 625 26 717 67 q 406 -15 533 -15 m 394 100 q 526 138 471 100 q 613 260 582 175 q 643 485 643 344 q 572 781 643 688 q 383 875 501 875 q 365 875 374 875 q 350 872 357 875 l 350 103 q 373 101 361 101 q 394 100 385 100 z "},"Ǳ":{"ha":1772,"x_min":36,"x_max":1751,"o":"m 406 -15 q 333 -11 374 -15 q 231 -3 293 -7 q 67 0 168 0 q 36 89 36 39 q 102 105 82 89 q 122 160 122 121 l 122 813 q 102 866 122 850 q 36 882 82 882 q 67 969 36 935 q 299 978 204 969 q 425 986 394 986 q 633 948 546 986 q 778 844 721 910 q 863 691 835 778 q 890 506 890 604 q 863 304 890 399 q 776 138 835 210 q 625 26 717 67 q 406 -15 533 -15 m 394 100 q 526 138 471 100 q 613 260 582 175 q 643 485 643 344 q 572 781 643 688 q 383 875 501 875 q 365 875 374 875 q 350 872 357 875 l 350 103 q 373 101 361 101 q 394 100 385 100 m 1693 -22 q 1641 -17 1668 -22 q 1589 0 1614 -11 l 961 0 l 926 53 l 1447 863 l 1297 863 q 1167 814 1207 863 q 1113 663 1128 765 l 975 663 q 988 840 975 757 q 1022 969 1000 924 l 1701 969 l 1736 918 l 1232 110 l 1440 110 q 1522 144 1488 110 q 1581 231 1557 179 q 1618 332 1606 282 l 1751 332 q 1748 279 1751 315 q 1738 198 1744 243 q 1724 108 1732 153 q 1708 28 1717 64 q 1693 -22 1700 -7 z "},"Ǆ":{"ha":1772,"x_min":36,"x_max":1751,"o":"m 406 -15 q 333 -11 374 -15 q 231 -3 293 -7 q 67 0 168 0 q 36 89 36 39 q 102 105 82 89 q 122 160 122 121 l 122 813 q 102 866 122 850 q 36 882 82 882 q 67 969 36 935 q 299 978 204 969 q 425 986 394 986 q 633 948 546 986 q 778 844 721 910 q 863 691 835 778 q 890 506 890 604 q 863 304 890 399 q 776 138 835 210 q 625 26 717 67 q 406 -15 533 -15 m 394 100 q 526 138 471 100 q 613 260 582 175 q 643 485 643 344 q 572 781 643 688 q 383 875 501 875 q 365 875 374 875 q 350 872 357 875 l 350 103 q 373 101 361 101 q 394 100 385 100 m 1693 -22 q 1641 -17 1668 -22 q 1589 0 1614 -11 l 961 0 l 926 53 l 1447 863 l 1297 863 q 1167 814 1207 863 q 1113 663 1128 765 l 975 663 q 988 840 975 757 q 1022 969 1000 924 l 1701 969 l 1736 918 l 1232 110 l 1440 110 q 1522 144 1488 110 q 1581 231 1557 179 q 1618 332 1606 282 l 1751 332 q 1748 279 1751 315 q 1738 198 1744 243 q 1724 108 1732 153 q 1708 28 1717 64 q 1693 -22 1700 -7 m 1333 1043 l 1128 1269 q 1156 1313 1135 1293 q 1203 1342 1176 1332 l 1386 1201 l 1568 1342 q 1615 1313 1594 1332 q 1644 1269 1636 1293 l 1439 1043 l 1333 1043 z "},"Ɖ":{"ha":928,"x_min":36,"x_max":890,"o":"m 406 -15 q 333 -11 374 -15 q 231 -3 293 -7 q 67 0 168 0 q 36 89 36 39 q 102 105 82 89 q 122 160 122 121 l 122 463 l 54 463 l 54 571 l 122 571 l 122 813 q 102 866 122 850 q 36 882 82 882 q 67 969 36 935 q 299 978 204 969 q 425 986 394 986 q 633 948 546 986 q 778 844 721 910 q 863 691 835 778 q 890 506 890 604 q 863 304 890 399 q 776 138 835 210 q 625 26 717 67 q 406 -15 533 -15 m 394 100 q 526 138 471 100 q 613 260 582 175 q 643 485 643 344 q 572 781 643 688 q 383 875 501 875 q 365 875 374 875 q 350 872 357 875 l 350 571 l 500 571 q 498 513 500 544 q 478 463 496 482 l 350 463 l 350 103 q 373 101 361 101 q 394 100 385 100 z "},"Ð":{"ha":928,"x_min":36,"x_max":890,"o":"m 406 -15 q 333 -11 374 -15 q 231 -3 293 -7 q 67 0 168 0 q 36 89 36 39 q 102 105 82 89 q 122 160 122 121 l 122 463 l 54 463 l 54 571 l 122 571 l 122 813 q 102 866 122 850 q 36 882 82 882 q 67 969 36 935 q 299 978 204 969 q 425 986 394 986 q 633 948 546 986 q 778 844 721 910 q 863 691 835 778 q 890 506 890 604 q 863 304 890 399 q 776 138 835 210 q 625 26 717 67 q 406 -15 533 -15 m 394 100 q 526 138 471 100 q 613 260 582 175 q 643 485 643 344 q 572 781 643 688 q 383 875 501 875 q 365 875 374 875 q 350 872 357 875 l 350 571 l 500 571 q 498 513 500 544 q 478 463 496 482 l 350 463 l 350 103 q 373 101 361 101 q 394 100 385 100 z "},"Ď":{"ha":928,"x_min":36,"x_max":890,"o":"m 406 -15 q 333 -11 374 -15 q 231 -3 293 -7 q 67 0 168 0 q 36 89 36 39 q 102 105 82 89 q 122 160 122 121 l 122 813 q 102 866 122 850 q 36 882 82 882 q 67 969 36 935 q 299 978 204 969 q 425 986 394 986 q 633 948 546 986 q 778 844 721 910 q 863 691 835 778 q 890 506 890 604 q 863 304 890 399 q 776 138 835 210 q 625 26 717 67 q 406 -15 533 -15 m 394 100 q 526 138 471 100 q 613 260 582 175 q 643 485 643 344 q 572 781 643 688 q 383 875 501 875 q 365 875 374 875 q 350 872 357 875 l 350 103 q 373 101 361 101 q 394 100 385 100 m 369 1043 l 164 1269 q 192 1313 171 1293 q 239 1342 213 1332 l 422 1201 l 604 1342 q 651 1313 631 1332 q 681 1269 672 1293 l 475 1043 l 369 1043 z "},"Ḑ":{"ha":928,"x_min":36,"x_max":890,"o":"m 406 -15 q 333 -11 374 -15 q 231 -3 293 -7 q 67 0 168 0 q 36 89 36 39 q 102 105 82 89 q 122 160 122 121 l 122 813 q 102 866 122 850 q 36 882 82 882 q 67 969 36 935 q 299 978 204 969 q 425 986 394 986 q 633 948 546 986 q 778 844 721 910 q 863 691 835 778 q 890 506 890 604 q 863 304 890 399 q 776 138 835 210 q 625 26 717 67 q 406 -15 533 -15 m 394 100 q 526 138 471 100 q 613 260 582 175 q 643 485 643 344 q 572 781 643 688 q 383 875 501 875 q 365 875 374 875 q 350 872 357 875 l 350 103 q 373 101 361 101 q 394 100 385 100 m 367 -479 q 342 -460 353 -475 q 331 -426 331 -444 q 379 -387 361 -410 q 397 -331 397 -364 q 394 -315 397 -326 q 386 -317 390 -317 q 378 -318 382 -318 q 299 -285 326 -318 q 272 -212 272 -253 q 303 -131 272 -161 q 385 -101 335 -101 q 478 -138 440 -101 q 517 -257 517 -175 q 505 -331 517 -286 q 460 -416 493 -375 q 367 -479 428 -457 z "},"Ḓ":{"ha":928,"x_min":36,"x_max":890,"o":"m 406 -15 q 333 -11 374 -15 q 231 -3 293 -7 q 67 0 168 0 q 36 89 36 39 q 102 105 82 89 q 122 160 122 121 l 122 813 q 102 866 122 850 q 36 882 82 882 q 67 969 36 935 q 299 978 204 969 q 425 986 394 986 q 633 948 546 986 q 778 844 721 910 q 863 691 835 778 q 890 506 890 604 q 863 304 890 399 q 776 138 835 210 q 625 26 717 67 q 406 -15 533 -15 m 394 100 q 526 138 471 100 q 613 260 582 175 q 643 485 643 344 q 572 781 643 688 q 383 875 501 875 q 365 875 374 875 q 350 872 357 875 l 350 103 q 373 101 361 101 q 394 100 385 100 m 210 -368 q 163 -339 183 -358 q 135 -297 142 -319 l 340 -69 l 446 -69 l 653 -297 q 624 -339 644 -319 q 576 -368 603 -358 l 393 -231 l 210 -368 z "},"Đ":{"ha":928,"x_min":36,"x_max":890,"o":"m 406 -15 q 333 -11 374 -15 q 231 -3 293 -7 q 67 0 168 0 q 36 89 36 39 q 102 105 82 89 q 122 160 122 121 l 122 463 l 54 463 l 54 571 l 122 571 l 122 813 q 102 866 122 850 q 36 882 82 882 q 67 969 36 935 q 299 978 204 969 q 425 986 394 986 q 633 948 546 986 q 778 844 721 910 q 863 691 835 778 q 890 506 890 604 q 863 304 890 399 q 776 138 835 210 q 625 26 717 67 q 406 -15 533 -15 m 394 100 q 526 138 471 100 q 613 260 582 175 q 643 485 643 344 q 572 781 643 688 q 383 875 501 875 q 365 875 374 875 q 350 872 357 875 l 350 571 l 500 571 q 498 513 500 544 q 478 463 496 482 l 350 463 l 350 103 q 373 101 361 101 q 394 100 385 100 z "},"Ḋ":{"ha":928,"x_min":36,"x_max":890,"o":"m 406 -15 q 333 -11 374 -15 q 231 -3 293 -7 q 67 0 168 0 q 36 89 36 39 q 102 105 82 89 q 122 160 122 121 l 122 813 q 102 866 122 850 q 36 882 82 882 q 67 969 36 935 q 299 978 204 969 q 425 986 394 986 q 633 948 546 986 q 778 844 721 910 q 863 691 835 778 q 890 506 890 604 q 863 304 890 399 q 776 138 835 210 q 625 26 717 67 q 406 -15 533 -15 m 394 100 q 526 138 471 100 q 613 260 582 175 q 643 485 643 344 q 572 781 643 688 q 383 875 501 875 q 365 875 374 875 q 350 872 357 875 l 350 103 q 373 101 361 101 q 394 100 385 100 m 421 1043 q 326 1078 361 1043 q 290 1174 290 1114 q 327 1268 290 1232 q 424 1304 364 1304 q 519 1268 485 1304 q 554 1174 554 1232 q 518 1078 554 1114 q 421 1043 482 1043 z "},"Ḍ":{"ha":928,"x_min":36,"x_max":890,"o":"m 406 -15 q 333 -11 374 -15 q 231 -3 293 -7 q 67 0 168 0 q 36 89 36 39 q 102 105 82 89 q 122 160 122 121 l 122 813 q 102 866 122 850 q 36 882 82 882 q 67 969 36 935 q 299 978 204 969 q 425 986 394 986 q 633 948 546 986 q 778 844 721 910 q 863 691 835 778 q 890 506 890 604 q 863 304 890 399 q 776 138 835 210 q 625 26 717 67 q 406 -15 533 -15 m 394 100 q 526 138 471 100 q 613 260 582 175 q 643 485 643 344 q 572 781 643 688 q 383 875 501 875 q 365 875 374 875 q 350 872 357 875 l 350 103 q 373 101 361 101 q 394 100 385 100 m 392 -362 q 297 -327 332 -362 q 261 -232 261 -292 q 298 -137 261 -174 q 394 -101 335 -101 q 491 -137 456 -101 q 526 -232 526 -174 q 490 -327 526 -292 q 392 -362 453 -362 z "},"Ḏ":{"ha":928,"x_min":36,"x_max":890,"o":"m 406 -15 q 333 -11 374 -15 q 231 -3 293 -7 q 67 0 168 0 q 36 89 36 39 q 102 105 82 89 q 122 160 122 121 l 122 813 q 102 866 122 850 q 36 882 82 882 q 67 969 36 935 q 299 978 204 969 q 425 986 394 986 q 633 948 546 986 q 778 844 721 910 q 863 691 835 778 q 890 506 890 604 q 863 304 890 399 q 776 138 835 210 q 625 26 717 67 q 406 -15 533 -15 m 394 100 q 526 138 471 100 q 613 260 582 175 q 643 485 643 344 q 572 781 643 688 q 383 875 501 875 q 365 875 374 875 q 350 872 357 875 l 350 103 q 373 101 361 101 q 394 100 385 100 m 176 -243 q 170 -212 172 -232 q 168 -175 168 -192 q 170 -135 168 -156 q 178 -104 172 -114 l 613 -104 q 619 -136 617 -115 q 621 -175 621 -157 q 619 -213 621 -193 q 614 -243 617 -233 l 176 -243 z "},"ǲ":{"ha":1628,"x_min":36,"x_max":1603,"o":"m 406 -15 q 333 -11 374 -15 q 231 -3 293 -7 q 67 0 168 0 q 36 89 36 39 q 102 105 82 89 q 122 160 122 121 l 122 813 q 102 866 122 850 q 36 882 82 882 q 67 969 36 935 q 299 978 204 969 q 425 986 394 986 q 633 948 546 986 q 778 844 721 910 q 863 691 835 778 q 890 506 890 604 q 863 304 890 399 q 776 138 835 210 q 625 26 717 67 q 406 -15 533 -15 m 394 100 q 526 138 471 100 q 613 260 582 175 q 643 485 643 344 q 572 781 643 688 q 383 875 501 875 q 365 875 374 875 q 350 872 357 875 l 350 103 q 373 101 361 101 q 394 100 385 100 m 974 0 l 935 53 l 1279 569 l 1346 643 l 1229 643 q 1135 607 1164 643 q 1106 488 1106 571 l 994 488 q 974 603 976 538 q 971 736 972 668 l 1561 736 l 1603 679 l 1285 182 l 1201 94 l 1293 94 q 1403 117 1364 94 q 1461 178 1442 139 q 1494 272 1481 218 l 1599 272 l 1599 224 q 1593 109 1599 169 q 1563 0 1588 49 l 974 0 z "},"ǅ":{"ha":1628,"x_min":36,"x_max":1603,"o":"m 406 -15 q 333 -11 374 -15 q 231 -3 293 -7 q 67 0 168 0 q 36 89 36 39 q 102 105 82 89 q 122 160 122 121 l 122 813 q 102 866 122 850 q 36 882 82 882 q 67 969 36 935 q 299 978 204 969 q 425 986 394 986 q 633 948 546 986 q 778 844 721 910 q 863 691 835 778 q 890 506 890 604 q 863 304 890 399 q 776 138 835 210 q 625 26 717 67 q 406 -15 533 -15 m 394 100 q 526 138 471 100 q 613 260 582 175 q 643 485 643 344 q 572 781 643 688 q 383 875 501 875 q 365 875 374 875 q 350 872 357 875 l 350 103 q 373 101 361 101 q 394 100 385 100 m 974 0 l 935 53 l 1279 569 l 1346 643 l 1229 643 q 1135 607 1164 643 q 1106 488 1106 571 l 994 488 q 974 603 976 538 q 971 736 972 668 l 1561 736 l 1603 679 l 1285 182 l 1201 94 l 1293 94 q 1403 117 1364 94 q 1461 178 1442 139 q 1494 272 1481 218 l 1599 272 l 1599 224 q 1593 109 1599 169 q 1563 0 1588 49 l 974 0 m 1238 857 l 1032 1083 q 1060 1126 1039 1107 q 1107 1156 1081 1146 l 1290 1015 l 1472 1156 q 1519 1126 1499 1146 q 1549 1083 1540 1107 l 1343 857 l 1238 857 z "},"E":{"ha":854,"x_min":36,"x_max":832,"o":"m 769 -22 q 749 -15 761 -19 q 711 0 736 -11 l 68 0 q 45 41 54 18 q 36 88 36 64 q 105 104 82 88 q 128 160 128 121 l 128 811 q 106 866 128 850 q 38 882 83 882 q 47 928 38 906 q 69 969 56 951 l 608 969 q 664 987 633 981 q 721 993 694 993 q 749 928 733 971 q 778 844 765 886 q 790 779 790 803 q 755 757 779 768 q 706 738 731 746 q 664 725 681 729 q 610 811 649 771 q 517 851 572 851 l 360 851 l 360 558 l 460 558 q 524 581 499 558 q 550 660 550 604 q 663 631 613 660 l 663 372 q 551 343 615 343 q 526 424 551 399 q 461 449 500 449 l 360 449 l 360 122 l 528 122 q 631 173 589 122 q 683 293 674 224 l 832 293 q 826 228 832 272 q 810 134 819 185 q 790 40 801 83 q 769 -22 779 -3 z "},"É":{"ha":854,"x_min":36,"x_max":832,"o":"m 769 -22 q 749 -15 761 -19 q 711 0 736 -11 l 68 0 q 45 41 54 18 q 36 88 36 64 q 105 104 82 88 q 128 160 128 121 l 128 811 q 106 866 128 850 q 38 882 83 882 q 47 928 38 906 q 69 969 56 951 l 608 969 q 664 987 633 981 q 721 993 694 993 q 749 928 733 971 q 778 844 765 886 q 790 779 790 803 q 755 757 779 768 q 706 738 731 746 q 664 725 681 729 q 610 811 649 771 q 517 851 572 851 l 360 851 l 360 558 l 460 558 q 524 581 499 558 q 550 660 550 604 q 663 631 613 660 l 663 372 q 551 343 615 343 q 526 424 551 399 q 461 449 500 449 l 360 449 l 360 122 l 528 122 q 631 173 589 122 q 683 293 674 224 l 832 293 q 826 228 832 272 q 810 134 819 185 q 790 40 801 83 q 769 -22 779 -3 m 383 1024 q 335 1039 357 1024 q 310 1088 314 1054 q 404 1160 354 1117 q 500 1256 454 1203 q 576 1367 546 1310 q 641 1349 614 1367 q 683 1305 668 1331 q 697 1256 697 1279 q 663 1178 697 1218 q 576 1102 628 1138 q 472 1045 525 1067 q 383 1024 419 1024 z "},"Ĕ":{"ha":854,"x_min":36,"x_max":832,"o":"m 769 -22 q 749 -15 761 -19 q 711 0 736 -11 l 68 0 q 45 41 54 18 q 36 88 36 64 q 105 104 82 88 q 128 160 128 121 l 128 811 q 106 866 128 850 q 38 882 83 882 q 47 928 38 906 q 69 969 56 951 l 608 969 q 664 987 633 981 q 721 993 694 993 q 749 928 733 971 q 778 844 765 886 q 790 779 790 803 q 755 757 779 768 q 706 738 731 746 q 664 725 681 729 q 610 811 649 771 q 517 851 572 851 l 360 851 l 360 558 l 460 558 q 524 581 499 558 q 550 660 550 604 q 663 631 613 660 l 663 372 q 551 343 615 343 q 526 424 551 399 q 461 449 500 449 l 360 449 l 360 122 l 528 122 q 631 173 589 122 q 683 293 674 224 l 832 293 q 826 228 832 272 q 810 134 819 185 q 790 40 801 83 q 769 -22 779 -3 m 428 1043 q 245 1104 313 1043 q 178 1282 178 1165 q 199 1303 182 1296 q 236 1310 217 1310 q 274 1304 254 1310 q 300 1288 293 1299 q 334 1210 300 1240 q 428 1181 368 1181 q 522 1210 488 1181 q 556 1288 556 1240 q 583 1304 563 1299 q 619 1310 603 1310 q 658 1303 640 1310 q 678 1282 675 1296 q 610 1104 678 1165 q 428 1043 543 1043 z "},"Ě":{"ha":854,"x_min":36,"x_max":832,"o":"m 769 -22 q 749 -15 761 -19 q 711 0 736 -11 l 68 0 q 45 41 54 18 q 36 88 36 64 q 105 104 82 88 q 128 160 128 121 l 128 811 q 106 866 128 850 q 38 882 83 882 q 47 928 38 906 q 69 969 56 951 l 608 969 q 664 987 633 981 q 721 993 694 993 q 749 928 733 971 q 778 844 765 886 q 790 779 790 803 q 755 757 779 768 q 706 738 731 746 q 664 725 681 729 q 610 811 649 771 q 517 851 572 851 l 360 851 l 360 558 l 460 558 q 524 581 499 558 q 550 660 550 604 q 663 631 613 660 l 663 372 q 551 343 615 343 q 526 424 551 399 q 461 449 500 449 l 360 449 l 360 122 l 528 122 q 631 173 589 122 q 683 293 674 224 l 832 293 q 826 228 832 272 q 810 134 819 185 q 790 40 801 83 q 769 -22 779 -3 m 375 1043 l 169 1269 q 197 1313 176 1293 q 244 1342 218 1332 l 428 1201 l 610 1342 q 657 1313 636 1332 q 686 1269 678 1293 l 481 1043 l 375 1043 z "},"Ȩ":{"ha":854,"x_min":36,"x_max":832,"o":"m 769 -22 q 749 -15 761 -19 q 711 0 736 -11 l 68 0 q 45 41 54 18 q 36 88 36 64 q 105 104 82 88 q 128 160 128 121 l 128 811 q 106 866 128 850 q 38 882 83 882 q 47 928 38 906 q 69 969 56 951 l 608 969 q 664 987 633 981 q 721 993 694 993 q 749 928 733 971 q 778 844 765 886 q 790 779 790 803 q 755 757 779 768 q 706 738 731 746 q 664 725 681 729 q 610 811 649 771 q 517 851 572 851 l 360 851 l 360 558 l 460 558 q 524 581 499 558 q 550 660 550 604 q 663 631 613 660 l 663 372 q 551 343 615 343 q 526 424 551 399 q 461 449 500 449 l 360 449 l 360 122 l 528 122 q 631 173 589 122 q 683 293 674 224 l 832 293 q 826 228 832 272 q 810 134 819 185 q 790 40 801 83 q 769 -22 779 -3 m 442 -417 q 321 -398 371 -417 q 249 -358 271 -379 q 259 -317 249 -337 q 282 -286 269 -297 q 418 -333 349 -333 q 476 -308 458 -333 q 494 -265 494 -283 q 479 -224 494 -247 q 428 -201 464 -201 q 406 -203 418 -201 q 375 -210 394 -204 l 324 -181 l 367 17 l 482 17 l 449 -128 q 525 -117 482 -117 q 604 -136 572 -117 q 652 -185 636 -156 q 668 -246 668 -215 q 642 -326 668 -286 q 567 -391 617 -365 q 442 -417 517 -417 z "},"Ḝ":{"ha":854,"x_min":36,"x_max":832,"o":"m 769 -22 q 749 -15 761 -19 q 711 0 736 -11 l 68 0 q 45 41 54 18 q 36 88 36 64 q 105 104 82 88 q 128 160 128 121 l 128 811 q 106 866 128 850 q 38 882 83 882 q 47 928 38 906 q 69 969 56 951 l 608 969 q 664 987 633 981 q 721 993 694 993 q 749 928 733 971 q 778 844 765 886 q 790 779 790 803 q 755 757 779 768 q 706 738 731 746 q 664 725 681 729 q 610 811 649 771 q 517 851 572 851 l 360 851 l 360 558 l 460 558 q 524 581 499 558 q 550 660 550 604 q 663 631 613 660 l 663 372 q 551 343 615 343 q 526 424 551 399 q 461 449 500 449 l 360 449 l 360 122 l 528 122 q 631 173 589 122 q 683 293 674 224 l 832 293 q 826 228 832 272 q 810 134 819 185 q 790 40 801 83 q 769 -22 779 -3 m 442 -417 q 321 -398 371 -417 q 249 -358 271 -379 q 259 -317 249 -337 q 282 -286 269 -297 q 418 -333 349 -333 q 476 -308 458 -333 q 494 -265 494 -283 q 479 -224 494 -247 q 428 -201 464 -201 q 406 -203 418 -201 q 375 -210 394 -204 l 324 -181 l 367 17 l 482 17 l 449 -128 q 525 -117 482 -117 q 604 -136 572 -117 q 652 -185 636 -156 q 668 -246 668 -215 q 642 -326 668 -286 q 567 -391 617 -365 q 442 -417 517 -417 m 428 1043 q 245 1104 313 1043 q 178 1282 178 1165 q 199 1303 182 1296 q 236 1310 217 1310 q 274 1304 254 1310 q 300 1288 293 1299 q 334 1210 300 1240 q 428 1181 368 1181 q 522 1210 488 1181 q 556 1288 556 1240 q 583 1304 563 1299 q 619 1310 603 1310 q 658 1303 640 1310 q 678 1282 675 1296 q 610 1104 678 1165 q 428 1043 543 1043 z "},"Ê":{"ha":854,"x_min":36,"x_max":832,"o":"m 769 -22 q 749 -15 761 -19 q 711 0 736 -11 l 68 0 q 45 41 54 18 q 36 88 36 64 q 105 104 82 88 q 128 160 128 121 l 128 811 q 106 866 128 850 q 38 882 83 882 q 47 928 38 906 q 69 969 56 951 l 608 969 q 664 987 633 981 q 721 993 694 993 q 749 928 733 971 q 778 844 765 886 q 790 779 790 803 q 755 757 779 768 q 706 738 731 746 q 664 725 681 729 q 610 811 649 771 q 517 851 572 851 l 360 851 l 360 558 l 460 558 q 524 581 499 558 q 550 660 550 604 q 663 631 613 660 l 663 372 q 551 343 615 343 q 526 424 551 399 q 461 449 500 449 l 360 449 l 360 122 l 528 122 q 631 173 589 122 q 683 293 674 224 l 832 293 q 826 228 832 272 q 810 134 819 185 q 790 40 801 83 q 769 -22 779 -3 m 243 1044 q 196 1074 217 1054 q 168 1115 175 1093 l 374 1343 l 479 1343 l 686 1115 q 657 1074 678 1093 q 610 1044 636 1054 l 426 1182 l 243 1044 z "},"Ế":{"ha":854,"x_min":36,"x_max":832,"o":"m 769 -22 q 749 -15 761 -19 q 711 0 736 -11 l 68 0 q 45 41 54 18 q 36 88 36 64 q 105 104 82 88 q 128 160 128 121 l 128 811 q 106 866 128 850 q 38 882 83 882 q 47 928 38 906 q 69 969 56 951 l 608 969 q 664 987 633 981 q 721 993 694 993 q 749 928 733 971 q 778 844 765 886 q 790 779 790 803 q 755 757 779 768 q 706 738 731 746 q 664 725 681 729 q 610 811 649 771 q 517 851 572 851 l 360 851 l 360 558 l 460 558 q 524 581 499 558 q 550 660 550 604 q 663 631 613 660 l 663 372 q 551 343 615 343 q 526 424 551 399 q 461 449 500 449 l 360 449 l 360 122 l 528 122 q 631 173 589 122 q 683 293 674 224 l 832 293 q 826 228 832 272 q 810 134 819 185 q 790 40 801 83 q 769 -22 779 -3 m 604 1243 q 569 1254 585 1243 q 550 1290 553 1265 q 651 1373 599 1322 q 736 1486 703 1424 q 801 1458 776 1486 q 826 1406 826 1431 q 802 1349 826 1378 q 742 1297 778 1321 q 668 1258 706 1272 q 604 1243 631 1243 m 256 1040 q 185 1107 201 1058 l 378 1293 l 478 1293 l 672 1107 q 645 1067 665 1085 q 600 1040 625 1049 l 428 1142 l 256 1040 z "},"Ḙ":{"ha":854,"x_min":36,"x_max":832,"o":"m 769 -22 q 749 -15 761 -19 q 711 0 736 -11 l 68 0 q 45 41 54 18 q 36 88 36 64 q 105 104 82 88 q 128 160 128 121 l 128 811 q 106 866 128 850 q 38 882 83 882 q 47 928 38 906 q 69 969 56 951 l 608 969 q 664 987 633 981 q 721 993 694 993 q 749 928 733 971 q 778 844 765 886 q 790 779 790 803 q 755 757 779 768 q 706 738 731 746 q 664 725 681 729 q 610 811 649 771 q 517 851 572 851 l 360 851 l 360 558 l 460 558 q 524 581 499 558 q 550 660 550 604 q 663 631 613 660 l 663 372 q 551 343 615 343 q 526 424 551 399 q 461 449 500 449 l 360 449 l 360 122 l 528 122 q 631 173 589 122 q 683 293 674 224 l 832 293 q 826 228 832 272 q 810 134 819 185 q 790 40 801 83 q 769 -22 779 -3 m 243 -368 q 196 -339 217 -358 q 168 -297 175 -319 l 374 -69 l 479 -69 l 686 -297 q 657 -339 678 -319 q 610 -368 636 -358 l 426 -231 l 243 -368 z "},"Ệ":{"ha":854,"x_min":36,"x_max":832,"o":"m 769 -22 q 749 -15 761 -19 q 711 0 736 -11 l 68 0 q 45 41 54 18 q 36 88 36 64 q 105 104 82 88 q 128 160 128 121 l 128 811 q 106 866 128 850 q 38 882 83 882 q 47 928 38 906 q 69 969 56 951 l 608 969 q 664 987 633 981 q 721 993 694 993 q 749 928 733 971 q 778 844 765 886 q 790 779 790 803 q 755 757 779 768 q 706 738 731 746 q 664 725 681 729 q 610 811 649 771 q 517 851 572 851 l 360 851 l 360 558 l 460 558 q 524 581 499 558 q 550 660 550 604 q 663 631 613 660 l 663 372 q 551 343 615 343 q 526 424 551 399 q 461 449 500 449 l 360 449 l 360 122 l 528 122 q 631 173 589 122 q 683 293 674 224 l 832 293 q 826 228 832 272 q 810 134 819 185 q 790 40 801 83 q 769 -22 779 -3 m 425 -362 q 330 -327 365 -362 q 294 -232 294 -292 q 331 -137 294 -174 q 428 -101 368 -101 q 524 -137 489 -101 q 560 -232 560 -174 q 523 -327 560 -292 q 425 -362 486 -362 m 243 1044 q 196 1074 217 1054 q 168 1115 175 1093 l 374 1343 l 479 1343 l 686 1115 q 657 1074 678 1093 q 610 1044 636 1054 l 426 1182 l 243 1044 z "},"Ề":{"ha":854,"x_min":36,"x_max":835,"o":"m 769 -22 q 749 -15 761 -19 q 711 0 736 -11 l 68 0 q 45 41 54 18 q 36 88 36 64 q 105 104 82 88 q 128 160 128 121 l 128 811 q 106 866 128 850 q 38 882 83 882 q 47 928 38 906 q 69 969 56 951 l 608 969 q 664 987 633 981 q 721 993 694 993 q 749 928 733 971 q 778 844 765 886 q 790 779 790 803 q 755 757 779 768 q 706 738 731 746 q 664 725 681 729 q 610 811 649 771 q 517 851 572 851 l 360 851 l 360 558 l 460 558 q 524 581 499 558 q 550 660 550 604 q 663 631 613 660 l 663 372 q 551 343 615 343 q 526 424 551 399 q 461 449 500 449 l 360 449 l 360 122 l 528 122 q 631 173 589 122 q 683 293 674 224 l 832 293 q 826 228 832 272 q 810 134 819 185 q 790 40 801 83 q 769 -22 779 -3 m 781 1203 q 717 1217 754 1203 q 643 1256 679 1232 q 583 1309 607 1281 q 558 1365 558 1338 q 583 1418 558 1390 q 649 1446 608 1446 q 733 1333 682 1383 q 835 1250 785 1282 q 816 1214 832 1225 q 781 1203 800 1203 m 256 1043 q 185 1110 201 1061 l 378 1296 l 478 1296 l 672 1110 q 645 1069 665 1088 q 600 1043 625 1051 l 428 1144 l 256 1043 z "},"Ể":{"ha":854,"x_min":36,"x_max":832,"o":"m 769 -22 q 749 -15 761 -19 q 711 0 736 -11 l 68 0 q 45 41 54 18 q 36 88 36 64 q 105 104 82 88 q 128 160 128 121 l 128 811 q 106 866 128 850 q 38 882 83 882 q 47 928 38 906 q 69 969 56 951 l 608 969 q 664 987 633 981 q 721 993 694 993 q 749 928 733 971 q 778 844 765 886 q 790 779 790 803 q 755 757 779 768 q 706 738 731 746 q 664 725 681 729 q 610 811 649 771 q 517 851 572 851 l 360 851 l 360 558 l 460 558 q 524 581 499 558 q 550 660 550 604 q 663 631 613 660 l 663 372 q 551 343 615 343 q 526 424 551 399 q 461 449 500 449 l 360 449 l 360 122 l 528 122 q 631 173 589 122 q 683 293 674 224 l 832 293 q 826 228 832 272 q 810 134 819 185 q 790 40 801 83 q 769 -22 779 -3 m 669 1231 q 629 1233 644 1231 q 594 1240 614 1236 l 576 1301 q 593 1299 583 1300 q 613 1299 603 1299 q 667 1310 640 1299 q 693 1357 693 1322 q 673 1393 693 1376 q 617 1410 653 1410 q 578 1403 599 1410 q 535 1385 558 1396 l 510 1460 q 565 1489 524 1472 q 650 1506 607 1506 q 722 1494 683 1506 q 790 1452 761 1482 q 818 1368 818 1422 q 801 1304 818 1336 q 750 1251 783 1272 q 669 1231 717 1231 m 260 1040 q 189 1107 206 1058 l 382 1293 l 482 1293 l 676 1107 q 649 1067 669 1085 q 604 1040 629 1049 l 432 1142 l 260 1040 z "},"Ễ":{"ha":854,"x_min":36,"x_max":832,"o":"m 769 -22 q 749 -15 761 -19 q 711 0 736 -11 l 68 0 q 45 41 54 18 q 36 88 36 64 q 105 104 82 88 q 128 160 128 121 l 128 811 q 106 866 128 850 q 38 882 83 882 q 47 928 38 906 q 69 969 56 951 l 608 969 q 664 987 633 981 q 721 993 694 993 q 749 928 733 971 q 778 844 765 886 q 790 779 790 803 q 755 757 779 768 q 706 738 731 746 q 664 725 681 729 q 610 811 649 771 q 517 851 572 851 l 360 851 l 360 558 l 460 558 q 524 581 499 558 q 550 660 550 604 q 663 631 613 660 l 663 372 q 551 343 615 343 q 526 424 551 399 q 461 449 500 449 l 360 449 l 360 122 l 528 122 q 631 173 589 122 q 683 293 674 224 l 832 293 q 826 228 832 272 q 810 134 819 185 q 790 40 801 83 q 769 -22 779 -3 m 499 1321 q 437 1338 460 1321 q 395 1371 414 1354 q 350 1389 376 1388 q 267 1342 313 1392 q 243 1343 258 1335 q 217 1368 228 1351 q 211 1400 207 1385 q 239 1447 218 1424 q 291 1486 260 1469 q 357 1503 322 1503 q 427 1487 403 1504 q 468 1452 451 1469 q 506 1435 485 1435 q 545 1446 525 1435 q 589 1483 565 1457 q 613 1482 599 1490 q 639 1457 628 1474 q 644 1424 650 1440 q 596 1355 635 1389 q 499 1321 557 1321 m 254 1040 q 183 1107 200 1058 l 376 1293 l 476 1293 l 671 1107 q 644 1067 664 1085 q 599 1040 624 1049 l 426 1142 l 254 1040 z "},"Ȅ":{"ha":854,"x_min":31,"x_max":832,"o":"m 769 -22 q 749 -15 761 -19 q 711 0 736 -11 l 68 0 q 45 41 54 18 q 36 88 36 64 q 105 104 82 88 q 128 160 128 121 l 128 811 q 106 866 128 850 q 38 882 83 882 q 47 928 38 906 q 69 969 56 951 l 608 969 q 664 987 633 981 q 721 993 694 993 q 749 928 733 971 q 778 844 765 886 q 790 779 790 803 q 755 757 779 768 q 706 738 731 746 q 664 725 681 729 q 610 811 649 771 q 517 851 572 851 l 360 851 l 360 558 l 460 558 q 524 581 499 558 q 550 660 550 604 q 663 631 613 660 l 663 372 q 551 343 615 343 q 526 424 551 399 q 461 449 500 449 l 360 449 l 360 122 l 528 122 q 631 173 589 122 q 683 293 674 224 l 832 293 q 826 228 832 272 q 810 134 819 185 q 790 40 801 83 q 769 -22 779 -3 m 594 1043 q 515 1072 560 1043 q 430 1144 471 1100 q 363 1234 389 1188 q 336 1318 336 1281 q 366 1372 336 1353 q 450 1392 396 1392 q 505 1287 482 1335 q 556 1196 528 1239 q 629 1107 585 1153 q 623 1058 625 1072 q 594 1043 621 1043 m 315 1043 q 232 1070 281 1043 q 138 1140 183 1097 q 61 1229 92 1183 q 31 1313 31 1275 q 61 1367 31 1347 q 146 1386 92 1386 q 238 1225 193 1300 q 350 1107 283 1150 q 344 1058 346 1072 q 315 1043 342 1043 z "},"Ë":{"ha":854,"x_min":36,"x_max":832,"o":"m 769 -22 q 749 -15 761 -19 q 711 0 736 -11 l 68 0 q 45 41 54 18 q 36 88 36 64 q 105 104 82 88 q 128 160 128 121 l 128 811 q 106 866 128 850 q 38 882 83 882 q 47 928 38 906 q 69 969 56 951 l 608 969 q 664 987 633 981 q 721 993 694 993 q 749 928 733 971 q 778 844 765 886 q 790 779 790 803 q 755 757 779 768 q 706 738 731 746 q 664 725 681 729 q 610 811 649 771 q 517 851 572 851 l 360 851 l 360 558 l 460 558 q 524 581 499 558 q 550 660 550 604 q 663 631 613 660 l 663 372 q 551 343 615 343 q 526 424 551 399 q 461 449 500 449 l 360 449 l 360 122 l 528 122 q 631 173 589 122 q 683 293 674 224 l 832 293 q 826 228 832 272 q 810 134 819 185 q 790 40 801 83 q 769 -22 779 -3 m 597 1043 q 515 1083 544 1043 q 486 1175 486 1122 q 515 1266 486 1228 q 597 1304 544 1304 q 681 1266 651 1304 q 710 1175 710 1228 q 681 1083 710 1122 q 597 1043 651 1043 m 258 1043 q 175 1083 204 1043 q 146 1175 146 1122 q 175 1266 146 1228 q 258 1304 204 1304 q 340 1266 311 1304 q 369 1175 369 1228 q 340 1083 369 1122 q 258 1043 311 1043 z "},"Ė":{"ha":854,"x_min":36,"x_max":832,"o":"m 769 -22 q 749 -15 761 -19 q 711 0 736 -11 l 68 0 q 45 41 54 18 q 36 88 36 64 q 105 104 82 88 q 128 160 128 121 l 128 811 q 106 866 128 850 q 38 882 83 882 q 47 928 38 906 q 69 969 56 951 l 608 969 q 664 987 633 981 q 721 993 694 993 q 749 928 733 971 q 778 844 765 886 q 790 779 790 803 q 755 757 779 768 q 706 738 731 746 q 664 725 681 729 q 610 811 649 771 q 517 851 572 851 l 360 851 l 360 558 l 460 558 q 524 581 499 558 q 550 660 550 604 q 663 631 613 660 l 663 372 q 551 343 615 343 q 526 424 551 399 q 461 449 500 449 l 360 449 l 360 122 l 528 122 q 631 173 589 122 q 683 293 674 224 l 832 293 q 826 228 832 272 q 810 134 819 185 q 790 40 801 83 q 769 -22 779 -3 m 426 1043 q 331 1078 367 1043 q 296 1174 296 1114 q 333 1268 296 1232 q 429 1304 369 1304 q 525 1268 490 1304 q 560 1174 560 1232 q 524 1078 560 1114 q 426 1043 488 1043 z "},"Ẹ":{"ha":854,"x_min":36,"x_max":832,"o":"m 769 -22 q 749 -15 761 -19 q 711 0 736 -11 l 68 0 q 45 41 54 18 q 36 88 36 64 q 105 104 82 88 q 128 160 128 121 l 128 811 q 106 866 128 850 q 38 882 83 882 q 47 928 38 906 q 69 969 56 951 l 608 969 q 664 987 633 981 q 721 993 694 993 q 749 928 733 971 q 778 844 765 886 q 790 779 790 803 q 755 757 779 768 q 706 738 731 746 q 664 725 681 729 q 610 811 649 771 q 517 851 572 851 l 360 851 l 360 558 l 460 558 q 524 581 499 558 q 550 660 550 604 q 663 631 613 660 l 663 372 q 551 343 615 343 q 526 424 551 399 q 461 449 500 449 l 360 449 l 360 122 l 528 122 q 631 173 589 122 q 683 293 674 224 l 832 293 q 826 228 832 272 q 810 134 819 185 q 790 40 801 83 q 769 -22 779 -3 m 425 -362 q 330 -327 365 -362 q 294 -232 294 -292 q 331 -137 294 -174 q 428 -101 368 -101 q 524 -137 489 -101 q 560 -232 560 -174 q 523 -327 560 -292 q 425 -362 486 -362 z "},"È":{"ha":854,"x_min":36,"x_max":832,"o":"m 769 -22 q 749 -15 761 -19 q 711 0 736 -11 l 68 0 q 45 41 54 18 q 36 88 36 64 q 105 104 82 88 q 128 160 128 121 l 128 811 q 106 866 128 850 q 38 882 83 882 q 47 928 38 906 q 69 969 56 951 l 608 969 q 664 987 633 981 q 721 993 694 993 q 749 928 733 971 q 778 844 765 886 q 790 779 790 803 q 755 757 779 768 q 706 738 731 746 q 664 725 681 729 q 610 811 649 771 q 517 851 572 851 l 360 851 l 360 558 l 460 558 q 524 581 499 558 q 550 660 550 604 q 663 631 613 660 l 663 372 q 551 343 615 343 q 526 424 551 399 q 461 449 500 449 l 360 449 l 360 122 l 528 122 q 631 173 589 122 q 683 293 674 224 l 832 293 q 826 228 832 272 q 810 134 819 185 q 790 40 801 83 q 769 -22 779 -3 m 547 1043 q 479 1058 519 1043 q 396 1097 439 1072 q 316 1151 353 1121 q 256 1213 279 1181 q 233 1275 233 1246 q 248 1324 233 1299 q 290 1368 263 1350 q 354 1386 318 1386 q 430 1276 385 1329 q 526 1179 475 1222 q 621 1107 576 1136 q 596 1058 617 1074 q 547 1043 575 1043 z "},"Ẻ":{"ha":854,"x_min":36,"x_max":832,"o":"m 769 -22 q 749 -15 761 -19 q 711 0 736 -11 l 68 0 q 45 41 54 18 q 36 88 36 64 q 105 104 82 88 q 128 160 128 121 l 128 811 q 106 866 128 850 q 38 882 83 882 q 47 928 38 906 q 69 969 56 951 l 608 969 q 664 987 633 981 q 721 993 694 993 q 749 928 733 971 q 778 844 765 886 q 790 779 790 803 q 755 757 779 768 q 706 738 731 746 q 664 725 681 729 q 610 811 649 771 q 517 851 572 851 l 360 851 l 360 558 l 460 558 q 524 581 499 558 q 550 660 550 604 q 663 631 613 660 l 663 372 q 551 343 615 343 q 526 424 551 399 q 461 449 500 449 l 360 449 l 360 122 l 528 122 q 631 173 589 122 q 683 293 674 224 l 832 293 q 826 228 832 272 q 810 134 819 185 q 790 40 801 83 q 769 -22 779 -3 m 435 1019 q 381 1024 401 1019 q 333 1033 360 1028 l 308 1117 q 331 1113 319 1115 q 357 1111 343 1111 q 432 1128 396 1111 q 468 1192 468 1144 q 440 1242 468 1219 q 364 1264 413 1264 q 311 1254 338 1264 q 253 1229 285 1244 l 218 1331 q 260 1358 231 1343 q 330 1383 290 1372 q 410 1393 369 1393 q 483 1385 443 1393 q 558 1356 522 1376 q 615 1298 593 1335 q 638 1206 638 1261 q 614 1119 638 1163 q 545 1048 590 1076 q 435 1019 500 1019 z "},"Ȇ":{"ha":854,"x_min":36,"x_max":832,"o":"m 769 -22 q 749 -15 761 -19 q 711 0 736 -11 l 68 0 q 45 41 54 18 q 36 88 36 64 q 105 104 82 88 q 128 160 128 121 l 128 811 q 106 866 128 850 q 38 882 83 882 q 47 928 38 906 q 69 969 56 951 l 608 969 q 664 987 633 981 q 721 993 694 993 q 749 928 733 971 q 778 844 765 886 q 790 779 790 803 q 755 757 779 768 q 706 738 731 746 q 664 725 681 729 q 610 811 649 771 q 517 851 572 851 l 360 851 l 360 558 l 460 558 q 524 581 499 558 q 550 660 550 604 q 663 631 613 660 l 663 372 q 551 343 615 343 q 526 424 551 399 q 461 449 500 449 l 360 449 l 360 122 l 528 122 q 631 173 589 122 q 683 293 674 224 l 832 293 q 826 228 832 272 q 810 134 819 185 q 790 40 801 83 q 769 -22 779 -3 m 236 1024 q 199 1031 217 1024 q 178 1051 182 1038 q 245 1238 178 1168 q 428 1308 313 1308 q 610 1238 543 1308 q 678 1051 678 1168 q 658 1031 675 1038 q 619 1024 640 1024 q 583 1029 603 1024 q 556 1046 563 1035 q 522 1132 556 1093 q 428 1171 488 1171 q 334 1132 368 1171 q 300 1046 300 1093 q 274 1029 293 1035 q 236 1024 254 1024 z "},"Ē":{"ha":854,"x_min":36,"x_max":832,"o":"m 769 -22 q 749 -15 761 -19 q 711 0 736 -11 l 68 0 q 45 41 54 18 q 36 88 36 64 q 105 104 82 88 q 128 160 128 121 l 128 811 q 106 866 128 850 q 38 882 83 882 q 47 928 38 906 q 69 969 56 951 l 608 969 q 664 987 633 981 q 721 993 694 993 q 749 928 733 971 q 778 844 765 886 q 790 779 790 803 q 755 757 779 768 q 706 738 731 746 q 664 725 681 729 q 610 811 649 771 q 517 851 572 851 l 360 851 l 360 558 l 460 558 q 524 581 499 558 q 550 660 550 604 q 663 631 613 660 l 663 372 q 551 343 615 343 q 526 424 551 399 q 461 449 500 449 l 360 449 l 360 122 l 528 122 q 631 173 589 122 q 683 293 674 224 l 832 293 q 826 228 832 272 q 810 134 819 185 q 790 40 801 83 q 769 -22 779 -3 m 210 1067 q 203 1094 206 1078 q 201 1128 201 1111 q 203 1165 201 1147 q 211 1192 206 1182 l 646 1192 q 652 1163 650 1181 q 654 1128 654 1146 q 647 1067 654 1088 l 210 1067 z "},"Ḗ":{"ha":854,"x_min":36,"x_max":832,"o":"m 769 -22 q 749 -15 761 -19 q 711 0 736 -11 l 68 0 q 45 41 54 18 q 36 88 36 64 q 105 104 82 88 q 128 160 128 121 l 128 811 q 106 866 128 850 q 38 882 83 882 q 47 928 38 906 q 69 969 56 951 l 608 969 q 664 987 633 981 q 721 993 694 993 q 749 928 733 971 q 778 844 765 886 q 790 779 790 803 q 755 757 779 768 q 706 738 731 746 q 664 725 681 729 q 610 811 649 771 q 517 851 572 851 l 360 851 l 360 558 l 460 558 q 524 581 499 558 q 550 660 550 604 q 663 631 613 660 l 663 372 q 551 343 615 343 q 526 424 551 399 q 461 449 500 449 l 360 449 l 360 122 l 528 122 q 631 173 589 122 q 683 293 674 224 l 832 293 q 826 228 832 272 q 810 134 819 185 q 790 40 801 83 q 769 -22 779 -3 m 210 1067 q 203 1094 206 1078 q 201 1128 201 1111 q 203 1165 201 1147 q 211 1192 206 1182 l 646 1192 q 652 1163 650 1181 q 654 1128 654 1146 q 647 1067 654 1088 l 210 1067 m 383 1218 q 335 1233 357 1218 q 310 1282 314 1249 q 404 1354 354 1311 q 500 1451 454 1397 q 576 1561 546 1504 q 641 1543 614 1561 q 683 1499 668 1525 q 697 1450 697 1474 q 663 1372 697 1413 q 576 1297 628 1332 q 472 1240 525 1261 q 383 1218 419 1218 z "},"Ḕ":{"ha":854,"x_min":36,"x_max":832,"o":"m 769 -22 q 749 -15 761 -19 q 711 0 736 -11 l 68 0 q 45 41 54 18 q 36 88 36 64 q 105 104 82 88 q 128 160 128 121 l 128 811 q 106 866 128 850 q 38 882 83 882 q 47 928 38 906 q 69 969 56 951 l 608 969 q 664 987 633 981 q 721 993 694 993 q 749 928 733 971 q 778 844 765 886 q 790 779 790 803 q 755 757 779 768 q 706 738 731 746 q 664 725 681 729 q 610 811 649 771 q 517 851 572 851 l 360 851 l 360 558 l 460 558 q 524 581 499 558 q 550 660 550 604 q 663 631 613 660 l 663 372 q 551 343 615 343 q 526 424 551 399 q 461 449 500 449 l 360 449 l 360 122 l 528 122 q 631 173 589 122 q 683 293 674 224 l 832 293 q 826 228 832 272 q 810 134 819 185 q 790 40 801 83 q 769 -22 779 -3 m 210 1067 q 203 1094 206 1078 q 201 1128 201 1111 q 203 1165 201 1147 q 211 1192 206 1182 l 646 1192 q 652 1163 650 1181 q 654 1128 654 1146 q 647 1067 654 1088 l 210 1067 m 547 1238 q 479 1252 519 1238 q 396 1291 439 1267 q 316 1345 353 1315 q 256 1408 279 1375 q 233 1469 233 1440 q 248 1519 233 1493 q 290 1563 263 1544 q 354 1581 318 1581 q 430 1470 385 1524 q 526 1374 475 1417 q 621 1301 576 1331 q 596 1253 617 1268 q 547 1238 575 1238 z "},"Ę":{"ha":854,"x_min":36,"x_max":813,"o":"m 586 -333 q 501 -318 543 -333 q 433 -268 460 -303 q 406 -176 406 -233 q 442 -69 406 -114 q 521 0 478 -24 l 68 0 q 45 41 54 18 q 36 88 36 64 q 101 104 82 88 q 121 160 121 121 l 121 811 q 101 866 121 850 q 36 882 82 882 q 45 928 36 906 q 68 969 54 951 l 601 969 q 657 987 626 981 q 714 993 688 993 q 739 928 726 971 q 760 844 751 886 q 769 779 769 803 q 733 757 758 768 q 681 738 707 746 q 638 725 654 729 q 591 811 622 771 q 504 851 560 851 l 353 851 l 353 558 l 453 558 q 517 581 492 558 q 543 660 543 604 q 656 631 606 660 l 656 375 q 544 346 608 346 q 519 426 544 401 q 454 451 493 451 l 353 451 l 353 122 l 521 122 q 588 149 561 122 q 633 214 615 175 q 664 292 651 253 l 813 292 q 808 227 813 271 q 797 133 804 183 q 781 40 790 82 q 763 -22 772 -3 q 742 -15 754 -19 q 704 0 729 -11 l 685 0 q 594 -53 625 -17 q 564 -135 564 -90 q 592 -177 564 -165 q 651 -189 619 -189 q 707 -181 681 -189 q 746 -164 733 -174 q 755 -189 753 -174 q 757 -217 757 -204 q 752 -255 757 -236 q 732 -289 747 -274 q 674 -319 714 -306 q 586 -333 635 -333 z "},"Ẽ":{"ha":854,"x_min":36,"x_max":832,"o":"m 769 -22 q 749 -15 761 -19 q 711 0 736 -11 l 68 0 q 45 41 54 18 q 36 88 36 64 q 105 104 82 88 q 128 160 128 121 l 128 811 q 106 866 128 850 q 38 882 83 882 q 47 928 38 906 q 69 969 56 951 l 608 969 q 664 987 633 981 q 721 993 694 993 q 749 928 733 971 q 778 844 765 886 q 790 779 790 803 q 755 757 779 768 q 706 738 731 746 q 664 725 681 729 q 610 811 649 771 q 517 851 572 851 l 360 851 l 360 558 l 460 558 q 524 581 499 558 q 550 660 550 604 q 663 631 613 660 l 663 372 q 551 343 615 343 q 526 424 551 399 q 461 449 500 449 l 360 449 l 360 122 l 528 122 q 631 173 589 122 q 683 293 674 224 l 832 293 q 826 228 832 272 q 810 134 819 185 q 790 40 801 83 q 769 -22 779 -3 m 517 1038 q 454 1051 479 1038 q 411 1082 429 1064 q 375 1113 393 1100 q 332 1126 357 1126 q 287 1117 310 1126 q 233 1072 264 1107 q 203 1075 222 1064 q 171 1107 185 1086 q 163 1149 157 1128 q 196 1208 171 1179 q 259 1255 221 1236 q 340 1274 297 1274 q 410 1260 383 1274 q 456 1229 438 1247 q 490 1198 474 1211 q 525 1185 506 1185 q 570 1194 549 1185 q 622 1238 592 1203 q 653 1235 633 1247 q 685 1203 672 1224 q 693 1161 699 1182 q 636 1077 682 1117 q 517 1038 590 1038 z "},"Ḛ":{"ha":854,"x_min":36,"x_max":832,"o":"m 769 -22 q 749 -15 761 -19 q 711 0 736 -11 l 68 0 q 45 41 54 18 q 36 88 36 64 q 105 104 82 88 q 128 160 128 121 l 128 811 q 106 866 128 850 q 38 882 83 882 q 47 928 38 906 q 69 969 56 951 l 608 969 q 664 987 633 981 q 721 993 694 993 q 749 928 733 971 q 778 844 765 886 q 790 779 790 803 q 755 757 779 768 q 706 738 731 746 q 664 725 681 729 q 610 811 649 771 q 517 851 572 851 l 360 851 l 360 558 l 460 558 q 524 581 499 558 q 550 660 550 604 q 663 631 613 660 l 663 372 q 551 343 615 343 q 526 424 551 399 q 461 449 500 449 l 360 449 l 360 122 l 528 122 q 631 173 589 122 q 683 293 674 224 l 832 293 q 826 228 832 272 q 810 134 819 185 q 790 40 801 83 q 769 -22 779 -3 m 525 -322 q 459 -308 483 -322 q 411 -275 435 -293 q 373 -249 392 -260 q 332 -237 354 -237 q 283 -251 310 -237 q 226 -300 257 -265 q 215 -304 222 -304 q 176 -282 197 -304 q 154 -235 154 -260 q 156 -224 154 -228 q 190 -165 165 -194 q 251 -115 215 -135 q 331 -94 288 -94 q 410 -110 382 -94 q 461 -147 438 -126 q 492 -170 476 -161 q 524 -179 508 -179 q 573 -165 547 -179 q 629 -117 599 -151 q 640 -112 633 -112 q 680 -135 658 -112 q 701 -183 701 -157 q 700 -193 701 -190 q 664 -251 686 -221 q 608 -301 642 -281 q 525 -322 575 -322 z "},"F":{"ha":783,"x_min":36,"x_max":756,"o":"m 68 0 q 36 89 36 35 q 112 104 93 89 q 131 158 131 119 l 131 811 q 108 865 131 850 q 42 881 86 881 q 74 968 42 932 l 604 968 q 710 992 658 992 q 733 928 722 969 q 749 847 743 888 q 756 782 756 806 q 701 750 738 765 q 638 729 665 735 q 587 813 624 775 q 481 850 550 850 l 358 850 l 358 528 l 472 528 q 528 554 513 528 q 544 636 544 581 q 608 628 575 636 q 664 606 642 621 l 664 349 q 609 326 642 335 q 544 318 576 318 q 528 399 544 375 q 474 424 513 424 l 358 424 l 358 176 q 375 116 358 138 q 450 94 392 94 l 561 94 q 556 43 561 69 q 536 0 551 17 l 68 0 z "},"Ḟ":{"ha":783,"x_min":36,"x_max":756,"o":"m 68 0 q 36 89 36 35 q 112 104 93 89 q 131 158 131 119 l 131 811 q 108 865 131 850 q 42 881 86 881 q 74 968 42 932 l 604 968 q 710 992 658 992 q 733 928 722 969 q 749 847 743 888 q 756 782 756 806 q 701 750 738 765 q 638 729 665 735 q 587 813 624 775 q 481 850 550 850 l 358 850 l 358 528 l 472 528 q 528 554 513 528 q 544 636 544 581 q 608 628 575 636 q 664 606 642 621 l 664 349 q 609 326 642 335 q 544 318 576 318 q 528 399 544 375 q 474 424 513 424 l 358 424 l 358 176 q 375 116 358 138 q 450 94 392 94 l 561 94 q 556 43 561 69 q 536 0 551 17 l 68 0 m 390 1043 q 295 1078 331 1043 q 260 1174 260 1114 q 297 1268 260 1232 q 393 1304 333 1304 q 489 1268 454 1304 q 524 1174 524 1232 q 488 1078 524 1114 q 390 1043 451 1043 z "},"G":{"ha":922,"x_min":35,"x_max":908,"o":"m 514 -19 q 259 43 367 -19 q 93 217 151 106 q 35 471 35 328 q 93 756 35 642 q 254 927 151 869 q 490 985 357 985 q 565 979 522 985 q 658 954 607 974 q 696 967 672 961 q 743 979 719 974 q 781 985 767 985 q 807 883 799 940 q 818 769 815 825 q 821 671 821 713 l 686 671 q 617 809 672 761 q 486 857 561 857 q 386 826 431 857 q 316 720 342 796 q 290 507 290 644 q 315 274 290 360 q 385 152 339 189 q 499 115 432 115 q 608 151 574 115 l 608 310 q 576 362 608 346 q 479 378 544 378 q 489 435 479 401 q 513 485 499 468 l 813 485 q 875 466 854 485 q 902 425 896 447 q 908 392 908 403 q 901 367 908 378 q 859 365 879 367 q 824 356 839 363 l 824 196 q 828 153 824 165 q 839 133 833 140 q 846 124 843 129 q 849 108 849 119 q 804 53 849 83 q 684 2 760 24 q 514 -19 608 -19 z "},"Ǵ":{"ha":922,"x_min":35,"x_max":908,"o":"m 514 -19 q 259 43 367 -19 q 93 217 151 106 q 35 471 35 328 q 93 756 35 642 q 254 927 151 869 q 490 985 357 985 q 565 979 522 985 q 658 954 607 974 q 696 967 672 961 q 743 979 719 974 q 781 985 767 985 q 807 883 799 940 q 818 769 815 825 q 821 671 821 713 l 686 671 q 617 809 672 761 q 486 857 561 857 q 386 826 431 857 q 316 720 342 796 q 290 507 290 644 q 315 274 290 360 q 385 152 339 189 q 499 115 432 115 q 608 151 574 115 l 608 310 q 576 362 608 346 q 479 378 544 378 q 489 435 479 401 q 513 485 499 468 l 813 485 q 875 466 854 485 q 902 425 896 447 q 908 392 908 403 q 901 367 908 378 q 859 365 879 367 q 824 356 839 363 l 824 196 q 828 153 824 165 q 839 133 833 140 q 846 124 843 129 q 849 108 849 119 q 804 53 849 83 q 684 2 760 24 q 514 -19 608 -19 m 450 1024 q 402 1039 424 1024 q 376 1088 381 1054 q 471 1160 421 1117 q 567 1256 521 1203 q 643 1367 613 1310 q 708 1349 681 1367 q 749 1305 735 1331 q 764 1256 764 1279 q 729 1178 764 1218 q 643 1102 694 1138 q 539 1045 592 1067 q 450 1024 486 1024 z "},"Ğ":{"ha":922,"x_min":35,"x_max":908,"o":"m 514 -19 q 259 43 367 -19 q 93 217 151 106 q 35 471 35 328 q 93 756 35 642 q 254 927 151 869 q 490 985 357 985 q 565 979 522 985 q 658 954 607 974 q 696 967 672 961 q 743 979 719 974 q 781 985 767 985 q 807 883 799 940 q 818 769 815 825 q 821 671 821 713 l 686 671 q 617 809 672 761 q 486 857 561 857 q 386 826 431 857 q 316 720 342 796 q 290 507 290 644 q 315 274 290 360 q 385 152 339 189 q 499 115 432 115 q 608 151 574 115 l 608 310 q 576 362 608 346 q 479 378 544 378 q 489 435 479 401 q 513 485 499 468 l 813 485 q 875 466 854 485 q 902 425 896 447 q 908 392 908 403 q 901 367 908 378 q 859 365 879 367 q 824 356 839 363 l 824 196 q 828 153 824 165 q 839 133 833 140 q 846 124 843 129 q 849 108 849 119 q 804 53 849 83 q 684 2 760 24 q 514 -19 608 -19 m 494 1043 q 312 1104 379 1043 q 244 1282 244 1165 q 266 1303 249 1296 q 303 1310 283 1310 q 340 1304 321 1310 q 367 1288 360 1299 q 401 1210 367 1240 q 494 1181 435 1181 q 588 1210 554 1181 q 622 1288 622 1240 q 649 1304 629 1299 q 686 1310 669 1310 q 724 1303 707 1310 q 744 1282 742 1296 q 677 1104 744 1165 q 494 1043 610 1043 z "},"Ǧ":{"ha":922,"x_min":35,"x_max":908,"o":"m 514 -19 q 259 43 367 -19 q 93 217 151 106 q 35 471 35 328 q 93 756 35 642 q 254 927 151 869 q 490 985 357 985 q 565 979 522 985 q 658 954 607 974 q 696 967 672 961 q 743 979 719 974 q 781 985 767 985 q 807 883 799 940 q 818 769 815 825 q 821 671 821 713 l 686 671 q 617 809 672 761 q 486 857 561 857 q 386 826 431 857 q 316 720 342 796 q 290 507 290 644 q 315 274 290 360 q 385 152 339 189 q 499 115 432 115 q 608 151 574 115 l 608 310 q 576 362 608 346 q 479 378 544 378 q 489 435 479 401 q 513 485 499 468 l 813 485 q 875 466 854 485 q 902 425 896 447 q 908 392 908 403 q 901 367 908 378 q 859 365 879 367 q 824 356 839 363 l 824 196 q 828 153 824 165 q 839 133 833 140 q 846 124 843 129 q 849 108 849 119 q 804 53 849 83 q 684 2 760 24 q 514 -19 608 -19 m 442 1043 l 236 1269 q 264 1313 243 1293 q 311 1342 285 1332 l 494 1201 l 676 1342 q 724 1313 703 1332 q 753 1269 744 1293 l 547 1043 l 442 1043 z "},"Ĝ":{"ha":922,"x_min":35,"x_max":908,"o":"m 514 -19 q 259 43 367 -19 q 93 217 151 106 q 35 471 35 328 q 93 756 35 642 q 254 927 151 869 q 490 985 357 985 q 565 979 522 985 q 658 954 607 974 q 696 967 672 961 q 743 979 719 974 q 781 985 767 985 q 807 883 799 940 q 818 769 815 825 q 821 671 821 713 l 686 671 q 617 809 672 761 q 486 857 561 857 q 386 826 431 857 q 316 720 342 796 q 290 507 290 644 q 315 274 290 360 q 385 152 339 189 q 499 115 432 115 q 608 151 574 115 l 608 310 q 576 362 608 346 q 479 378 544 378 q 489 435 479 401 q 513 485 499 468 l 813 485 q 875 466 854 485 q 902 425 896 447 q 908 392 908 403 q 901 367 908 378 q 859 365 879 367 q 824 356 839 363 l 824 196 q 828 153 824 165 q 839 133 833 140 q 846 124 843 129 q 849 108 849 119 q 804 53 849 83 q 684 2 760 24 q 514 -19 608 -19 m 310 1044 q 263 1074 283 1054 q 235 1115 242 1093 l 440 1343 l 546 1343 l 753 1115 q 724 1074 744 1093 q 676 1044 703 1054 l 493 1182 l 310 1044 z "},"Ģ":{"ha":922,"x_min":35,"x_max":908,"o":"m 514 -19 q 259 43 367 -19 q 93 217 151 106 q 35 471 35 328 q 93 756 35 642 q 254 927 151 869 q 490 985 357 985 q 565 979 522 985 q 658 954 607 974 q 696 967 672 961 q 743 979 719 974 q 781 985 767 985 q 807 883 799 940 q 818 769 815 825 q 821 671 821 713 l 686 671 q 617 809 672 761 q 486 857 561 857 q 386 826 431 857 q 316 720 342 796 q 290 507 290 644 q 315 274 290 360 q 385 152 339 189 q 499 115 432 115 q 608 151 574 115 l 608 310 q 576 362 608 346 q 479 378 544 378 q 489 435 479 401 q 513 485 499 468 l 813 485 q 875 466 854 485 q 902 425 896 447 q 908 392 908 403 q 901 367 908 378 q 859 365 879 367 q 824 356 839 363 l 824 196 q 828 153 824 165 q 839 133 833 140 q 846 124 843 129 q 849 108 849 119 q 804 53 849 83 q 684 2 760 24 q 514 -19 608 -19 m 433 -479 q 408 -460 419 -475 q 397 -426 397 -444 q 446 -387 428 -410 q 464 -331 464 -364 q 461 -315 464 -326 q 453 -317 457 -317 q 444 -318 449 -318 q 366 -285 393 -318 q 339 -212 339 -253 q 370 -131 339 -161 q 451 -101 401 -101 q 545 -138 507 -101 q 583 -257 583 -175 q 572 -331 583 -286 q 527 -416 560 -375 q 433 -479 494 -457 z "},"Ġ":{"ha":922,"x_min":35,"x_max":908,"o":"m 514 -19 q 259 43 367 -19 q 93 217 151 106 q 35 471 35 328 q 93 756 35 642 q 254 927 151 869 q 490 985 357 985 q 565 979 522 985 q 658 954 607 974 q 696 967 672 961 q 743 979 719 974 q 781 985 767 985 q 807 883 799 940 q 818 769 815 825 q 821 671 821 713 l 686 671 q 617 809 672 761 q 486 857 561 857 q 386 826 431 857 q 316 720 342 796 q 290 507 290 644 q 315 274 290 360 q 385 152 339 189 q 499 115 432 115 q 608 151 574 115 l 608 310 q 576 362 608 346 q 479 378 544 378 q 489 435 479 401 q 513 485 499 468 l 813 485 q 875 466 854 485 q 902 425 896 447 q 908 392 908 403 q 901 367 908 378 q 859 365 879 367 q 824 356 839 363 l 824 196 q 828 153 824 165 q 839 133 833 140 q 846 124 843 129 q 849 108 849 119 q 804 53 849 83 q 684 2 760 24 q 514 -19 608 -19 m 493 1043 q 398 1078 433 1043 q 363 1174 363 1114 q 399 1268 363 1232 q 496 1304 436 1304 q 592 1268 557 1304 q 626 1174 626 1232 q 590 1078 626 1114 q 493 1043 554 1043 z "},"Ḡ":{"ha":922,"x_min":35,"x_max":908,"o":"m 514 -19 q 259 43 367 -19 q 93 217 151 106 q 35 471 35 328 q 93 756 35 642 q 254 927 151 869 q 490 985 357 985 q 565 979 522 985 q 658 954 607 974 q 696 967 672 961 q 743 979 719 974 q 781 985 767 985 q 807 883 799 940 q 818 769 815 825 q 821 671 821 713 l 686 671 q 617 809 672 761 q 486 857 561 857 q 386 826 431 857 q 316 720 342 796 q 290 507 290 644 q 315 274 290 360 q 385 152 339 189 q 499 115 432 115 q 608 151 574 115 l 608 310 q 576 362 608 346 q 479 378 544 378 q 489 435 479 401 q 513 485 499 468 l 813 485 q 875 466 854 485 q 902 425 896 447 q 908 392 908 403 q 901 367 908 378 q 859 365 879 367 q 824 356 839 363 l 824 196 q 828 153 824 165 q 839 133 833 140 q 846 124 843 129 q 849 108 849 119 q 804 53 849 83 q 684 2 760 24 q 514 -19 608 -19 m 276 1067 q 270 1094 272 1078 q 268 1128 268 1111 q 270 1165 268 1147 q 278 1192 272 1182 l 713 1192 q 719 1163 717 1181 q 721 1128 721 1146 q 714 1067 721 1088 l 276 1067 z "},"H":{"ha":1010,"x_min":36,"x_max":974,"o":"m 67 0 q 36 89 36 35 q 101 104 82 89 q 119 158 119 119 l 119 811 q 101 866 119 850 q 36 882 82 882 q 67 969 36 935 l 406 969 q 428 929 419 953 q 436 882 436 906 q 372 866 390 882 q 353 811 353 850 l 353 551 l 656 551 l 656 811 q 636 866 656 850 q 572 882 617 882 q 603 969 572 935 l 943 969 q 974 882 974 935 q 909 866 929 882 q 889 811 889 850 l 889 158 q 909 104 889 119 q 974 89 929 89 q 943 0 974 35 l 603 0 q 572 89 572 35 q 636 104 617 89 q 656 158 656 119 l 656 435 l 353 435 l 353 158 q 372 104 353 119 q 436 89 390 89 q 428 40 436 64 q 406 0 419 17 l 67 0 z "},"Ħ":{"ha":1010,"x_min":36,"x_max":974,"o":"m 67 0 q 36 89 36 35 q 101 104 82 89 q 119 158 119 119 l 119 603 l 54 603 l 54 711 l 119 711 l 119 811 q 101 866 119 850 q 36 882 82 882 q 67 969 36 935 l 407 969 q 429 929 421 953 q 438 882 438 906 q 373 866 392 882 q 354 811 354 850 l 354 711 l 657 711 l 657 811 q 638 866 657 850 q 574 882 618 882 q 604 969 574 935 l 943 969 q 974 882 974 935 q 910 866 929 882 q 892 811 892 850 l 892 711 l 954 711 q 952 653 954 685 q 932 603 950 622 l 892 603 l 892 158 q 910 104 892 119 q 974 89 929 89 q 943 0 974 35 l 604 0 q 574 89 574 35 q 638 104 618 89 q 657 158 657 119 l 657 371 l 354 371 l 354 158 q 373 104 354 119 q 438 89 392 89 q 429 40 438 64 q 407 0 421 17 l 67 0 m 354 485 l 657 485 l 657 603 l 354 603 l 354 485 z "},"Ḫ":{"ha":1010,"x_min":36,"x_max":974,"o":"m 67 0 q 36 89 36 35 q 101 104 82 89 q 119 158 119 119 l 119 811 q 101 866 119 850 q 36 882 82 882 q 67 969 36 935 l 406 969 q 428 929 419 953 q 436 882 436 906 q 372 866 390 882 q 353 811 353 850 l 353 551 l 656 551 l 656 811 q 636 866 656 850 q 572 882 617 882 q 603 969 572 935 l 943 969 q 974 882 974 935 q 909 866 929 882 q 889 811 889 850 l 889 158 q 909 104 889 119 q 974 89 929 89 q 943 0 974 35 l 603 0 q 572 89 572 35 q 636 104 617 89 q 656 158 656 119 l 656 435 l 353 435 l 353 158 q 372 104 353 119 q 436 89 390 89 q 428 40 436 64 q 406 0 419 17 l 67 0 m 506 -336 q 385 -309 443 -336 q 292 -229 328 -282 q 256 -99 256 -176 q 277 -78 260 -85 q 314 -71 294 -71 q 351 -76 332 -71 q 378 -93 371 -82 q 412 -172 378 -140 q 506 -204 446 -204 q 599 -172 565 -204 q 633 -93 633 -140 q 660 -76 640 -82 q 697 -71 681 -71 q 735 -78 718 -71 q 756 -99 753 -85 q 719 -229 756 -176 q 625 -309 682 -282 q 506 -336 568 -336 z "},"Ȟ":{"ha":1010,"x_min":36,"x_max":974,"o":"m 67 0 q 36 89 36 35 q 101 104 82 89 q 119 158 119 119 l 119 811 q 101 866 119 850 q 36 882 82 882 q 67 969 36 935 l 406 969 q 428 929 419 953 q 436 882 436 906 q 372 866 390 882 q 353 811 353 850 l 353 551 l 656 551 l 656 811 q 636 866 656 850 q 572 882 617 882 q 603 969 572 935 l 943 969 q 974 882 974 935 q 909 866 929 882 q 889 811 889 850 l 889 158 q 909 104 889 119 q 974 89 929 89 q 943 0 974 35 l 603 0 q 572 89 572 35 q 636 104 617 89 q 656 158 656 119 l 656 435 l 353 435 l 353 158 q 372 104 353 119 q 436 89 390 89 q 428 40 436 64 q 406 0 419 17 l 67 0 m 453 1043 l 247 1269 q 275 1313 254 1293 q 322 1342 296 1332 l 506 1201 l 688 1342 q 735 1313 714 1332 q 764 1269 756 1293 l 558 1043 l 453 1043 z "},"Ḩ":{"ha":1010,"x_min":36,"x_max":974,"o":"m 67 0 q 36 89 36 35 q 101 104 82 89 q 119 158 119 119 l 119 811 q 101 866 119 850 q 36 882 82 882 q 67 969 36 935 l 406 969 q 428 929 419 953 q 436 882 436 906 q 372 866 390 882 q 353 811 353 850 l 353 551 l 656 551 l 656 811 q 636 866 656 850 q 572 882 617 882 q 603 969 572 935 l 943 969 q 974 882 974 935 q 909 866 929 882 q 889 811 889 850 l 889 158 q 909 104 889 119 q 974 89 929 89 q 943 0 974 35 l 603 0 q 572 89 572 35 q 636 104 617 89 q 656 158 656 119 l 656 435 l 353 435 l 353 158 q 372 104 353 119 q 436 89 390 89 q 428 40 436 64 q 406 0 419 17 l 67 0 m 267 -417 q 146 -398 196 -417 q 74 -358 96 -379 q 84 -317 74 -337 q 107 -286 94 -297 q 243 -333 174 -333 q 301 -308 283 -333 q 319 -265 319 -283 q 304 -224 319 -247 q 253 -201 289 -201 q 231 -203 243 -201 q 200 -210 219 -204 l 149 -181 l 192 17 l 307 17 l 274 -128 q 350 -117 307 -117 q 429 -136 397 -117 q 477 -185 461 -156 q 493 -246 493 -215 q 467 -326 493 -286 q 392 -391 442 -365 q 267 -417 342 -417 z "},"Ĥ":{"ha":1010,"x_min":36,"x_max":974,"o":"m 67 0 q 36 89 36 35 q 101 104 82 89 q 119 158 119 119 l 119 811 q 101 866 119 850 q 36 882 82 882 q 67 969 36 935 l 406 969 q 428 929 419 953 q 436 882 436 906 q 372 866 390 882 q 353 811 353 850 l 353 551 l 656 551 l 656 811 q 636 866 656 850 q 572 882 617 882 q 603 969 572 935 l 943 969 q 974 882 974 935 q 909 866 929 882 q 889 811 889 850 l 889 158 q 909 104 889 119 q 974 89 929 89 q 943 0 974 35 l 603 0 q 572 89 572 35 q 636 104 617 89 q 656 158 656 119 l 656 435 l 353 435 l 353 158 q 372 104 353 119 q 436 89 390 89 q 428 40 436 64 q 406 0 419 17 l 67 0 m 321 1044 q 274 1074 294 1054 q 246 1115 253 1093 l 451 1343 l 557 1343 l 764 1115 q 735 1074 756 1093 q 688 1044 714 1054 l 504 1182 l 321 1044 z "},"Ḧ":{"ha":1010,"x_min":36,"x_max":974,"o":"m 67 0 q 36 89 36 35 q 101 104 82 89 q 119 158 119 119 l 119 811 q 101 866 119 850 q 36 882 82 882 q 67 969 36 935 l 406 969 q 428 929 419 953 q 436 882 436 906 q 372 866 390 882 q 353 811 353 850 l 353 551 l 656 551 l 656 811 q 636 866 656 850 q 572 882 617 882 q 603 969 572 935 l 943 969 q 974 882 974 935 q 909 866 929 882 q 889 811 889 850 l 889 158 q 909 104 889 119 q 974 89 929 89 q 943 0 974 35 l 603 0 q 572 89 572 35 q 636 104 617 89 q 656 158 656 119 l 656 435 l 353 435 l 353 158 q 372 104 353 119 q 436 89 390 89 q 428 40 436 64 q 406 0 419 17 l 67 0 m 675 1043 q 593 1083 622 1043 q 564 1175 564 1122 q 593 1266 564 1228 q 675 1304 622 1304 q 758 1266 729 1304 q 788 1175 788 1228 q 758 1083 788 1122 q 675 1043 729 1043 m 336 1043 q 253 1083 282 1043 q 224 1175 224 1122 q 253 1266 224 1228 q 336 1304 282 1304 q 418 1266 389 1304 q 447 1175 447 1228 q 418 1083 447 1122 q 336 1043 389 1043 z "},"Ḣ":{"ha":1010,"x_min":36,"x_max":974,"o":"m 67 0 q 36 89 36 35 q 101 104 82 89 q 119 158 119 119 l 119 811 q 101 866 119 850 q 36 882 82 882 q 67 969 36 935 l 406 969 q 428 929 419 953 q 436 882 436 906 q 372 866 390 882 q 353 811 353 850 l 353 551 l 656 551 l 656 811 q 636 866 656 850 q 572 882 617 882 q 603 969 572 935 l 943 969 q 974 882 974 935 q 909 866 929 882 q 889 811 889 850 l 889 158 q 909 104 889 119 q 974 89 929 89 q 943 0 974 35 l 603 0 q 572 89 572 35 q 636 104 617 89 q 656 158 656 119 l 656 435 l 353 435 l 353 158 q 372 104 353 119 q 436 89 390 89 q 428 40 436 64 q 406 0 419 17 l 67 0 m 504 1043 q 409 1078 444 1043 q 374 1174 374 1114 q 410 1268 374 1232 q 507 1304 447 1304 q 603 1268 568 1304 q 638 1174 638 1232 q 601 1078 638 1114 q 504 1043 565 1043 z "},"Ḥ":{"ha":1010,"x_min":36,"x_max":974,"o":"m 67 0 q 36 89 36 35 q 101 104 82 89 q 119 158 119 119 l 119 811 q 101 866 119 850 q 36 882 82 882 q 67 969 36 935 l 406 969 q 428 929 419 953 q 436 882 436 906 q 372 866 390 882 q 353 811 353 850 l 353 551 l 656 551 l 656 811 q 636 866 656 850 q 572 882 617 882 q 603 969 572 935 l 943 969 q 974 882 974 935 q 909 866 929 882 q 889 811 889 850 l 889 158 q 909 104 889 119 q 974 89 929 89 q 943 0 974 35 l 603 0 q 572 89 572 35 q 636 104 617 89 q 656 158 656 119 l 656 435 l 353 435 l 353 158 q 372 104 353 119 q 436 89 390 89 q 428 40 436 64 q 406 0 419 17 l 67 0 m 503 -362 q 408 -327 443 -362 q 372 -232 372 -292 q 409 -137 372 -174 q 506 -101 446 -101 q 602 -137 567 -101 q 638 -232 638 -174 q 601 -327 638 -292 q 503 -362 564 -362 z "},"I":{"ha":479,"x_min":40,"x_max":439,"o":"m 71 0 q 40 89 40 35 q 105 104 86 89 q 124 158 124 119 l 124 811 q 105 866 124 850 q 40 882 86 882 q 71 969 40 935 l 408 969 q 431 929 422 953 q 439 882 439 906 q 374 866 393 882 q 356 811 356 850 l 356 158 q 374 104 356 119 q 439 89 393 89 q 431 40 439 64 q 408 0 422 17 l 71 0 z "},"Ĳ":{"ha":1260,"x_min":40,"x_max":1249,"o":"m 71 0 q 40 89 40 35 q 105 104 86 89 q 124 158 124 119 l 124 811 q 105 866 124 850 q 40 882 86 882 q 71 969 40 935 l 408 969 q 431 929 422 953 q 439 882 439 906 q 374 866 393 882 q 356 811 356 850 l 356 158 q 374 104 356 119 q 439 89 393 89 q 431 40 439 64 q 408 0 422 17 l 71 0 m 603 -18 q 554 47 581 7 q 510 147 528 86 q 492 292 492 207 q 494 338 492 319 q 499 372 496 357 l 710 372 q 701 328 704 350 q 699 283 699 307 q 728 156 699 207 q 825 104 757 104 q 875 115 850 104 q 916 156 900 126 q 932 236 932 185 l 932 783 q 906 857 932 833 q 804 881 879 881 q 836 968 804 932 l 1217 968 q 1240 928 1232 951 q 1249 881 1249 904 q 1179 865 1201 881 q 1157 810 1157 849 l 1157 317 q 1130 155 1157 219 q 1056 52 1103 90 q 950 -2 1010 14 q 825 -18 890 -18 q 772 -14 803 -18 q 710 -3 740 -10 q 663 14 681 4 l 603 -18 z "},"Í":{"ha":479,"x_min":40,"x_max":510,"o":"m 71 0 q 40 89 40 35 q 105 104 86 89 q 124 158 124 119 l 124 811 q 105 866 124 850 q 40 882 86 882 q 71 969 40 935 l 408 969 q 431 929 422 953 q 439 882 439 906 q 374 866 393 882 q 356 811 356 850 l 356 158 q 374 104 356 119 q 439 89 393 89 q 431 40 439 64 q 408 0 422 17 l 71 0 m 196 1024 q 148 1039 169 1024 q 122 1088 126 1054 q 217 1160 167 1117 q 313 1256 267 1203 q 389 1367 358 1310 q 453 1349 426 1367 q 495 1305 481 1331 q 510 1256 510 1279 q 475 1178 510 1218 q 389 1102 440 1138 q 285 1045 338 1067 q 196 1024 232 1024 z "},"Ĭ":{"ha":479,"x_min":-10,"x_max":490,"o":"m 71 0 q 40 89 40 35 q 105 104 86 89 q 124 158 124 119 l 124 811 q 105 866 124 850 q 40 882 86 882 q 71 969 40 935 l 408 969 q 431 929 422 953 q 439 882 439 906 q 374 866 393 882 q 356 811 356 850 l 356 158 q 374 104 356 119 q 439 89 393 89 q 431 40 439 64 q 408 0 422 17 l 71 0 m 240 1043 q 58 1104 125 1043 q -10 1282 -10 1165 q 12 1303 -6 1296 q 49 1310 29 1310 q 86 1304 67 1310 q 113 1288 106 1299 q 147 1210 113 1240 q 240 1181 181 1181 q 334 1210 300 1181 q 368 1288 368 1240 q 395 1304 375 1299 q 432 1310 415 1310 q 470 1303 453 1310 q 490 1282 488 1296 q 423 1104 490 1165 q 240 1043 356 1043 z "},"Ǐ":{"ha":479,"x_min":-18,"x_max":499,"o":"m 71 0 q 40 89 40 35 q 105 104 86 89 q 124 158 124 119 l 124 811 q 105 866 124 850 q 40 882 86 882 q 71 969 40 935 l 408 969 q 431 929 422 953 q 439 882 439 906 q 374 866 393 882 q 356 811 356 850 l 356 158 q 374 104 356 119 q 439 89 393 89 q 431 40 439 64 q 408 0 422 17 l 71 0 m 188 1043 l -18 1269 q 10 1313 -11 1293 q 57 1342 31 1332 l 240 1201 l 422 1342 q 469 1313 449 1332 q 499 1269 490 1293 l 293 1043 l 188 1043 z "},"Î":{"ha":479,"x_min":-19,"x_max":499,"o":"m 71 0 q 40 89 40 35 q 105 104 86 89 q 124 158 124 119 l 124 811 q 105 866 124 850 q 40 882 86 882 q 71 969 40 935 l 408 969 q 431 929 422 953 q 439 882 439 906 q 374 866 393 882 q 356 811 356 850 l 356 158 q 374 104 356 119 q 439 89 393 89 q 431 40 439 64 q 408 0 422 17 l 71 0 m 56 1044 q 8 1074 29 1054 q -19 1115 -12 1093 l 186 1343 l 292 1343 l 499 1115 q 469 1074 490 1093 q 422 1044 449 1054 l 239 1182 l 56 1044 z "},"Ȉ":{"ha":479,"x_min":-157,"x_max":442,"o":"m 71 0 q 40 89 40 35 q 105 104 86 89 q 124 158 124 119 l 124 811 q 105 866 124 850 q 40 882 86 882 q 71 969 40 935 l 408 969 q 431 929 422 953 q 439 882 439 906 q 374 866 393 882 q 356 811 356 850 l 356 158 q 374 104 356 119 q 439 89 393 89 q 431 40 439 64 q 408 0 422 17 l 71 0 m 407 1043 q 328 1072 372 1043 q 242 1144 283 1100 q 175 1234 201 1188 q 149 1318 149 1281 q 178 1372 149 1353 q 263 1392 208 1392 q 317 1287 294 1335 q 369 1196 340 1239 q 442 1107 397 1153 q 435 1058 438 1072 q 407 1043 433 1043 m 128 1043 q 44 1070 93 1043 q -50 1140 -4 1097 q -126 1229 -96 1183 q -157 1313 -157 1275 q -126 1367 -157 1347 q -42 1386 -96 1386 q 51 1225 6 1300 q 163 1107 96 1150 q 156 1058 158 1072 q 128 1043 154 1043 z "},"Ï":{"ha":479,"x_min":-42,"x_max":522,"o":"m 71 0 q 40 89 40 35 q 105 104 86 89 q 124 158 124 119 l 124 811 q 105 866 124 850 q 40 882 86 882 q 71 969 40 935 l 408 969 q 431 929 422 953 q 439 882 439 906 q 374 866 393 882 q 356 811 356 850 l 356 158 q 374 104 356 119 q 439 89 393 89 q 431 40 439 64 q 408 0 422 17 l 71 0 m 410 1043 q 328 1083 357 1043 q 299 1175 299 1122 q 328 1266 299 1228 q 410 1304 357 1304 q 493 1266 464 1304 q 522 1175 522 1228 q 493 1083 522 1122 q 410 1043 464 1043 m 71 1043 q -12 1083 17 1043 q -42 1175 -42 1122 q -12 1266 -42 1228 q 71 1304 17 1304 q 153 1266 124 1304 q 182 1175 182 1228 q 153 1083 182 1122 q 71 1043 124 1043 z "},"Ḯ":{"ha":479,"x_min":-42,"x_max":522,"o":"m 71 0 q 40 89 40 35 q 105 104 86 89 q 124 158 124 119 l 124 811 q 105 866 124 850 q 40 882 86 882 q 71 969 40 935 l 408 969 q 431 929 422 953 q 439 882 439 906 q 374 866 393 882 q 356 811 356 850 l 356 158 q 374 104 356 119 q 439 89 393 89 q 431 40 439 64 q 408 0 422 17 l 71 0 m 410 1043 q 328 1083 357 1043 q 299 1175 299 1122 q 328 1266 299 1228 q 410 1304 357 1304 q 493 1266 464 1304 q 522 1175 522 1228 q 493 1083 522 1122 q 410 1043 464 1043 m 71 1043 q -12 1083 17 1043 q -42 1175 -42 1122 q -12 1266 -42 1228 q 71 1304 17 1304 q 153 1266 124 1304 q 182 1175 182 1228 q 153 1083 182 1122 q 71 1043 124 1043 m 196 1303 q 148 1318 169 1303 q 122 1367 126 1333 q 217 1439 167 1396 q 313 1535 267 1482 q 389 1646 358 1589 q 453 1628 426 1646 q 495 1584 481 1610 q 510 1535 510 1558 q 475 1457 510 1497 q 389 1381 440 1417 q 285 1324 338 1346 q 196 1303 232 1303 z "},"İ":{"ha":479,"x_min":40,"x_max":439,"o":"m 71 0 q 40 89 40 35 q 105 104 86 89 q 124 158 124 119 l 124 811 q 105 866 124 850 q 40 882 86 882 q 71 969 40 935 l 408 969 q 431 929 422 953 q 439 882 439 906 q 374 866 393 882 q 356 811 356 850 l 356 158 q 374 104 356 119 q 439 89 393 89 q 431 40 439 64 q 408 0 422 17 l 71 0 m 239 1043 q 144 1078 179 1043 q 108 1174 108 1114 q 145 1268 108 1232 q 242 1304 182 1304 q 338 1268 303 1304 q 372 1174 372 1232 q 336 1078 372 1114 q 239 1043 300 1043 z "},"Ị":{"ha":479,"x_min":40,"x_max":439,"o":"m 71 0 q 40 89 40 35 q 105 104 86 89 q 124 158 124 119 l 124 811 q 105 866 124 850 q 40 882 86 882 q 71 969 40 935 l 408 969 q 431 929 422 953 q 439 882 439 906 q 374 866 393 882 q 356 811 356 850 l 356 158 q 374 104 356 119 q 439 89 393 89 q 431 40 439 64 q 408 0 422 17 l 71 0 m 238 -362 q 142 -327 178 -362 q 107 -232 107 -292 q 144 -137 107 -174 q 240 -101 181 -101 q 337 -137 301 -101 q 372 -232 372 -174 q 335 -327 372 -292 q 238 -362 299 -362 z "},"Ì":{"ha":479,"x_min":40,"x_max":439,"o":"m 71 0 q 40 89 40 35 q 105 104 86 89 q 124 158 124 119 l 124 811 q 105 866 124 850 q 40 882 86 882 q 71 969 40 935 l 408 969 q 431 929 422 953 q 439 882 439 906 q 374 866 393 882 q 356 811 356 850 l 356 158 q 374 104 356 119 q 439 89 393 89 q 431 40 439 64 q 408 0 422 17 l 71 0 m 360 1043 q 292 1058 332 1043 q 208 1097 251 1072 q 128 1151 165 1121 q 69 1213 92 1181 q 46 1275 46 1246 q 60 1324 46 1299 q 103 1368 75 1350 q 167 1386 131 1386 q 242 1276 197 1329 q 338 1179 288 1222 q 433 1107 389 1136 q 408 1058 429 1074 q 360 1043 388 1043 z "},"Ỉ":{"ha":479,"x_min":31,"x_max":450,"o":"m 71 0 q 40 89 40 35 q 105 104 86 89 q 124 158 124 119 l 124 811 q 105 866 124 850 q 40 882 86 882 q 71 969 40 935 l 408 969 q 431 929 422 953 q 439 882 439 906 q 374 866 393 882 q 356 811 356 850 l 356 158 q 374 104 356 119 q 439 89 393 89 q 431 40 439 64 q 408 0 422 17 l 71 0 m 247 1019 q 193 1024 214 1019 q 146 1033 172 1028 l 121 1117 q 144 1113 132 1115 q 169 1111 156 1111 q 244 1128 208 1111 q 281 1192 281 1144 q 253 1242 281 1219 q 176 1264 225 1264 q 124 1254 150 1264 q 65 1229 97 1244 l 31 1331 q 73 1358 43 1343 q 142 1383 103 1372 q 222 1393 182 1393 q 295 1385 256 1393 q 370 1356 335 1376 q 428 1298 406 1335 q 450 1206 450 1261 q 426 1119 450 1163 q 358 1048 403 1076 q 247 1019 313 1019 z "},"Ȋ":{"ha":479,"x_min":-10,"x_max":490,"o":"m 71 0 q 40 89 40 35 q 105 104 86 89 q 124 158 124 119 l 124 811 q 105 866 124 850 q 40 882 86 882 q 71 969 40 935 l 408 969 q 431 929 422 953 q 439 882 439 906 q 374 866 393 882 q 356 811 356 850 l 356 158 q 374 104 356 119 q 439 89 393 89 q 431 40 439 64 q 408 0 422 17 l 71 0 m 49 1024 q 12 1031 29 1024 q -10 1051 -6 1038 q 58 1238 -10 1168 q 240 1308 125 1308 q 423 1238 356 1308 q 490 1051 490 1168 q 470 1031 488 1038 q 432 1024 453 1024 q 395 1029 415 1024 q 368 1046 375 1035 q 334 1132 368 1093 q 240 1171 300 1171 q 147 1132 181 1171 q 113 1046 113 1093 q 86 1029 106 1035 q 49 1024 67 1024 z "},"Ī":{"ha":479,"x_min":14,"x_max":467,"o":"m 71 0 q 40 89 40 35 q 105 104 86 89 q 124 158 124 119 l 124 811 q 105 866 124 850 q 40 882 86 882 q 71 969 40 935 l 408 969 q 431 929 422 953 q 439 882 439 906 q 374 866 393 882 q 356 811 356 850 l 356 158 q 374 104 356 119 q 439 89 393 89 q 431 40 439 64 q 408 0 422 17 l 71 0 m 22 1067 q 16 1094 18 1078 q 14 1128 14 1111 q 16 1165 14 1147 q 24 1192 18 1182 l 458 1192 q 465 1163 463 1181 q 467 1128 467 1146 q 460 1067 467 1088 l 22 1067 z "},"Į":{"ha":479,"x_min":40,"x_max":439,"o":"m 71 0 q 40 89 40 35 q 105 104 86 89 q 124 158 124 119 l 124 811 q 105 866 124 850 q 40 882 86 882 q 71 969 40 935 l 408 969 q 431 929 422 953 q 439 882 439 906 q 374 866 393 882 q 356 811 356 850 l 356 158 q 374 104 356 119 q 439 89 393 89 q 431 40 439 64 q 408 0 422 17 l 71 0 m 261 -317 q 176 -301 218 -317 q 108 -251 135 -286 q 81 -160 81 -217 q 106 -66 81 -110 q 169 11 131 -22 q 246 64 207 44 q 314 85 285 83 q 349 68 343 88 l 365 18 q 270 -35 301 3 q 239 -118 239 -72 q 267 -160 239 -149 q 326 -172 294 -172 q 382 -165 356 -172 q 421 -147 408 -157 q 430 -172 428 -157 q 432 -200 432 -187 q 427 -238 432 -219 q 407 -272 422 -257 q 349 -303 389 -290 q 261 -317 310 -317 z "},"Ĩ":{"ha":479,"x_min":-31,"x_max":511,"o":"m 71 0 q 40 89 40 35 q 105 104 86 89 q 124 158 124 119 l 124 811 q 105 866 124 850 q 40 882 86 882 q 71 969 40 935 l 408 969 q 431 929 422 953 q 439 882 439 906 q 374 866 393 882 q 356 811 356 850 l 356 158 q 374 104 356 119 q 439 89 393 89 q 431 40 439 64 q 408 0 422 17 l 71 0 m 329 1038 q 267 1051 292 1038 q 224 1082 242 1064 q 188 1113 206 1100 q 144 1126 169 1126 q 99 1117 122 1126 q 46 1072 76 1107 q 16 1075 35 1064 q -17 1107 -3 1086 q -25 1149 -31 1128 q 8 1208 -17 1179 q 72 1255 33 1236 q 153 1274 110 1274 q 223 1260 196 1274 q 268 1229 250 1247 q 302 1198 286 1211 q 338 1185 318 1185 q 383 1194 361 1185 q 435 1238 404 1203 q 465 1235 446 1247 q 498 1203 485 1224 q 506 1161 511 1182 q 449 1077 494 1117 q 329 1038 403 1038 z "},"Ḭ":{"ha":479,"x_min":-33,"x_max":514,"o":"m 71 0 q 40 89 40 35 q 105 104 86 89 q 124 158 124 119 l 124 811 q 105 866 124 850 q 40 882 86 882 q 71 969 40 935 l 408 969 q 431 929 422 953 q 439 882 439 906 q 374 866 393 882 q 356 811 356 850 l 356 158 q 374 104 356 119 q 439 89 393 89 q 431 40 439 64 q 408 0 422 17 l 71 0 m 338 -322 q 272 -308 296 -322 q 224 -275 247 -293 q 185 -249 204 -260 q 144 -237 167 -237 q 96 -251 122 -237 q 39 -300 69 -265 q 28 -304 35 -304 q -12 -282 10 -304 q -33 -235 -33 -260 q -32 -224 -33 -228 q 3 -165 -22 -194 q 64 -115 28 -135 q 143 -94 100 -94 q 222 -110 194 -94 q 274 -147 250 -126 q 305 -170 289 -161 q 336 -179 321 -179 q 385 -165 360 -179 q 442 -117 411 -151 q 453 -112 446 -112 q 492 -135 471 -112 q 514 -183 514 -157 q 513 -193 514 -190 q 476 -251 499 -221 q 421 -301 454 -281 q 338 -322 388 -322 z "},"J":{"ha":796,"x_min":28,"x_max":785,"o":"m 139 -18 q 90 47 117 7 q 46 147 64 86 q 28 292 28 207 q 30 338 28 319 q 35 372 32 357 l 246 372 q 238 328 240 350 q 235 283 235 307 q 264 156 235 207 q 361 104 293 104 q 411 115 386 104 q 452 156 436 126 q 468 236 468 185 l 468 783 q 442 857 468 833 q 340 881 415 881 q 372 968 340 932 l 753 968 q 776 928 768 951 q 785 881 785 904 q 715 865 738 881 q 693 810 693 849 l 693 317 q 666 155 693 219 q 592 52 639 90 q 486 -2 546 14 q 361 -18 426 -18 q 308 -14 339 -18 q 247 -3 276 -10 q 199 14 217 4 l 139 -18 z "},"Ĵ":{"ha":796,"x_min":28,"x_max":844,"o":"m 139 -18 q 90 47 117 7 q 46 147 64 86 q 28 292 28 207 q 30 338 28 319 q 35 372 32 357 l 246 372 q 238 328 240 350 q 235 283 235 307 q 264 156 235 207 q 361 104 293 104 q 411 115 386 104 q 452 156 436 126 q 468 236 468 185 l 468 783 q 442 857 468 833 q 340 881 415 881 q 372 968 340 932 l 753 968 q 776 928 768 951 q 785 881 785 904 q 715 865 738 881 q 693 810 693 849 l 693 317 q 666 155 693 219 q 592 52 639 90 q 486 -2 546 14 q 361 -18 426 -18 q 308 -14 339 -18 q 247 -3 276 -10 q 199 14 217 4 l 139 -18 m 401 1044 q 354 1074 375 1054 q 326 1115 333 1093 l 532 1343 l 638 1343 l 844 1115 q 815 1074 836 1093 q 768 1044 794 1054 l 585 1182 l 401 1044 z "},"K":{"ha":924,"x_min":36,"x_max":925,"o":"m 782 -19 q 683 0 724 -19 q 617 51 643 19 q 572 117 590 82 q 538 183 553 153 q 503 252 524 213 q 458 331 482 292 q 407 401 433 371 q 354 442 381 431 l 354 158 q 373 104 354 119 q 438 89 392 89 q 429 40 438 64 q 407 0 421 17 l 67 0 q 36 89 36 35 q 101 104 82 89 q 119 158 119 119 l 119 811 q 101 866 119 850 q 36 882 82 882 q 67 969 36 935 l 407 969 q 429 929 421 953 q 438 882 438 906 q 373 866 392 882 q 354 811 354 850 l 354 536 q 378 536 364 536 q 406 533 392 536 l 601 793 q 615 818 611 804 q 619 843 619 832 q 593 872 619 861 q 539 882 567 882 q 571 969 539 931 l 894 969 q 917 928 908 951 q 925 882 925 906 q 833 858 865 882 q 786 815 801 835 l 524 504 q 635 430 592 474 q 719 324 679 386 q 790 212 761 261 q 850 133 819 163 q 922 99 881 104 l 922 43 q 869 -3 900 14 q 782 -19 838 -19 z "},"Ḱ":{"ha":924,"x_min":36,"x_max":925,"o":"m 782 -19 q 683 0 724 -19 q 617 51 643 19 q 572 117 590 82 q 538 183 553 153 q 503 252 524 213 q 458 331 482 292 q 407 401 433 371 q 354 442 381 431 l 354 158 q 373 104 354 119 q 438 89 392 89 q 429 40 438 64 q 407 0 421 17 l 67 0 q 36 89 36 35 q 101 104 82 89 q 119 158 119 119 l 119 811 q 101 866 119 850 q 36 882 82 882 q 67 969 36 935 l 407 969 q 429 929 421 953 q 438 882 438 906 q 373 866 392 882 q 354 811 354 850 l 354 536 q 378 536 364 536 q 406 533 392 536 l 601 793 q 615 818 611 804 q 619 843 619 832 q 593 872 619 861 q 539 882 567 882 q 571 969 539 931 l 894 969 q 917 928 908 951 q 925 882 925 906 q 833 858 865 882 q 786 815 801 835 l 524 504 q 635 430 592 474 q 719 324 679 386 q 790 212 761 261 q 850 133 819 163 q 922 99 881 104 l 922 43 q 869 -3 900 14 q 782 -19 838 -19 m 447 1024 q 399 1039 421 1024 q 374 1088 378 1054 q 468 1160 418 1117 q 564 1256 518 1203 q 640 1367 610 1310 q 705 1349 678 1367 q 747 1305 732 1331 q 761 1256 761 1279 q 726 1178 761 1218 q 640 1102 692 1138 q 536 1045 589 1067 q 447 1024 483 1024 z "},"Ǩ":{"ha":924,"x_min":36,"x_max":925,"o":"m 782 -19 q 683 0 724 -19 q 617 51 643 19 q 572 117 590 82 q 538 183 553 153 q 503 252 524 213 q 458 331 482 292 q 407 401 433 371 q 354 442 381 431 l 354 158 q 373 104 354 119 q 438 89 392 89 q 429 40 438 64 q 407 0 421 17 l 67 0 q 36 89 36 35 q 101 104 82 89 q 119 158 119 119 l 119 811 q 101 866 119 850 q 36 882 82 882 q 67 969 36 935 l 407 969 q 429 929 421 953 q 438 882 438 906 q 373 866 392 882 q 354 811 354 850 l 354 536 q 378 536 364 536 q 406 533 392 536 l 601 793 q 615 818 611 804 q 619 843 619 832 q 593 872 619 861 q 539 882 567 882 q 571 969 539 931 l 894 969 q 917 928 908 951 q 925 882 925 906 q 833 858 865 882 q 786 815 801 835 l 524 504 q 635 430 592 474 q 719 324 679 386 q 790 212 761 261 q 850 133 819 163 q 922 99 881 104 l 922 43 q 869 -3 900 14 q 782 -19 838 -19 m 439 1043 l 233 1269 q 261 1313 240 1293 q 308 1342 282 1332 l 492 1201 l 674 1342 q 721 1313 700 1332 q 750 1269 742 1293 l 544 1043 l 439 1043 z "},"Ķ":{"ha":924,"x_min":36,"x_max":925,"o":"m 782 -19 q 683 0 724 -19 q 617 51 643 19 q 572 117 590 82 q 538 183 553 153 q 503 252 524 213 q 458 331 482 292 q 407 401 433 371 q 354 442 381 431 l 354 158 q 373 104 354 119 q 438 89 392 89 q 429 40 438 64 q 407 0 421 17 l 67 0 q 36 89 36 35 q 101 104 82 89 q 119 158 119 119 l 119 811 q 101 866 119 850 q 36 882 82 882 q 67 969 36 935 l 407 969 q 429 929 421 953 q 438 882 438 906 q 373 866 392 882 q 354 811 354 850 l 354 536 q 378 536 364 536 q 406 533 392 536 l 601 793 q 615 818 611 804 q 619 843 619 832 q 593 872 619 861 q 539 882 567 882 q 571 969 539 931 l 894 969 q 917 928 908 951 q 925 882 925 906 q 833 858 865 882 q 786 815 801 835 l 524 504 q 635 430 592 474 q 719 324 679 386 q 790 212 761 261 q 850 133 819 163 q 922 99 881 104 l 922 43 q 869 -3 900 14 q 782 -19 838 -19 m 449 -479 q 424 -460 435 -475 q 413 -426 413 -444 q 461 -387 443 -410 q 479 -331 479 -364 q 476 -315 479 -326 q 468 -317 472 -317 q 460 -318 464 -318 q 381 -285 408 -318 q 354 -212 354 -253 q 385 -131 354 -161 q 467 -101 417 -101 q 560 -138 522 -101 q 599 -257 599 -175 q 587 -331 599 -286 q 542 -416 575 -375 q 449 -479 510 -457 z "},"Ḳ":{"ha":924,"x_min":36,"x_max":925,"o":"m 782 -19 q 683 0 724 -19 q 617 51 643 19 q 572 117 590 82 q 538 183 553 153 q 503 252 524 213 q 458 331 482 292 q 407 401 433 371 q 354 442 381 431 l 354 158 q 373 104 354 119 q 438 89 392 89 q 429 40 438 64 q 407 0 421 17 l 67 0 q 36 89 36 35 q 101 104 82 89 q 119 158 119 119 l 119 811 q 101 866 119 850 q 36 882 82 882 q 67 969 36 935 l 407 969 q 429 929 421 953 q 438 882 438 906 q 373 866 392 882 q 354 811 354 850 l 354 536 q 378 536 364 536 q 406 533 392 536 l 601 793 q 615 818 611 804 q 619 843 619 832 q 593 872 619 861 q 539 882 567 882 q 571 969 539 931 l 894 969 q 917 928 908 951 q 925 882 925 906 q 833 858 865 882 q 786 815 801 835 l 524 504 q 635 430 592 474 q 719 324 679 386 q 790 212 761 261 q 850 133 819 163 q 922 99 881 104 l 922 43 q 869 -3 900 14 q 782 -19 838 -19 m 474 -362 q 378 -327 414 -362 q 343 -232 343 -292 q 380 -137 343 -174 q 476 -101 417 -101 q 573 -137 538 -101 q 608 -232 608 -174 q 572 -327 608 -292 q 474 -362 535 -362 z "},"Ḵ":{"ha":924,"x_min":36,"x_max":925,"o":"m 782 -19 q 683 0 724 -19 q 617 51 643 19 q 572 117 590 82 q 538 183 553 153 q 503 252 524 213 q 458 331 482 292 q 407 401 433 371 q 354 442 381 431 l 354 158 q 373 104 354 119 q 438 89 392 89 q 429 40 438 64 q 407 0 421 17 l 67 0 q 36 89 36 35 q 101 104 82 89 q 119 158 119 119 l 119 811 q 101 866 119 850 q 36 882 82 882 q 67 969 36 935 l 407 969 q 429 929 421 953 q 438 882 438 906 q 373 866 392 882 q 354 811 354 850 l 354 536 q 378 536 364 536 q 406 533 392 536 l 601 793 q 615 818 611 804 q 619 843 619 832 q 593 872 619 861 q 539 882 567 882 q 571 969 539 931 l 894 969 q 917 928 908 951 q 925 882 925 906 q 833 858 865 882 q 786 815 801 835 l 524 504 q 635 430 592 474 q 719 324 679 386 q 790 212 761 261 q 850 133 819 163 q 922 99 881 104 l 922 43 q 869 -3 900 14 q 782 -19 838 -19 m 258 -243 q 252 -212 254 -232 q 250 -175 250 -192 q 252 -135 250 -156 q 260 -104 254 -114 l 694 -104 q 701 -136 699 -115 q 703 -175 703 -157 q 701 -213 703 -193 q 696 -243 699 -233 l 258 -243 z "},"L":{"ha":764,"x_min":36,"x_max":750,"o":"m 68 0 q 36 89 36 35 q 103 104 83 89 q 122 158 122 119 l 122 811 q 103 866 122 850 q 36 882 83 882 q 44 929 36 906 q 68 969 53 953 l 425 969 q 448 929 440 953 q 456 882 456 906 q 375 866 400 882 q 350 811 350 850 l 350 118 l 436 118 q 558 187 514 118 q 601 372 601 256 l 699 372 q 728 326 717 360 q 744 251 739 292 q 750 178 750 211 q 721 47 750 94 q 619 0 692 0 l 68 0 z "},"Ǉ":{"ha":1575,"x_min":36,"x_max":1564,"o":"m 68 0 q 36 89 36 35 q 103 104 83 89 q 122 158 122 119 l 122 811 q 103 866 122 850 q 36 882 83 882 q 44 929 36 906 q 68 969 53 953 l 425 969 q 448 929 440 953 q 456 882 456 906 q 375 866 400 882 q 350 811 350 850 l 350 118 l 436 118 q 558 187 514 118 q 601 372 601 256 l 699 372 q 728 326 717 360 q 744 251 739 292 q 750 178 750 211 q 721 47 750 94 q 619 0 692 0 l 68 0 m 918 -18 q 869 47 896 7 q 825 147 843 86 q 807 292 807 207 q 809 338 807 319 q 814 372 811 357 l 1025 372 q 1017 328 1019 350 q 1014 283 1014 307 q 1043 156 1014 207 q 1140 104 1072 104 q 1190 115 1165 104 q 1231 156 1215 126 q 1247 236 1247 185 l 1247 783 q 1221 857 1247 833 q 1119 881 1194 881 q 1151 968 1119 932 l 1532 968 q 1556 928 1547 951 q 1564 881 1564 904 q 1494 865 1517 881 q 1472 810 1472 849 l 1472 317 q 1445 155 1472 219 q 1372 52 1418 90 q 1265 -2 1325 14 q 1140 -18 1206 -18 q 1087 -14 1118 -18 q 1026 -3 1056 -10 q 978 14 996 4 l 918 -18 z "},"Ĺ":{"ha":764,"x_min":36,"x_max":750,"o":"m 68 0 q 36 89 36 35 q 103 104 83 89 q 122 158 122 119 l 122 811 q 103 866 122 850 q 36 882 83 882 q 44 929 36 906 q 68 969 53 953 l 425 969 q 448 929 440 953 q 456 882 456 906 q 375 866 400 882 q 350 811 350 850 l 350 118 l 436 118 q 558 187 514 118 q 601 372 601 256 l 699 372 q 728 326 717 360 q 744 251 739 292 q 750 178 750 211 q 721 47 750 94 q 619 0 692 0 l 68 0 m 226 1024 q 178 1039 200 1024 q 153 1088 157 1054 q 247 1160 197 1117 q 343 1256 297 1203 q 419 1367 389 1310 q 484 1349 457 1367 q 526 1305 511 1331 q 540 1256 540 1279 q 506 1178 540 1218 q 419 1102 471 1138 q 315 1045 368 1067 q 226 1024 263 1024 z "},"Ľ":{"ha":764,"x_min":36,"x_max":808,"o":"m 68 0 q 36 89 36 35 q 103 104 83 89 q 122 158 122 119 l 122 811 q 103 866 122 850 q 36 882 83 882 q 44 929 36 906 q 68 969 53 953 l 425 969 q 448 929 440 953 q 456 882 456 906 q 375 866 400 882 q 350 811 350 850 l 350 118 l 436 118 q 558 187 514 118 q 601 372 601 256 l 699 372 q 728 326 717 360 q 744 251 739 292 q 750 178 750 211 q 721 47 750 94 q 619 0 692 0 l 68 0 m 682 622 q 633 640 656 622 q 638 745 638 689 q 639 856 639 801 q 639 951 639 910 q 681 972 650 963 q 735 982 711 982 q 796 955 783 982 q 808 871 808 928 q 796 791 808 833 q 767 713 783 749 q 739 661 751 678 q 712 633 726 643 q 682 622 697 622 z "},"Ḽ":{"ha":764,"x_min":36,"x_max":750,"o":"m 68 0 q 36 89 36 35 q 103 104 83 89 q 122 158 122 119 l 122 811 q 103 866 122 850 q 36 882 83 882 q 44 929 36 906 q 68 969 53 953 l 425 969 q 448 929 440 953 q 456 882 456 906 q 375 866 400 882 q 350 811 350 850 l 350 118 l 436 118 q 558 187 514 118 q 601 372 601 256 l 699 372 q 728 326 717 360 q 744 251 739 292 q 750 178 750 211 q 721 47 750 94 q 619 0 692 0 l 68 0 m 189 -368 q 142 -339 163 -358 q 114 -297 121 -319 l 319 -69 l 425 -69 l 632 -297 q 603 -339 624 -319 q 556 -368 582 -358 l 372 -231 l 189 -368 z "},"Ļ":{"ha":764,"x_min":36,"x_max":750,"o":"m 68 0 q 36 89 36 35 q 103 104 83 89 q 122 158 122 119 l 122 811 q 103 866 122 850 q 36 882 83 882 q 44 929 36 906 q 68 969 53 953 l 425 969 q 448 929 440 953 q 456 882 456 906 q 375 866 400 882 q 350 811 350 850 l 350 118 l 436 118 q 558 187 514 118 q 601 372 601 256 l 699 372 q 728 326 717 360 q 744 251 739 292 q 750 178 750 211 q 721 47 750 94 q 619 0 692 0 l 68 0 m 346 -479 q 321 -460 332 -475 q 310 -426 310 -444 q 358 -387 340 -410 q 376 -331 376 -364 q 374 -315 376 -326 q 365 -317 369 -317 q 357 -318 361 -318 q 278 -285 306 -318 q 251 -212 251 -253 q 283 -131 251 -161 q 364 -101 314 -101 q 458 -138 419 -101 q 496 -257 496 -175 q 484 -331 496 -286 q 440 -416 472 -375 q 346 -479 407 -457 z "},"Ŀ":{"ha":833,"x_min":36,"x_max":811,"o":"m 68 0 q 36 89 36 35 q 103 104 83 89 q 122 158 122 119 l 122 811 q 103 866 122 850 q 36 882 83 882 q 44 929 36 906 q 68 969 53 953 l 425 969 q 448 929 440 953 q 456 882 456 906 q 375 866 400 882 q 350 811 350 850 l 350 118 l 436 118 q 558 187 514 118 q 601 372 601 256 l 699 372 q 728 326 717 360 q 744 251 739 292 q 750 178 750 211 q 721 47 750 94 q 619 0 692 0 l 68 0 m 671 417 q 568 455 607 417 q 529 554 529 493 q 568 654 529 617 q 671 692 607 692 q 772 654 733 692 q 811 554 811 617 q 772 455 811 493 q 671 417 733 417 z "},"Ḷ":{"ha":764,"x_min":36,"x_max":750,"o":"m 68 0 q 36 89 36 35 q 103 104 83 89 q 122 158 122 119 l 122 811 q 103 866 122 850 q 36 882 83 882 q 44 929 36 906 q 68 969 53 953 l 425 969 q 448 929 440 953 q 456 882 456 906 q 375 866 400 882 q 350 811 350 850 l 350 118 l 436 118 q 558 187 514 118 q 601 372 601 256 l 699 372 q 728 326 717 360 q 744 251 739 292 q 750 178 750 211 q 721 47 750 94 q 619 0 692 0 l 68 0 m 371 -362 q 276 -327 311 -362 q 240 -232 240 -292 q 277 -137 240 -174 q 374 -101 314 -101 q 470 -137 435 -101 q 506 -232 506 -174 q 469 -327 506 -292 q 371 -362 432 -362 z "},"ǈ":{"ha":1149,"x_min":36,"x_max":1088,"o":"m 68 0 q 36 89 36 35 q 103 104 83 89 q 122 158 122 119 l 122 811 q 103 866 122 850 q 36 882 83 882 q 44 929 36 906 q 68 969 53 953 l 425 969 q 448 929 440 953 q 456 882 456 906 q 375 866 400 882 q 350 811 350 850 l 350 118 l 436 118 q 558 187 514 118 q 601 372 601 256 l 699 372 q 728 326 717 360 q 744 251 739 292 q 750 178 750 211 q 721 47 750 94 q 619 0 692 0 l 68 0 m 953 851 q 858 887 893 851 q 822 982 822 922 q 859 1076 822 1040 q 956 1113 896 1113 q 1052 1076 1017 1113 q 1088 982 1088 1040 q 1051 887 1088 922 q 953 851 1014 851 m 849 -271 q 755 -247 785 -271 q 725 -196 725 -222 q 729 -174 725 -186 q 738 -156 733 -161 q 822 -123 792 -156 q 853 -4 853 -90 l 853 558 q 835 608 853 590 q 761 626 818 626 l 761 689 q 843 722 796 707 q 936 745 890 736 q 1011 754 982 754 q 1058 740 1044 754 q 1071 692 1071 726 l 1071 -14 q 1040 -158 1071 -101 q 960 -243 1010 -215 q 849 -271 910 -271 z "},"Ḻ":{"ha":764,"x_min":36,"x_max":750,"o":"m 68 0 q 36 89 36 35 q 103 104 83 89 q 122 158 122 119 l 122 811 q 103 866 122 850 q 36 882 83 882 q 44 929 36 906 q 68 969 53 953 l 425 969 q 448 929 440 953 q 456 882 456 906 q 375 866 400 882 q 350 811 350 850 l 350 118 l 436 118 q 558 187 514 118 q 601 372 601 256 l 699 372 q 728 326 717 360 q 744 251 739 292 q 750 178 750 211 q 721 47 750 94 q 619 0 692 0 l 68 0 m 156 -243 q 149 -212 151 -232 q 147 -175 147 -192 q 149 -135 147 -156 q 157 -104 151 -114 l 592 -104 q 598 -136 596 -115 q 600 -175 600 -157 q 598 -213 600 -193 q 593 -243 596 -233 l 156 -243 z "},"Ł":{"ha":746,"x_min":-8,"x_max":750,"o":"m 68 0 q 36 89 36 35 q 103 104 83 89 q 122 158 122 119 l 122 340 l 56 288 q 15 319 33 296 q -8 375 -6 346 l 122 475 l 122 811 q 103 866 122 850 q 36 882 83 882 q 44 929 36 906 q 68 969 53 953 l 425 969 q 448 929 440 953 q 456 882 456 906 q 375 866 400 882 q 350 811 350 850 l 350 642 l 499 749 q 539 711 522 736 q 553 688 546 701 q 563 661 561 674 l 350 507 l 350 118 l 436 118 q 558 187 514 118 q 601 372 601 256 l 699 372 q 728 326 717 360 q 744 251 739 292 q 750 178 750 211 q 721 47 750 94 q 619 0 692 0 l 68 0 z "},"M":{"ha":1268,"x_min":36,"x_max":1232,"o":"m 67 0 q 36 89 36 35 q 110 104 86 89 q 135 158 135 119 l 135 811 q 109 866 135 850 q 36 882 83 882 q 68 969 36 933 l 286 969 q 387 953 346 969 q 453 876 428 936 l 600 514 l 656 342 l 708 514 l 883 969 l 1200 969 q 1232 882 1232 933 q 1162 866 1185 882 q 1139 811 1139 850 l 1139 158 q 1160 104 1139 119 q 1232 89 1182 89 q 1200 0 1232 36 l 856 0 q 833 40 842 17 q 825 89 825 64 q 897 104 872 89 q 921 158 921 119 l 921 733 l 685 138 q 633 77 667 92 q 551 63 599 63 l 276 733 l 276 158 q 305 104 276 119 q 386 89 333 89 q 378 40 386 64 q 356 0 369 17 l 67 0 z "},"Ḿ":{"ha":1268,"x_min":36,"x_max":1232,"o":"m 67 0 q 36 89 36 35 q 110 104 86 89 q 135 158 135 119 l 135 811 q 109 866 135 850 q 36 882 83 882 q 68 969 36 933 l 286 969 q 387 953 346 969 q 453 876 428 936 l 600 514 l 656 342 l 708 514 l 883 969 l 1200 969 q 1232 882 1232 933 q 1162 866 1185 882 q 1139 811 1139 850 l 1139 158 q 1160 104 1139 119 q 1232 89 1182 89 q 1200 0 1232 36 l 856 0 q 833 40 842 17 q 825 89 825 64 q 897 104 872 89 q 921 158 921 119 l 921 733 l 685 138 q 633 77 667 92 q 551 63 599 63 l 276 733 l 276 158 q 305 104 276 119 q 386 89 333 89 q 378 40 386 64 q 356 0 369 17 l 67 0 m 590 1024 q 542 1039 564 1024 q 517 1088 521 1054 q 611 1160 561 1117 q 707 1256 661 1203 q 783 1367 753 1310 q 848 1349 821 1367 q 890 1305 875 1331 q 904 1256 904 1279 q 869 1178 904 1218 q 783 1102 835 1138 q 679 1045 732 1067 q 590 1024 626 1024 z "},"Ṁ":{"ha":1268,"x_min":36,"x_max":1232,"o":"m 67 0 q 36 89 36 35 q 110 104 86 89 q 135 158 135 119 l 135 811 q 109 866 135 850 q 36 882 83 882 q 68 969 36 933 l 286 969 q 387 953 346 969 q 453 876 428 936 l 600 514 l 656 342 l 708 514 l 883 969 l 1200 969 q 1232 882 1232 933 q 1162 866 1185 882 q 1139 811 1139 850 l 1139 158 q 1160 104 1139 119 q 1232 89 1182 89 q 1200 0 1232 36 l 856 0 q 833 40 842 17 q 825 89 825 64 q 897 104 872 89 q 921 158 921 119 l 921 733 l 685 138 q 633 77 667 92 q 551 63 599 63 l 276 733 l 276 158 q 305 104 276 119 q 386 89 333 89 q 378 40 386 64 q 356 0 369 17 l 67 0 m 633 1043 q 538 1078 574 1043 q 503 1174 503 1114 q 540 1268 503 1232 q 636 1304 576 1304 q 732 1268 697 1304 q 767 1174 767 1232 q 731 1078 767 1114 q 633 1043 694 1043 z "},"Ṃ":{"ha":1268,"x_min":36,"x_max":1232,"o":"m 67 0 q 36 89 36 35 q 110 104 86 89 q 135 158 135 119 l 135 811 q 109 866 135 850 q 36 882 83 882 q 68 969 36 933 l 286 969 q 387 953 346 969 q 453 876 428 936 l 600 514 l 656 342 l 708 514 l 883 969 l 1200 969 q 1232 882 1232 933 q 1162 866 1185 882 q 1139 811 1139 850 l 1139 158 q 1160 104 1139 119 q 1232 89 1182 89 q 1200 0 1232 36 l 856 0 q 833 40 842 17 q 825 89 825 64 q 897 104 872 89 q 921 158 921 119 l 921 733 l 685 138 q 633 77 667 92 q 551 63 599 63 l 276 733 l 276 158 q 305 104 276 119 q 386 89 333 89 q 378 40 386 64 q 356 0 369 17 l 67 0 m 632 -362 q 537 -327 572 -362 q 501 -232 501 -292 q 538 -137 501 -174 q 635 -101 575 -101 q 731 -137 696 -101 q 767 -232 767 -174 q 730 -327 767 -292 q 632 -362 693 -362 z "},"N":{"ha":1006,"x_min":36,"x_max":993,"o":"m 842 -8 q 738 11 769 -8 q 681 69 707 31 l 292 660 l 292 158 q 319 103 292 119 q 393 88 346 88 q 361 0 393 39 l 72 0 q 42 88 42 38 q 113 103 89 88 q 138 158 138 119 l 138 811 q 110 866 138 850 q 36 882 83 882 q 67 969 36 935 l 260 969 q 341 938 300 969 q 417 851 382 907 l 732 353 l 732 811 q 706 866 732 850 q 633 882 681 882 q 642 929 633 906 q 665 969 650 953 l 961 969 q 993 882 993 933 q 922 866 947 882 q 897 811 897 850 l 897 -8 l 842 -8 z "},"Ǌ":{"ha":1771,"x_min":36,"x_max":1760,"o":"m 842 -8 q 738 11 769 -8 q 681 69 707 31 l 292 660 l 292 158 q 319 103 292 119 q 393 88 346 88 q 361 0 393 39 l 72 0 q 42 88 42 38 q 113 103 89 88 q 138 158 138 119 l 138 811 q 110 866 138 850 q 36 882 83 882 q 67 969 36 935 l 260 969 q 341 938 300 969 q 417 851 382 907 l 732 353 l 732 811 q 706 866 732 850 q 633 882 681 882 q 642 929 633 906 q 665 969 650 953 l 961 969 q 993 882 993 933 q 922 866 947 882 q 897 811 897 850 l 897 -8 l 842 -8 m 1114 -18 q 1065 47 1092 7 q 1021 147 1039 86 q 1003 292 1003 207 q 1005 338 1003 319 q 1010 372 1007 357 l 1221 372 q 1213 328 1215 350 q 1210 283 1210 307 q 1239 156 1210 207 q 1336 104 1268 104 q 1386 115 1361 104 q 1427 156 1411 126 q 1443 236 1443 185 l 1443 783 q 1417 857 1443 833 q 1315 881 1390 881 q 1347 968 1315 932 l 1728 968 q 1751 928 1743 951 q 1760 881 1760 904 q 1690 865 1713 881 q 1668 810 1668 849 l 1668 317 q 1641 155 1668 219 q 1567 52 1614 90 q 1461 -2 1521 14 q 1336 -18 1401 -18 q 1283 -14 1314 -18 q 1222 -3 1251 -10 q 1174 14 1192 4 l 1114 -18 z "},"Ń":{"ha":1006,"x_min":36,"x_max":993,"o":"m 842 -8 q 738 11 769 -8 q 681 69 707 31 l 292 660 l 292 158 q 319 103 292 119 q 393 88 346 88 q 361 0 393 39 l 72 0 q 42 88 42 38 q 113 103 89 88 q 138 158 138 119 l 138 811 q 110 866 138 850 q 36 882 83 882 q 67 969 36 935 l 260 969 q 341 938 300 969 q 417 851 382 907 l 732 353 l 732 811 q 706 866 732 850 q 633 882 681 882 q 642 929 633 906 q 665 969 650 953 l 961 969 q 993 882 993 933 q 922 866 947 882 q 897 811 897 850 l 897 -8 l 842 -8 m 458 1024 q 410 1039 432 1024 q 385 1088 389 1054 q 479 1160 429 1117 q 575 1256 529 1203 q 651 1367 621 1310 q 716 1349 689 1367 q 758 1305 743 1331 q 772 1256 772 1279 q 738 1178 772 1218 q 651 1102 703 1138 q 547 1045 600 1067 q 458 1024 494 1024 z "},"Ň":{"ha":1006,"x_min":36,"x_max":993,"o":"m 842 -8 q 738 11 769 -8 q 681 69 707 31 l 292 660 l 292 158 q 319 103 292 119 q 393 88 346 88 q 361 0 393 39 l 72 0 q 42 88 42 38 q 113 103 89 88 q 138 158 138 119 l 138 811 q 110 866 138 850 q 36 882 83 882 q 67 969 36 935 l 260 969 q 341 938 300 969 q 417 851 382 907 l 732 353 l 732 811 q 706 866 732 850 q 633 882 681 882 q 642 929 633 906 q 665 969 650 953 l 961 969 q 993 882 993 933 q 922 866 947 882 q 897 811 897 850 l 897 -8 l 842 -8 m 450 1043 l 244 1269 q 272 1313 251 1293 q 319 1342 293 1332 l 503 1201 l 685 1342 q 732 1313 711 1332 q 761 1269 753 1293 l 556 1043 l 450 1043 z "},"Ṋ":{"ha":1006,"x_min":36,"x_max":993,"o":"m 842 -8 q 738 11 769 -8 q 681 69 707 31 l 292 660 l 292 158 q 319 103 292 119 q 393 88 346 88 q 361 0 393 39 l 72 0 q 42 88 42 38 q 113 103 89 88 q 138 158 138 119 l 138 811 q 110 866 138 850 q 36 882 83 882 q 67 969 36 935 l 260 969 q 341 938 300 969 q 417 851 382 907 l 732 353 l 732 811 q 706 866 732 850 q 633 882 681 882 q 642 929 633 906 q 665 969 650 953 l 961 969 q 993 882 993 933 q 922 866 947 882 q 897 811 897 850 l 897 -8 l 842 -8 m 318 -368 q 271 -339 292 -358 q 243 -297 250 -319 l 449 -69 l 554 -69 l 761 -297 q 732 -339 753 -319 q 685 -368 711 -358 l 501 -231 l 318 -368 z "},"Ņ":{"ha":1006,"x_min":36,"x_max":993,"o":"m 842 -8 q 738 11 769 -8 q 681 69 707 31 l 292 660 l 292 158 q 319 103 292 119 q 393 88 346 88 q 361 0 393 39 l 72 0 q 42 88 42 38 q 113 103 89 88 q 138 158 138 119 l 138 811 q 110 866 138 850 q 36 882 83 882 q 67 969 36 935 l 260 969 q 341 938 300 969 q 417 851 382 907 l 732 353 l 732 811 q 706 866 732 850 q 633 882 681 882 q 642 929 633 906 q 665 969 650 953 l 961 969 q 993 882 993 933 q 922 866 947 882 q 897 811 897 850 l 897 -8 l 842 -8 m 475 -479 q 450 -460 461 -475 q 439 -426 439 -444 q 488 -387 469 -410 q 506 -331 506 -364 q 503 -315 506 -326 q 494 -317 499 -317 q 486 -318 490 -318 q 408 -285 435 -318 q 381 -212 381 -253 q 412 -131 381 -161 q 493 -101 443 -101 q 587 -138 549 -101 q 625 -257 625 -175 q 613 -331 625 -286 q 569 -416 601 -375 q 475 -479 536 -457 z "},"Ṅ":{"ha":1006,"x_min":36,"x_max":993,"o":"m 842 -8 q 738 11 769 -8 q 681 69 707 31 l 292 660 l 292 158 q 319 103 292 119 q 393 88 346 88 q 361 0 393 39 l 72 0 q 42 88 42 38 q 113 103 89 88 q 138 158 138 119 l 138 811 q 110 866 138 850 q 36 882 83 882 q 67 969 36 935 l 260 969 q 341 938 300 969 q 417 851 382 907 l 732 353 l 732 811 q 706 866 732 850 q 633 882 681 882 q 642 929 633 906 q 665 969 650 953 l 961 969 q 993 882 993 933 q 922 866 947 882 q 897 811 897 850 l 897 -8 l 842 -8 m 501 1043 q 406 1078 442 1043 q 371 1174 371 1114 q 408 1268 371 1232 q 504 1304 444 1304 q 600 1268 565 1304 q 635 1174 635 1232 q 599 1078 635 1114 q 501 1043 563 1043 z "},"Ṇ":{"ha":1006,"x_min":36,"x_max":993,"o":"m 842 -8 q 738 11 769 -8 q 681 69 707 31 l 292 660 l 292 158 q 319 103 292 119 q 393 88 346 88 q 361 0 393 39 l 72 0 q 42 88 42 38 q 113 103 89 88 q 138 158 138 119 l 138 811 q 110 866 138 850 q 36 882 83 882 q 67 969 36 935 l 260 969 q 341 938 300 969 q 417 851 382 907 l 732 353 l 732 811 q 706 866 732 850 q 633 882 681 882 q 642 929 633 906 q 665 969 650 953 l 961 969 q 993 882 993 933 q 922 866 947 882 q 897 811 897 850 l 897 -8 l 842 -8 m 500 -362 q 405 -327 440 -362 q 369 -232 369 -292 q 406 -137 369 -174 q 503 -101 443 -101 q 599 -137 564 -101 q 635 -232 635 -174 q 598 -327 635 -292 q 500 -362 561 -362 z "},"Ǹ":{"ha":1006,"x_min":36,"x_max":993,"o":"m 842 -8 q 738 11 769 -8 q 681 69 707 31 l 292 660 l 292 158 q 319 103 292 119 q 393 88 346 88 q 361 0 393 39 l 72 0 q 42 88 42 38 q 113 103 89 88 q 138 158 138 119 l 138 811 q 110 866 138 850 q 36 882 83 882 q 67 969 36 935 l 260 969 q 341 938 300 969 q 417 851 382 907 l 732 353 l 732 811 q 706 866 732 850 q 633 882 681 882 q 642 929 633 906 q 665 969 650 953 l 961 969 q 993 882 993 933 q 922 866 947 882 q 897 811 897 850 l 897 -8 l 842 -8 m 622 1043 q 554 1058 594 1043 q 471 1097 514 1072 q 391 1151 428 1121 q 331 1213 354 1181 q 308 1275 308 1246 q 323 1324 308 1299 q 365 1368 338 1350 q 429 1386 393 1386 q 505 1276 460 1329 q 601 1179 550 1222 q 696 1107 651 1136 q 671 1058 692 1074 q 622 1043 650 1043 z "},"Ŋ":{"ha":982,"x_min":36,"x_max":993,"o":"m 674 -307 q 580 -283 610 -307 q 550 -232 550 -258 q 554 -210 550 -222 q 563 -192 558 -197 q 633 -178 599 -192 q 689 -131 667 -164 q 711 -40 711 -97 l 711 25 l 292 660 l 292 158 q 319 103 292 119 q 393 88 346 88 q 361 0 393 39 l 72 0 q 42 88 42 38 q 113 103 89 88 q 138 158 138 119 l 138 811 q 110 866 138 850 q 36 882 83 882 q 67 969 36 935 l 260 969 q 341 938 300 969 q 417 851 382 907 l 732 353 l 732 811 q 706 866 732 850 q 633 882 681 882 q 642 929 633 906 q 665 969 650 953 l 961 969 q 993 882 993 933 q 922 866 947 882 q 897 811 897 850 l 897 -50 q 867 -194 897 -137 q 785 -279 836 -251 q 674 -307 735 -307 z "},"ǋ":{"ha":1407,"x_min":36,"x_max":1346,"o":"m 842 -8 q 738 11 769 -8 q 681 69 707 31 l 292 660 l 292 158 q 319 103 292 119 q 393 88 346 88 q 361 0 393 39 l 72 0 q 42 88 42 38 q 113 103 89 88 q 138 158 138 119 l 138 811 q 110 866 138 850 q 36 882 83 882 q 67 969 36 935 l 260 969 q 341 938 300 969 q 417 851 382 907 l 732 353 l 732 811 q 706 866 732 850 q 633 882 681 882 q 642 929 633 906 q 665 969 650 953 l 961 969 q 993 882 993 933 q 922 866 947 882 q 897 811 897 850 l 897 -8 l 842 -8 m 1211 851 q 1116 887 1151 851 q 1081 982 1081 922 q 1117 1076 1081 1040 q 1214 1113 1154 1113 q 1310 1076 1275 1113 q 1346 982 1346 1040 q 1309 887 1346 922 q 1211 851 1272 851 m 1107 -271 q 1013 -247 1043 -271 q 983 -196 983 -222 q 988 -174 983 -186 q 996 -156 992 -161 q 1081 -123 1050 -156 q 1111 -4 1111 -90 l 1111 558 q 1094 608 1111 590 q 1019 626 1076 626 l 1019 689 q 1101 722 1054 707 q 1194 745 1149 736 q 1269 754 1240 754 q 1316 740 1303 754 q 1329 692 1329 726 l 1329 -14 q 1299 -158 1329 -101 q 1218 -243 1268 -215 q 1107 -271 1168 -271 z "},"Ṉ":{"ha":1006,"x_min":36,"x_max":993,"o":"m 842 -8 q 738 11 769 -8 q 681 69 707 31 l 292 660 l 292 158 q 319 103 292 119 q 393 88 346 88 q 361 0 393 39 l 72 0 q 42 88 42 38 q 113 103 89 88 q 138 158 138 119 l 138 811 q 110 866 138 850 q 36 882 83 882 q 67 969 36 935 l 260 969 q 341 938 300 969 q 417 851 382 907 l 732 353 l 732 811 q 706 866 732 850 q 633 882 681 882 q 642 929 633 906 q 665 969 650 953 l 961 969 q 993 882 993 933 q 922 866 947 882 q 897 811 897 850 l 897 -8 l 842 -8 m 285 -243 q 278 -212 281 -232 q 276 -175 276 -192 q 278 -135 276 -156 q 286 -104 281 -114 l 721 -104 q 727 -136 725 -115 q 729 -175 729 -157 q 727 -213 729 -193 q 722 -243 725 -233 l 285 -243 z "},"Ñ":{"ha":1006,"x_min":36,"x_max":993,"o":"m 842 -8 q 738 11 769 -8 q 681 69 707 31 l 292 660 l 292 158 q 319 103 292 119 q 393 88 346 88 q 361 0 393 39 l 72 0 q 42 88 42 38 q 113 103 89 88 q 138 158 138 119 l 138 811 q 110 866 138 850 q 36 882 83 882 q 67 969 36 935 l 260 969 q 341 938 300 969 q 417 851 382 907 l 732 353 l 732 811 q 706 866 732 850 q 633 882 681 882 q 642 929 633 906 q 665 969 650 953 l 961 969 q 993 882 993 933 q 922 866 947 882 q 897 811 897 850 l 897 -8 l 842 -8 m 592 1038 q 529 1051 554 1038 q 486 1082 504 1064 q 450 1113 468 1100 q 407 1126 432 1126 q 362 1117 385 1126 q 308 1072 339 1107 q 278 1075 297 1064 q 246 1107 260 1086 q 238 1149 232 1128 q 271 1208 246 1179 q 334 1255 296 1236 q 415 1274 372 1274 q 485 1260 458 1274 q 531 1229 513 1247 q 565 1198 549 1211 q 600 1185 581 1185 q 645 1194 624 1185 q 697 1238 667 1203 q 728 1235 708 1247 q 760 1203 747 1224 q 768 1161 774 1182 q 711 1077 757 1117 q 592 1038 665 1038 z "},"O":{"ha":929,"x_min":35,"x_max":894,"o":"m 464 -18 q 233 44 329 -18 q 86 220 138 107 q 35 483 35 333 q 88 755 35 643 q 237 926 140 867 q 463 986 333 986 q 694 924 597 986 q 842 748 790 861 q 894 483 894 635 q 841 213 894 325 q 691 42 788 101 q 464 -18 594 -18 m 464 83 q 526 100 496 83 q 582 160 557 117 q 622 283 607 203 q 636 489 636 363 q 614 731 636 646 q 553 850 592 817 q 467 883 515 883 q 404 867 435 883 q 349 807 374 850 q 309 685 324 764 q 294 479 294 606 q 317 236 294 322 q 378 117 339 150 q 464 83 417 83 z "},"Ó":{"ha":929,"x_min":35,"x_max":894,"o":"m 464 -18 q 233 44 329 -18 q 86 220 138 107 q 35 483 35 333 q 88 755 35 643 q 237 926 140 867 q 463 986 333 986 q 694 924 597 986 q 842 748 790 861 q 894 483 894 635 q 841 213 894 325 q 691 42 788 101 q 464 -18 594 -18 m 464 83 q 526 100 496 83 q 582 160 557 117 q 622 283 607 203 q 636 489 636 363 q 614 731 636 646 q 553 850 592 817 q 467 883 515 883 q 404 867 435 883 q 349 807 374 850 q 309 685 324 764 q 294 479 294 606 q 317 236 294 322 q 378 117 339 150 q 464 83 417 83 m 421 1038 q 373 1053 394 1038 q 347 1101 351 1068 q 442 1174 392 1131 q 538 1270 492 1217 q 614 1381 583 1324 q 678 1363 651 1381 q 720 1319 706 1344 q 735 1269 735 1293 q 700 1192 735 1232 q 614 1116 665 1151 q 510 1059 563 1081 q 421 1038 457 1038 z "},"Ŏ":{"ha":929,"x_min":35,"x_max":894,"o":"m 464 -18 q 233 44 329 -18 q 86 220 138 107 q 35 483 35 333 q 88 755 35 643 q 237 926 140 867 q 463 986 333 986 q 694 924 597 986 q 842 748 790 861 q 894 483 894 635 q 841 213 894 325 q 691 42 788 101 q 464 -18 594 -18 m 464 83 q 526 100 496 83 q 582 160 557 117 q 622 283 607 203 q 636 489 636 363 q 614 731 636 646 q 553 850 592 817 q 467 883 515 883 q 404 867 435 883 q 349 807 374 850 q 309 685 324 764 q 294 479 294 606 q 317 236 294 322 q 378 117 339 150 q 464 83 417 83 m 465 1057 q 283 1118 350 1057 q 215 1296 215 1179 q 237 1317 219 1310 q 274 1324 254 1324 q 311 1318 292 1324 q 338 1301 331 1313 q 372 1224 338 1254 q 465 1194 406 1194 q 559 1224 525 1194 q 593 1301 593 1254 q 620 1318 600 1313 q 657 1324 640 1324 q 695 1317 678 1324 q 715 1296 713 1310 q 648 1118 715 1179 q 465 1057 581 1057 z "},"Ǒ":{"ha":929,"x_min":35,"x_max":894,"o":"m 464 -18 q 233 44 329 -18 q 86 220 138 107 q 35 483 35 333 q 88 755 35 643 q 237 926 140 867 q 463 986 333 986 q 694 924 597 986 q 842 748 790 861 q 894 483 894 635 q 841 213 894 325 q 691 42 788 101 q 464 -18 594 -18 m 464 83 q 526 100 496 83 q 582 160 557 117 q 622 283 607 203 q 636 489 636 363 q 614 731 636 646 q 553 850 592 817 q 467 883 515 883 q 404 867 435 883 q 349 807 374 850 q 309 685 324 764 q 294 479 294 606 q 317 236 294 322 q 378 117 339 150 q 464 83 417 83 m 413 1057 l 207 1283 q 235 1326 214 1307 q 282 1356 256 1346 l 465 1215 l 647 1356 q 694 1326 674 1346 q 724 1283 715 1307 l 518 1057 l 413 1057 z "},"Ô":{"ha":929,"x_min":35,"x_max":894,"o":"m 464 -18 q 233 44 329 -18 q 86 220 138 107 q 35 483 35 333 q 88 755 35 643 q 237 926 140 867 q 463 986 333 986 q 694 924 597 986 q 842 748 790 861 q 894 483 894 635 q 841 213 894 325 q 691 42 788 101 q 464 -18 594 -18 m 464 83 q 526 100 496 83 q 582 160 557 117 q 622 283 607 203 q 636 489 636 363 q 614 731 636 646 q 553 850 592 817 q 467 883 515 883 q 404 867 435 883 q 349 807 374 850 q 309 685 324 764 q 294 479 294 606 q 317 236 294 322 q 378 117 339 150 q 464 83 417 83 m 281 1058 q 233 1088 254 1068 q 206 1129 213 1107 l 411 1357 l 517 1357 l 724 1129 q 694 1088 715 1107 q 647 1058 674 1068 l 464 1196 l 281 1058 z "},"Ố":{"ha":929,"x_min":35,"x_max":894,"o":"m 464 -18 q 233 44 329 -18 q 86 220 138 107 q 35 483 35 333 q 88 755 35 643 q 237 926 140 867 q 463 986 333 986 q 694 924 597 986 q 842 748 790 861 q 894 483 894 635 q 841 213 894 325 q 691 42 788 101 q 464 -18 594 -18 m 464 83 q 526 100 496 83 q 582 160 557 117 q 622 283 607 203 q 636 489 636 363 q 614 731 636 646 q 553 850 592 817 q 467 883 515 883 q 404 867 435 883 q 349 807 374 850 q 309 685 324 764 q 294 479 294 606 q 317 236 294 322 q 378 117 339 150 q 464 83 417 83 m 642 1257 q 606 1268 622 1257 q 588 1304 590 1279 q 688 1387 636 1336 q 774 1500 740 1438 q 839 1472 814 1500 q 864 1419 864 1444 q 840 1363 864 1392 q 779 1310 815 1335 q 706 1272 743 1286 q 642 1257 668 1257 m 293 1054 q 222 1121 239 1072 l 415 1307 l 515 1307 l 710 1121 q 683 1081 703 1099 q 638 1054 663 1063 l 465 1156 l 293 1054 z "},"Ộ":{"ha":929,"x_min":35,"x_max":894,"o":"m 464 -18 q 233 44 329 -18 q 86 220 138 107 q 35 483 35 333 q 88 755 35 643 q 237 926 140 867 q 463 986 333 986 q 694 924 597 986 q 842 748 790 861 q 894 483 894 635 q 841 213 894 325 q 691 42 788 101 q 464 -18 594 -18 m 464 83 q 526 100 496 83 q 582 160 557 117 q 622 283 607 203 q 636 489 636 363 q 614 731 636 646 q 553 850 592 817 q 467 883 515 883 q 404 867 435 883 q 349 807 374 850 q 309 685 324 764 q 294 479 294 606 q 317 236 294 322 q 378 117 339 150 q 464 83 417 83 m 463 -362 q 367 -327 403 -362 q 332 -232 332 -292 q 369 -137 332 -174 q 465 -101 406 -101 q 562 -137 526 -101 q 597 -232 597 -174 q 560 -327 597 -292 q 463 -362 524 -362 m 281 1058 q 233 1088 254 1068 q 206 1129 213 1107 l 411 1357 l 517 1357 l 724 1129 q 694 1088 715 1107 q 647 1058 674 1068 l 464 1196 l 281 1058 z "},"Ồ":{"ha":929,"x_min":35,"x_max":894,"o":"m 464 -18 q 233 44 329 -18 q 86 220 138 107 q 35 483 35 333 q 88 755 35 643 q 237 926 140 867 q 463 986 333 986 q 694 924 597 986 q 842 748 790 861 q 894 483 894 635 q 841 213 894 325 q 691 42 788 101 q 464 -18 594 -18 m 464 83 q 526 100 496 83 q 582 160 557 117 q 622 283 607 203 q 636 489 636 363 q 614 731 636 646 q 553 850 592 817 q 467 883 515 883 q 404 867 435 883 q 349 807 374 850 q 309 685 324 764 q 294 479 294 606 q 317 236 294 322 q 378 117 339 150 q 464 83 417 83 m 818 1217 q 754 1231 792 1217 q 681 1270 717 1246 q 620 1323 644 1294 q 596 1379 596 1351 q 621 1432 596 1404 q 686 1460 646 1460 q 771 1347 719 1397 q 872 1264 822 1296 q 853 1228 869 1239 q 818 1217 838 1217 m 293 1057 q 222 1124 239 1075 l 415 1310 l 515 1310 l 710 1124 q 683 1083 703 1101 q 638 1057 663 1065 l 465 1158 l 293 1057 z "},"Ổ":{"ha":929,"x_min":35,"x_max":894,"o":"m 464 -18 q 233 44 329 -18 q 86 220 138 107 q 35 483 35 333 q 88 755 35 643 q 237 926 140 867 q 463 986 333 986 q 694 924 597 986 q 842 748 790 861 q 894 483 894 635 q 841 213 894 325 q 691 42 788 101 q 464 -18 594 -18 m 464 83 q 526 100 496 83 q 582 160 557 117 q 622 283 607 203 q 636 489 636 363 q 614 731 636 646 q 553 850 592 817 q 467 883 515 883 q 404 867 435 883 q 349 807 374 850 q 309 685 324 764 q 294 479 294 606 q 317 236 294 322 q 378 117 339 150 q 464 83 417 83 m 707 1244 q 667 1247 682 1244 q 632 1254 651 1250 l 614 1315 q 631 1313 621 1314 q 650 1313 640 1313 q 704 1324 678 1313 q 731 1371 731 1336 q 710 1407 731 1390 q 654 1424 690 1424 q 616 1417 636 1424 q 572 1399 596 1410 l 547 1474 q 603 1503 561 1486 q 688 1519 644 1519 q 760 1508 721 1519 q 827 1466 799 1496 q 856 1382 856 1436 q 838 1318 856 1350 q 788 1265 821 1286 q 707 1244 754 1244 m 297 1054 q 226 1121 243 1072 l 419 1307 l 519 1307 l 714 1121 q 687 1081 707 1099 q 642 1054 667 1063 l 469 1156 l 297 1054 z "},"Ỗ":{"ha":929,"x_min":35,"x_max":894,"o":"m 464 -18 q 233 44 329 -18 q 86 220 138 107 q 35 483 35 333 q 88 755 35 643 q 237 926 140 867 q 463 986 333 986 q 694 924 597 986 q 842 748 790 861 q 894 483 894 635 q 841 213 894 325 q 691 42 788 101 q 464 -18 594 -18 m 464 83 q 526 100 496 83 q 582 160 557 117 q 622 283 607 203 q 636 489 636 363 q 614 731 636 646 q 553 850 592 817 q 467 883 515 883 q 404 867 435 883 q 349 807 374 850 q 309 685 324 764 q 294 479 294 606 q 317 236 294 322 q 378 117 339 150 q 464 83 417 83 m 536 1335 q 474 1351 497 1335 q 433 1385 451 1368 q 388 1403 414 1401 q 304 1356 350 1406 q 281 1357 296 1349 q 255 1382 265 1365 q 249 1414 244 1399 q 276 1460 256 1438 q 328 1500 297 1483 q 394 1517 360 1517 q 465 1501 440 1518 q 506 1466 489 1483 q 543 1449 522 1449 q 583 1460 563 1449 q 626 1497 603 1471 q 651 1496 636 1504 q 676 1471 665 1488 q 682 1438 688 1454 q 633 1369 672 1403 q 536 1335 594 1335 m 292 1054 q 221 1121 238 1072 l 414 1307 l 514 1307 l 708 1121 q 681 1081 701 1099 q 636 1054 661 1063 l 464 1156 l 292 1054 z "},"Ȍ":{"ha":929,"x_min":35,"x_max":894,"o":"m 464 -18 q 233 44 329 -18 q 86 220 138 107 q 35 483 35 333 q 88 755 35 643 q 237 926 140 867 q 463 986 333 986 q 694 924 597 986 q 842 748 790 861 q 894 483 894 635 q 841 213 894 325 q 691 42 788 101 q 464 -18 594 -18 m 464 83 q 526 100 496 83 q 582 160 557 117 q 622 283 607 203 q 636 489 636 363 q 614 731 636 646 q 553 850 592 817 q 467 883 515 883 q 404 867 435 883 q 349 807 374 850 q 309 685 324 764 q 294 479 294 606 q 317 236 294 322 q 378 117 339 150 q 464 83 417 83 m 632 1057 q 553 1085 597 1057 q 467 1158 508 1114 q 400 1248 426 1201 q 374 1332 374 1294 q 403 1386 374 1367 q 488 1406 433 1406 q 542 1301 519 1349 q 594 1210 565 1253 q 667 1121 622 1167 q 660 1072 663 1086 q 632 1057 658 1057 m 353 1057 q 269 1084 318 1057 q 175 1154 221 1111 q 99 1243 129 1197 q 68 1326 68 1289 q 99 1381 68 1361 q 183 1400 129 1400 q 276 1239 231 1314 q 388 1121 321 1164 q 381 1072 383 1086 q 353 1057 379 1057 z "},"Ö":{"ha":929,"x_min":35,"x_max":894,"o":"m 464 -18 q 233 44 329 -18 q 86 220 138 107 q 35 483 35 333 q 88 755 35 643 q 237 926 140 867 q 463 986 333 986 q 694 924 597 986 q 842 748 790 861 q 894 483 894 635 q 841 213 894 325 q 691 42 788 101 q 464 -18 594 -18 m 464 83 q 526 100 496 83 q 582 160 557 117 q 622 283 607 203 q 636 489 636 363 q 614 731 636 646 q 553 850 592 817 q 467 883 515 883 q 404 867 435 883 q 349 807 374 850 q 309 685 324 764 q 294 479 294 606 q 317 236 294 322 q 378 117 339 150 q 464 83 417 83 m 635 1057 q 553 1097 582 1057 q 524 1189 524 1136 q 553 1280 524 1242 q 635 1318 582 1318 q 718 1280 689 1318 q 747 1189 747 1242 q 718 1097 747 1136 q 635 1057 689 1057 m 296 1057 q 213 1097 242 1057 q 183 1189 183 1136 q 213 1280 183 1242 q 296 1318 242 1318 q 378 1280 349 1318 q 407 1189 407 1242 q 378 1097 407 1136 q 296 1057 349 1057 z "},"Ȫ":{"ha":929,"x_min":35,"x_max":894,"o":"m 464 -18 q 233 44 329 -18 q 86 220 138 107 q 35 483 35 333 q 88 755 35 643 q 237 926 140 867 q 463 986 333 986 q 694 924 597 986 q 842 748 790 861 q 894 483 894 635 q 841 213 894 325 q 691 42 788 101 q 464 -18 594 -18 m 464 83 q 526 100 496 83 q 582 160 557 117 q 622 283 607 203 q 636 489 636 363 q 614 731 636 646 q 553 850 592 817 q 467 883 515 883 q 404 867 435 883 q 349 807 374 850 q 309 685 324 764 q 294 479 294 606 q 317 236 294 322 q 378 117 339 150 q 464 83 417 83 m 635 1057 q 553 1097 582 1057 q 524 1189 524 1136 q 553 1280 524 1242 q 635 1318 582 1318 q 718 1280 689 1318 q 747 1189 747 1242 q 718 1097 747 1136 q 635 1057 689 1057 m 296 1057 q 213 1097 242 1057 q 183 1189 183 1136 q 213 1280 183 1242 q 296 1318 242 1318 q 378 1280 349 1318 q 407 1189 407 1242 q 378 1097 407 1136 q 296 1057 349 1057 m 247 1360 q 241 1388 243 1371 q 239 1421 239 1404 q 241 1458 239 1440 q 249 1485 243 1475 l 683 1485 q 690 1456 688 1474 q 692 1421 692 1439 q 685 1360 692 1381 l 247 1360 z "},"Ȯ":{"ha":929,"x_min":35,"x_max":894,"o":"m 464 -18 q 233 44 329 -18 q 86 220 138 107 q 35 483 35 333 q 88 755 35 643 q 237 926 140 867 q 463 986 333 986 q 694 924 597 986 q 842 748 790 861 q 894 483 894 635 q 841 213 894 325 q 691 42 788 101 q 464 -18 594 -18 m 464 83 q 526 100 496 83 q 582 160 557 117 q 622 283 607 203 q 636 489 636 363 q 614 731 636 646 q 553 850 592 817 q 467 883 515 883 q 404 867 435 883 q 349 807 374 850 q 309 685 324 764 q 294 479 294 606 q 317 236 294 322 q 378 117 339 150 q 464 83 417 83 m 464 1057 q 369 1092 404 1057 q 333 1188 333 1128 q 370 1282 333 1246 q 467 1318 407 1318 q 563 1282 528 1318 q 597 1188 597 1246 q 561 1092 597 1128 q 464 1057 525 1057 z "},"Ȱ":{"ha":929,"x_min":35,"x_max":894,"o":"m 464 -18 q 233 44 329 -18 q 86 220 138 107 q 35 483 35 333 q 88 755 35 643 q 237 926 140 867 q 463 986 333 986 q 694 924 597 986 q 842 748 790 861 q 894 483 894 635 q 841 213 894 325 q 691 42 788 101 q 464 -18 594 -18 m 464 83 q 526 100 496 83 q 582 160 557 117 q 622 283 607 203 q 636 489 636 363 q 614 731 636 646 q 553 850 592 817 q 467 883 515 883 q 404 867 435 883 q 349 807 374 850 q 309 685 324 764 q 294 479 294 606 q 317 236 294 322 q 378 117 339 150 q 464 83 417 83 m 464 1057 q 369 1092 404 1057 q 333 1188 333 1128 q 370 1282 333 1246 q 467 1318 407 1318 q 563 1282 528 1318 q 597 1188 597 1246 q 561 1092 597 1128 q 464 1057 525 1057 m 247 1361 q 241 1389 243 1372 q 239 1422 239 1406 q 241 1459 239 1442 q 249 1486 243 1476 l 683 1486 q 690 1458 688 1475 q 692 1422 692 1440 q 685 1361 692 1382 l 247 1361 z "},"Ọ":{"ha":929,"x_min":35,"x_max":894,"o":"m 464 -18 q 233 44 329 -18 q 86 220 138 107 q 35 483 35 333 q 88 755 35 643 q 237 926 140 867 q 463 986 333 986 q 694 924 597 986 q 842 748 790 861 q 894 483 894 635 q 841 213 894 325 q 691 42 788 101 q 464 -18 594 -18 m 464 83 q 526 100 496 83 q 582 160 557 117 q 622 283 607 203 q 636 489 636 363 q 614 731 636 646 q 553 850 592 817 q 467 883 515 883 q 404 867 435 883 q 349 807 374 850 q 309 685 324 764 q 294 479 294 606 q 317 236 294 322 q 378 117 339 150 q 464 83 417 83 m 463 -362 q 367 -327 403 -362 q 332 -232 332 -292 q 369 -137 332 -174 q 465 -101 406 -101 q 562 -137 526 -101 q 597 -232 597 -174 q 560 -327 597 -292 q 463 -362 524 -362 z "},"Ò":{"ha":929,"x_min":35,"x_max":894,"o":"m 464 -18 q 233 44 329 -18 q 86 220 138 107 q 35 483 35 333 q 88 755 35 643 q 237 926 140 867 q 463 986 333 986 q 694 924 597 986 q 842 748 790 861 q 894 483 894 635 q 841 213 894 325 q 691 42 788 101 q 464 -18 594 -18 m 464 83 q 526 100 496 83 q 582 160 557 117 q 622 283 607 203 q 636 489 636 363 q 614 731 636 646 q 553 850 592 817 q 467 883 515 883 q 404 867 435 883 q 349 807 374 850 q 309 685 324 764 q 294 479 294 606 q 317 236 294 322 q 378 117 339 150 q 464 83 417 83 m 585 1057 q 517 1072 557 1057 q 433 1110 476 1086 q 353 1165 390 1135 q 294 1227 317 1194 q 271 1289 271 1260 q 285 1338 271 1313 q 328 1382 300 1364 q 392 1400 356 1400 q 467 1290 422 1343 q 563 1193 513 1236 q 658 1121 614 1150 q 633 1072 654 1088 q 585 1057 613 1057 z "},"Ỏ":{"ha":929,"x_min":35,"x_max":894,"o":"m 464 -18 q 233 44 329 -18 q 86 220 138 107 q 35 483 35 333 q 88 755 35 643 q 237 926 140 867 q 463 986 333 986 q 694 924 597 986 q 842 748 790 861 q 894 483 894 635 q 841 213 894 325 q 691 42 788 101 q 464 -18 594 -18 m 464 83 q 526 100 496 83 q 582 160 557 117 q 622 283 607 203 q 636 489 636 363 q 614 731 636 646 q 553 850 592 817 q 467 883 515 883 q 404 867 435 883 q 349 807 374 850 q 309 685 324 764 q 294 479 294 606 q 317 236 294 322 q 378 117 339 150 q 464 83 417 83 m 472 1033 q 418 1038 439 1033 q 371 1047 397 1042 l 346 1131 q 369 1127 357 1129 q 394 1125 381 1125 q 469 1142 433 1125 q 506 1206 506 1158 q 478 1256 506 1233 q 401 1278 450 1278 q 349 1268 375 1278 q 290 1243 322 1258 l 256 1344 q 298 1372 268 1357 q 367 1397 328 1386 q 447 1407 407 1407 q 520 1399 481 1407 q 595 1369 560 1390 q 653 1312 631 1349 q 675 1219 675 1275 q 651 1133 675 1176 q 583 1062 628 1090 q 472 1033 538 1033 z "},"Ơ":{"ha":929,"x_min":35,"x_max":915,"o":"m 464 -18 q 233 44 329 -18 q 86 220 138 107 q 35 483 35 333 q 88 755 35 643 q 237 926 140 867 q 463 986 333 986 q 694 924 597 986 q 842 748 790 861 q 894 483 894 635 q 841 213 894 325 q 691 42 788 101 q 464 -18 594 -18 m 464 83 q 526 100 496 83 q 582 160 557 117 q 622 283 607 203 q 636 489 636 363 q 614 731 636 646 q 553 850 592 817 q 467 883 515 883 q 404 867 435 883 q 349 807 374 850 q 309 685 324 764 q 294 479 294 606 q 317 236 294 322 q 378 117 339 150 q 464 83 417 83 m 693 874 l 571 969 l 683 969 q 742 979 717 969 q 778 1020 767 989 q 781 1113 790 1051 l 865 1113 q 905 1065 894 1090 q 915 1003 915 1039 q 892 927 915 956 q 835 886 868 899 q 772 874 801 874 l 693 874 z "},"Ớ":{"ha":929,"x_min":35,"x_max":915,"o":"m 464 -18 q 233 44 329 -18 q 86 220 138 107 q 35 483 35 333 q 88 755 35 643 q 237 926 140 867 q 463 986 333 986 q 694 924 597 986 q 842 748 790 861 q 894 483 894 635 q 841 213 894 325 q 691 42 788 101 q 464 -18 594 -18 m 464 83 q 526 100 496 83 q 582 160 557 117 q 622 283 607 203 q 636 489 636 363 q 614 731 636 646 q 553 850 592 817 q 467 883 515 883 q 404 867 435 883 q 349 807 374 850 q 309 685 324 764 q 294 479 294 606 q 317 236 294 322 q 378 117 339 150 q 464 83 417 83 m 693 874 l 571 969 l 683 969 q 742 979 717 969 q 778 1020 767 989 q 781 1113 790 1051 l 865 1113 q 905 1065 894 1090 q 915 1003 915 1039 q 892 927 915 956 q 835 886 868 899 q 772 874 801 874 l 693 874 m 421 1038 q 373 1053 394 1038 q 347 1101 351 1068 q 442 1174 392 1131 q 538 1270 492 1217 q 614 1381 583 1324 q 678 1363 651 1381 q 720 1319 706 1344 q 735 1269 735 1293 q 700 1192 735 1232 q 614 1116 665 1151 q 510 1059 563 1081 q 421 1038 457 1038 z "},"Ợ":{"ha":929,"x_min":35,"x_max":915,"o":"m 464 -18 q 233 44 329 -18 q 86 220 138 107 q 35 483 35 333 q 88 755 35 643 q 237 926 140 867 q 463 986 333 986 q 694 924 597 986 q 842 748 790 861 q 894 483 894 635 q 841 213 894 325 q 691 42 788 101 q 464 -18 594 -18 m 464 83 q 526 100 496 83 q 582 160 557 117 q 622 283 607 203 q 636 489 636 363 q 614 731 636 646 q 553 850 592 817 q 467 883 515 883 q 404 867 435 883 q 349 807 374 850 q 309 685 324 764 q 294 479 294 606 q 317 236 294 322 q 378 117 339 150 q 464 83 417 83 m 693 874 l 571 969 l 683 969 q 742 979 717 969 q 778 1020 767 989 q 781 1113 790 1051 l 865 1113 q 905 1065 894 1090 q 915 1003 915 1039 q 892 927 915 956 q 835 886 868 899 q 772 874 801 874 l 693 874 m 463 -362 q 367 -327 403 -362 q 332 -232 332 -292 q 369 -137 332 -174 q 465 -101 406 -101 q 562 -137 526 -101 q 597 -232 597 -174 q 560 -327 597 -292 q 463 -362 524 -362 z "},"Ờ":{"ha":929,"x_min":35,"x_max":915,"o":"m 464 -18 q 233 44 329 -18 q 86 220 138 107 q 35 483 35 333 q 88 755 35 643 q 237 926 140 867 q 463 986 333 986 q 694 924 597 986 q 842 748 790 861 q 894 483 894 635 q 841 213 894 325 q 691 42 788 101 q 464 -18 594 -18 m 464 83 q 526 100 496 83 q 582 160 557 117 q 622 283 607 203 q 636 489 636 363 q 614 731 636 646 q 553 850 592 817 q 467 883 515 883 q 404 867 435 883 q 349 807 374 850 q 309 685 324 764 q 294 479 294 606 q 317 236 294 322 q 378 117 339 150 q 464 83 417 83 m 693 874 l 571 969 l 683 969 q 742 979 717 969 q 778 1020 767 989 q 781 1113 790 1051 l 865 1113 q 905 1065 894 1090 q 915 1003 915 1039 q 892 927 915 956 q 835 886 868 899 q 772 874 801 874 l 693 874 m 585 1057 q 517 1072 557 1057 q 433 1110 476 1086 q 353 1165 390 1135 q 294 1227 317 1194 q 271 1289 271 1260 q 285 1338 271 1313 q 328 1382 300 1364 q 392 1400 356 1400 q 467 1290 422 1343 q 563 1193 513 1236 q 658 1121 614 1150 q 633 1072 654 1088 q 585 1057 613 1057 z "},"Ở":{"ha":929,"x_min":35,"x_max":915,"o":"m 464 -18 q 233 44 329 -18 q 86 220 138 107 q 35 483 35 333 q 88 755 35 643 q 237 926 140 867 q 463 986 333 986 q 694 924 597 986 q 842 748 790 861 q 894 483 894 635 q 841 213 894 325 q 691 42 788 101 q 464 -18 594 -18 m 464 83 q 526 100 496 83 q 582 160 557 117 q 622 283 607 203 q 636 489 636 363 q 614 731 636 646 q 553 850 592 817 q 467 883 515 883 q 404 867 435 883 q 349 807 374 850 q 309 685 324 764 q 294 479 294 606 q 317 236 294 322 q 378 117 339 150 q 464 83 417 83 m 693 874 l 571 969 l 683 969 q 742 979 717 969 q 778 1020 767 989 q 781 1113 790 1051 l 865 1113 q 905 1065 894 1090 q 915 1003 915 1039 q 892 927 915 956 q 835 886 868 899 q 772 874 801 874 l 693 874 m 472 1033 q 418 1038 439 1033 q 371 1047 397 1042 l 346 1131 q 369 1127 357 1129 q 394 1125 381 1125 q 469 1142 433 1125 q 506 1206 506 1158 q 478 1256 506 1233 q 401 1278 450 1278 q 349 1268 375 1278 q 290 1243 322 1258 l 256 1344 q 298 1372 268 1357 q 367 1397 328 1386 q 447 1407 407 1407 q 520 1399 481 1407 q 595 1369 560 1390 q 653 1312 631 1349 q 675 1219 675 1275 q 651 1133 675 1176 q 583 1062 628 1090 q 472 1033 538 1033 z "},"Ỡ":{"ha":929,"x_min":35,"x_max":915,"o":"m 464 -18 q 233 44 329 -18 q 86 220 138 107 q 35 483 35 333 q 88 755 35 643 q 237 926 140 867 q 463 986 333 986 q 694 924 597 986 q 842 748 790 861 q 894 483 894 635 q 841 213 894 325 q 691 42 788 101 q 464 -18 594 -18 m 464 83 q 526 100 496 83 q 582 160 557 117 q 622 283 607 203 q 636 489 636 363 q 614 731 636 646 q 553 850 592 817 q 467 883 515 883 q 404 867 435 883 q 349 807 374 850 q 309 685 324 764 q 294 479 294 606 q 317 236 294 322 q 378 117 339 150 q 464 83 417 83 m 693 874 l 571 969 l 683 969 q 742 979 717 969 q 778 1020 767 989 q 781 1113 790 1051 l 865 1113 q 905 1065 894 1090 q 915 1003 915 1039 q 892 927 915 956 q 835 886 868 899 q 772 874 801 874 l 693 874 m 554 1051 q 492 1065 517 1051 q 449 1096 467 1078 q 413 1127 431 1114 q 369 1140 394 1140 q 324 1131 347 1140 q 271 1086 301 1121 q 241 1089 260 1078 q 208 1121 222 1100 q 200 1163 194 1142 q 233 1222 208 1193 q 297 1269 258 1250 q 378 1288 335 1288 q 448 1274 421 1288 q 493 1243 475 1261 q 527 1212 511 1225 q 563 1199 543 1199 q 608 1208 586 1199 q 660 1251 629 1217 q 690 1249 671 1261 q 723 1217 710 1238 q 731 1175 736 1196 q 674 1091 719 1131 q 554 1051 628 1051 z "},"Ő":{"ha":929,"x_min":35,"x_max":894,"o":"m 464 -18 q 233 44 329 -18 q 86 220 138 107 q 35 483 35 333 q 88 755 35 643 q 237 926 140 867 q 463 986 333 986 q 694 924 597 986 q 842 748 790 861 q 894 483 894 635 q 841 213 894 325 q 691 42 788 101 q 464 -18 594 -18 m 464 83 q 526 100 496 83 q 582 160 557 117 q 622 283 607 203 q 636 489 636 363 q 614 731 636 646 q 553 850 592 817 q 467 883 515 883 q 404 867 435 883 q 349 807 374 850 q 309 685 324 764 q 294 479 294 606 q 317 236 294 322 q 378 117 339 150 q 464 83 417 83 m 313 1051 q 283 1066 286 1051 q 276 1115 281 1081 q 350 1204 322 1161 q 401 1295 378 1247 q 456 1400 425 1343 q 541 1381 511 1400 q 571 1326 571 1361 q 544 1242 571 1289 q 477 1152 518 1196 q 392 1080 436 1108 q 313 1051 349 1051 m 590 1051 q 562 1066 564 1051 q 556 1115 560 1081 q 668 1233 622 1158 q 760 1394 714 1308 q 845 1375 815 1394 q 875 1321 875 1356 q 844 1238 875 1283 q 768 1149 814 1192 q 674 1078 722 1106 q 590 1051 626 1051 z "},"Ȏ":{"ha":929,"x_min":35,"x_max":894,"o":"m 464 -18 q 233 44 329 -18 q 86 220 138 107 q 35 483 35 333 q 88 755 35 643 q 237 926 140 867 q 463 986 333 986 q 694 924 597 986 q 842 748 790 861 q 894 483 894 635 q 841 213 894 325 q 691 42 788 101 q 464 -18 594 -18 m 464 83 q 526 100 496 83 q 582 160 557 117 q 622 283 607 203 q 636 489 636 363 q 614 731 636 646 q 553 850 592 817 q 467 883 515 883 q 404 867 435 883 q 349 807 374 850 q 309 685 324 764 q 294 479 294 606 q 317 236 294 322 q 378 117 339 150 q 464 83 417 83 m 274 1038 q 237 1044 254 1038 q 215 1065 219 1051 q 283 1252 215 1182 q 465 1322 350 1322 q 648 1252 581 1322 q 715 1065 715 1182 q 695 1044 713 1051 q 657 1038 678 1038 q 620 1043 640 1038 q 593 1060 600 1049 q 559 1146 593 1107 q 465 1185 525 1185 q 372 1146 406 1185 q 338 1060 338 1107 q 311 1043 331 1049 q 274 1038 292 1038 z "},"Ō":{"ha":929,"x_min":35,"x_max":894,"o":"m 464 -18 q 233 44 329 -18 q 86 220 138 107 q 35 483 35 333 q 88 755 35 643 q 237 926 140 867 q 463 986 333 986 q 694 924 597 986 q 842 748 790 861 q 894 483 894 635 q 841 213 894 325 q 691 42 788 101 q 464 -18 594 -18 m 464 83 q 526 100 496 83 q 582 160 557 117 q 622 283 607 203 q 636 489 636 363 q 614 731 636 646 q 553 850 592 817 q 467 883 515 883 q 404 867 435 883 q 349 807 374 850 q 309 685 324 764 q 294 479 294 606 q 317 236 294 322 q 378 117 339 150 q 464 83 417 83 m 247 1081 q 241 1108 243 1092 q 239 1142 239 1125 q 241 1178 239 1161 q 249 1206 243 1196 l 683 1206 q 690 1177 688 1194 q 692 1142 692 1160 q 685 1081 692 1101 l 247 1081 z "},"Ṓ":{"ha":929,"x_min":35,"x_max":894,"o":"m 464 -18 q 233 44 329 -18 q 86 220 138 107 q 35 483 35 333 q 88 755 35 643 q 237 926 140 867 q 463 986 333 986 q 694 924 597 986 q 842 748 790 861 q 894 483 894 635 q 841 213 894 325 q 691 42 788 101 q 464 -18 594 -18 m 464 83 q 526 100 496 83 q 582 160 557 117 q 622 283 607 203 q 636 489 636 363 q 614 731 636 646 q 553 850 592 817 q 467 883 515 883 q 404 867 435 883 q 349 807 374 850 q 309 685 324 764 q 294 479 294 606 q 317 236 294 322 q 378 117 339 150 q 464 83 417 83 m 247 1081 q 241 1108 243 1092 q 239 1142 239 1125 q 241 1178 239 1161 q 249 1206 243 1196 l 683 1206 q 690 1177 688 1194 q 692 1142 692 1160 q 685 1081 692 1101 l 247 1081 m 421 1232 q 373 1247 394 1232 q 347 1296 351 1263 q 442 1368 392 1325 q 538 1465 492 1411 q 614 1575 583 1518 q 678 1557 651 1575 q 720 1513 706 1539 q 735 1464 735 1488 q 700 1386 735 1426 q 614 1310 665 1346 q 510 1253 563 1275 q 421 1232 457 1232 z "},"Ṑ":{"ha":929,"x_min":35,"x_max":894,"o":"m 464 -18 q 233 44 329 -18 q 86 220 138 107 q 35 483 35 333 q 88 755 35 643 q 237 926 140 867 q 463 986 333 986 q 694 924 597 986 q 842 748 790 861 q 894 483 894 635 q 841 213 894 325 q 691 42 788 101 q 464 -18 594 -18 m 464 83 q 526 100 496 83 q 582 160 557 117 q 622 283 607 203 q 636 489 636 363 q 614 731 636 646 q 553 850 592 817 q 467 883 515 883 q 404 867 435 883 q 349 807 374 850 q 309 685 324 764 q 294 479 294 606 q 317 236 294 322 q 378 117 339 150 q 464 83 417 83 m 247 1081 q 241 1108 243 1092 q 239 1142 239 1125 q 241 1178 239 1161 q 249 1206 243 1196 l 683 1206 q 690 1177 688 1194 q 692 1142 692 1160 q 685 1081 692 1101 l 247 1081 m 585 1251 q 517 1266 557 1251 q 433 1305 476 1281 q 353 1359 390 1329 q 294 1422 317 1389 q 271 1483 271 1454 q 285 1533 271 1507 q 328 1576 300 1558 q 392 1594 356 1594 q 467 1484 422 1538 q 563 1388 513 1431 q 658 1315 614 1344 q 633 1267 654 1282 q 585 1251 613 1251 z "},"Ǫ":{"ha":938,"x_min":35,"x_max":894,"o":"m 538 -317 q 453 -301 494 -317 q 384 -251 411 -286 q 357 -160 357 -217 q 375 -78 357 -114 q 422 -17 393 -43 q 213 58 300 -7 q 81 231 126 122 q 35 483 35 340 q 88 755 35 643 q 237 926 140 867 q 463 986 333 986 q 694 924 597 986 q 842 748 790 861 q 894 483 894 635 q 812 161 894 286 q 589 -3 729 36 q 533 -53 551 -22 q 515 -118 515 -83 q 543 -160 515 -149 q 603 -172 571 -172 q 658 -165 632 -172 q 697 -147 685 -157 q 706 -172 704 -157 q 708 -200 708 -187 q 703 -238 708 -219 q 683 -272 699 -257 q 626 -303 665 -290 q 538 -317 586 -317 m 464 83 q 526 100 496 83 q 582 160 557 117 q 622 283 607 203 q 636 489 636 363 q 614 731 636 646 q 553 850 592 817 q 467 883 515 883 q 404 867 435 883 q 349 807 374 850 q 309 685 324 764 q 294 479 294 606 q 317 236 294 322 q 378 117 339 150 q 464 83 417 83 z "},"Ø":{"ha":929,"x_min":35,"x_max":894,"o":"m 117 -36 q 72 -15 94 -33 q 60 -1 64 -8 q 53 14 56 6 l 140 129 q 35 483 35 264 q 88 755 35 643 q 238 926 142 867 q 463 986 333 986 q 610 963 543 986 q 729 899 676 940 l 813 1008 q 831 1003 821 1007 q 850 992 842 999 q 868 974 861 983 q 879 957 875 965 l 788 839 q 894 483 894 704 q 841 213 894 325 q 691 42 788 101 q 464 -18 594 -18 q 317 5 383 -18 q 199 71 250 28 l 117 -36 m 294 479 q 303 321 294 389 l 607 757 q 547 856 583 829 q 467 883 511 883 q 404 867 435 883 q 349 807 374 850 q 309 685 324 764 q 294 479 294 606 m 464 83 q 526 100 496 83 q 582 160 557 117 q 622 283 607 203 q 636 489 636 363 q 628 653 636 583 l 322 215 q 383 112 346 140 q 464 83 419 83 z "},"Ǿ":{"ha":929,"x_min":35,"x_max":894,"o":"m 117 -36 q 72 -15 94 -33 q 60 -1 64 -8 q 53 14 56 6 l 140 129 q 35 483 35 264 q 88 755 35 643 q 238 926 142 867 q 463 986 333 986 q 610 963 543 986 q 729 899 676 940 l 813 1008 q 831 1003 821 1007 q 850 992 842 999 q 868 974 861 983 q 879 957 875 965 l 788 839 q 894 483 894 704 q 841 213 894 325 q 691 42 788 101 q 464 -18 594 -18 q 317 5 383 -18 q 199 71 250 28 l 117 -36 m 294 479 q 303 321 294 389 l 607 757 q 547 856 583 829 q 467 883 511 883 q 404 867 435 883 q 349 807 374 850 q 309 685 324 764 q 294 479 294 606 m 464 83 q 526 100 496 83 q 582 160 557 117 q 622 283 607 203 q 636 489 636 363 q 628 653 636 583 l 322 215 q 383 112 346 140 q 464 83 419 83 m 421 1038 q 373 1053 394 1038 q 347 1101 351 1068 q 442 1174 392 1131 q 538 1270 492 1217 q 614 1381 583 1324 q 678 1363 651 1381 q 720 1319 706 1344 q 735 1269 735 1293 q 700 1192 735 1232 q 614 1116 665 1151 q 510 1059 563 1081 q 421 1038 457 1038 z "},"Õ":{"ha":929,"x_min":35,"x_max":894,"o":"m 464 -18 q 233 44 329 -18 q 86 220 138 107 q 35 483 35 333 q 88 755 35 643 q 237 926 140 867 q 463 986 333 986 q 694 924 597 986 q 842 748 790 861 q 894 483 894 635 q 841 213 894 325 q 691 42 788 101 q 464 -18 594 -18 m 464 83 q 526 100 496 83 q 582 160 557 117 q 622 283 607 203 q 636 489 636 363 q 614 731 636 646 q 553 850 592 817 q 467 883 515 883 q 404 867 435 883 q 349 807 374 850 q 309 685 324 764 q 294 479 294 606 q 317 236 294 322 q 378 117 339 150 q 464 83 417 83 m 554 1051 q 492 1065 517 1051 q 449 1096 467 1078 q 413 1127 431 1114 q 369 1140 394 1140 q 324 1131 347 1140 q 271 1086 301 1121 q 241 1089 260 1078 q 208 1121 222 1100 q 200 1163 194 1142 q 233 1222 208 1193 q 297 1269 258 1250 q 378 1288 335 1288 q 448 1274 421 1288 q 493 1243 475 1261 q 527 1212 511 1225 q 563 1199 543 1199 q 608 1208 586 1199 q 660 1251 629 1217 q 690 1249 671 1261 q 723 1217 710 1238 q 731 1175 736 1196 q 674 1091 719 1131 q 554 1051 628 1051 z "},"Ṍ":{"ha":929,"x_min":35,"x_max":894,"o":"m 464 -18 q 233 44 329 -18 q 86 220 138 107 q 35 483 35 333 q 88 755 35 643 q 237 926 140 867 q 463 986 333 986 q 694 924 597 986 q 842 748 790 861 q 894 483 894 635 q 841 213 894 325 q 691 42 788 101 q 464 -18 594 -18 m 464 83 q 526 100 496 83 q 582 160 557 117 q 622 283 607 203 q 636 489 636 363 q 614 731 636 646 q 553 850 592 817 q 467 883 515 883 q 404 867 435 883 q 349 807 374 850 q 309 685 324 764 q 294 479 294 606 q 317 236 294 322 q 378 117 339 150 q 464 83 417 83 m 554 1051 q 492 1065 517 1051 q 449 1096 467 1078 q 413 1127 431 1114 q 369 1140 394 1140 q 324 1131 347 1140 q 271 1086 301 1121 q 241 1089 260 1078 q 208 1121 222 1100 q 200 1163 194 1142 q 233 1222 208 1193 q 297 1269 258 1250 q 378 1288 335 1288 q 448 1274 421 1288 q 493 1243 475 1261 q 527 1212 511 1225 q 563 1199 543 1199 q 608 1208 586 1199 q 660 1251 629 1217 q 690 1249 671 1261 q 723 1217 710 1238 q 731 1175 736 1196 q 674 1091 719 1131 q 554 1051 628 1051 m 421 1314 q 373 1329 394 1314 q 347 1378 351 1344 q 442 1450 392 1407 q 538 1547 492 1493 q 614 1657 583 1600 q 678 1639 651 1657 q 720 1595 706 1621 q 735 1546 735 1569 q 700 1468 735 1508 q 614 1392 665 1428 q 510 1335 563 1357 q 421 1314 457 1314 z "},"Ṏ":{"ha":929,"x_min":35,"x_max":894,"o":"m 464 -18 q 233 44 329 -18 q 86 220 138 107 q 35 483 35 333 q 88 755 35 643 q 237 926 140 867 q 463 986 333 986 q 694 924 597 986 q 842 748 790 861 q 894 483 894 635 q 841 213 894 325 q 691 42 788 101 q 464 -18 594 -18 m 464 83 q 526 100 496 83 q 582 160 557 117 q 622 283 607 203 q 636 489 636 363 q 614 731 636 646 q 553 850 592 817 q 467 883 515 883 q 404 867 435 883 q 349 807 374 850 q 309 685 324 764 q 294 479 294 606 q 317 236 294 322 q 378 117 339 150 q 464 83 417 83 m 554 1051 q 492 1065 517 1051 q 449 1096 467 1078 q 413 1127 431 1114 q 369 1140 394 1140 q 324 1131 347 1140 q 271 1086 301 1121 q 241 1089 260 1078 q 208 1121 222 1100 q 200 1163 194 1142 q 233 1222 208 1193 q 297 1269 258 1250 q 378 1288 335 1288 q 448 1274 421 1288 q 493 1243 475 1261 q 527 1212 511 1225 q 563 1199 543 1199 q 608 1208 586 1199 q 660 1251 629 1217 q 690 1249 671 1261 q 723 1217 710 1238 q 731 1175 736 1196 q 674 1091 719 1131 q 554 1051 628 1051 m 635 1333 q 553 1373 582 1333 q 524 1465 524 1413 q 553 1556 524 1518 q 635 1594 582 1594 q 718 1556 689 1594 q 747 1465 747 1518 q 718 1373 747 1413 q 635 1333 689 1333 m 296 1333 q 213 1373 242 1333 q 183 1465 183 1413 q 213 1556 183 1518 q 296 1594 242 1594 q 378 1556 349 1594 q 407 1465 407 1518 q 378 1373 407 1413 q 296 1333 349 1333 z "},"Ȭ":{"ha":929,"x_min":35,"x_max":894,"o":"m 464 -18 q 233 44 329 -18 q 86 220 138 107 q 35 483 35 333 q 88 755 35 643 q 237 926 140 867 q 463 986 333 986 q 694 924 597 986 q 842 748 790 861 q 894 483 894 635 q 841 213 894 325 q 691 42 788 101 q 464 -18 594 -18 m 464 83 q 526 100 496 83 q 582 160 557 117 q 622 283 607 203 q 636 489 636 363 q 614 731 636 646 q 553 850 592 817 q 467 883 515 883 q 404 867 435 883 q 349 807 374 850 q 309 685 324 764 q 294 479 294 606 q 317 236 294 322 q 378 117 339 150 q 464 83 417 83 m 554 1051 q 492 1065 517 1051 q 449 1096 467 1078 q 413 1127 431 1114 q 369 1140 394 1140 q 324 1131 347 1140 q 271 1086 301 1121 q 241 1089 260 1078 q 208 1121 222 1100 q 200 1163 194 1142 q 233 1222 208 1193 q 297 1269 258 1250 q 378 1288 335 1288 q 448 1274 421 1288 q 493 1243 475 1261 q 527 1212 511 1225 q 563 1199 543 1199 q 608 1208 586 1199 q 660 1251 629 1217 q 690 1249 671 1261 q 723 1217 710 1238 q 731 1175 736 1196 q 674 1091 719 1131 q 554 1051 628 1051 m 247 1357 q 241 1385 243 1368 q 239 1418 239 1401 q 241 1455 239 1438 q 249 1482 243 1472 l 683 1482 q 690 1453 688 1471 q 692 1418 692 1436 q 685 1357 692 1378 l 247 1357 z "},"Œ":{"ha":1275,"x_min":35,"x_max":1253,"o":"m 1208 -46 q 1156 -40 1183 -46 q 1103 -24 1129 -35 l 569 -24 q 514 -34 543 -32 q 451 -36 485 -36 q 229 26 322 -36 q 85 200 136 88 q 35 465 35 313 q 87 732 35 622 q 234 900 139 842 q 458 958 329 958 q 523 956 494 958 q 581 946 551 954 l 1046 946 q 1153 969 1100 969 q 1174 906 1164 947 q 1189 823 1183 864 q 1194 758 1194 782 q 1143 728 1176 743 q 1083 706 1110 713 q 1038 789 1069 750 q 951 828 1007 828 l 818 828 l 818 519 l 933 519 q 998 544 972 519 q 1024 624 1024 568 q 1132 594 1085 624 l 1132 350 q 1024 321 1085 321 q 998 397 1024 376 q 933 418 972 418 l 818 418 l 818 99 l 964 99 q 1078 136 1036 99 q 1138 232 1119 174 l 1253 232 q 1249 173 1253 211 q 1240 91 1246 135 q 1226 10 1235 47 q 1208 -46 1218 -26 m 479 61 q 590 96 546 61 l 590 815 q 476 861 553 861 q 406 845 439 861 q 349 786 374 829 q 310 663 324 743 q 296 456 296 583 q 318 213 296 299 q 381 94 340 128 q 479 61 422 61 z "},"P":{"ha":836,"x_min":36,"x_max":822,"o":"m 68 0 q 36 89 36 36 q 103 104 83 89 q 124 158 124 119 l 124 811 q 103 866 124 850 q 36 882 83 882 q 44 928 36 906 q 67 969 53 951 q 285 974 203 969 q 425 979 367 979 q 659 943 572 979 q 784 837 746 907 q 822 665 822 767 q 777 501 822 575 q 641 385 732 428 q 410 343 550 343 l 351 343 l 351 221 q 363 138 351 167 q 408 99 375 110 q 503 89 442 89 q 472 0 503 35 l 68 0 m 388 454 q 491 474 453 454 q 549 526 529 494 q 574 597 568 558 q 581 669 581 635 q 565 768 581 722 q 510 842 549 814 q 403 869 472 869 q 351 864 372 869 l 351 457 q 369 455 361 456 q 388 454 378 454 z "},"Ṗ":{"ha":836,"x_min":36,"x_max":822,"o":"m 68 0 q 36 89 36 36 q 103 104 83 89 q 124 158 124 119 l 124 811 q 103 866 124 850 q 36 882 83 882 q 44 928 36 906 q 67 969 53 951 q 285 974 203 969 q 425 979 367 979 q 659 943 572 979 q 784 837 746 907 q 822 665 822 767 q 777 501 822 575 q 641 385 732 428 q 410 343 550 343 l 351 343 l 351 221 q 363 138 351 167 q 408 99 375 110 q 503 89 442 89 q 472 0 503 35 l 68 0 m 388 454 q 491 474 453 454 q 549 526 529 494 q 574 597 568 558 q 581 669 581 635 q 565 768 581 722 q 510 842 549 814 q 403 869 472 869 q 351 864 372 869 l 351 457 q 369 455 361 456 q 388 454 378 454 m 431 1043 q 335 1078 371 1043 q 300 1174 300 1114 q 337 1268 300 1232 q 433 1304 374 1304 q 529 1268 494 1304 q 564 1174 564 1232 q 528 1078 564 1114 q 431 1043 492 1043 z "},"Þ":{"ha":846,"x_min":36,"x_max":832,"o":"m 67 0 q 36 89 36 35 q 101 104 82 89 q 119 158 119 119 l 119 811 q 101 866 119 850 q 36 882 82 882 q 67 969 36 935 l 393 969 q 415 929 407 953 q 424 882 424 906 q 359 866 378 882 q 340 811 340 850 l 340 790 q 436 794 393 794 q 733 711 633 794 q 832 494 832 628 q 785 331 832 399 q 656 228 738 264 q 469 192 574 192 q 406 195 443 192 q 340 204 368 199 l 340 158 q 359 104 340 119 q 424 89 378 89 q 415 40 424 64 q 393 0 407 17 l 67 0 m 410 303 q 541 353 492 303 q 590 494 590 404 q 538 633 590 589 q 392 678 485 678 q 365 677 379 678 q 340 675 351 676 l 340 310 q 376 304 357 306 q 410 303 396 303 z "},"Q":{"ha":929,"x_min":35,"x_max":1017,"o":"m 840 -253 q 731 -228 775 -253 q 651 -178 688 -204 q 584 -133 618 -153 q 501 -114 550 -114 q 423 -121 451 -114 q 354 -153 394 -128 l 314 -106 q 354 -54 329 -78 q 415 -15 379 -31 q 210 60 294 -4 q 80 233 125 125 q 35 483 35 342 q 88 755 35 643 q 237 926 140 867 q 463 986 333 986 q 694 924 597 986 q 842 748 790 861 q 894 483 894 635 q 819 172 894 294 q 613 6 743 50 q 692 -19 653 -3 q 765 -53 732 -36 q 818 -82 799 -71 q 860 -97 838 -92 q 907 -101 882 -101 q 952 -98 929 -101 q 997 -86 975 -94 q 1010 -111 1004 -94 q 1017 -139 1017 -128 q 999 -188 1017 -161 q 942 -234 981 -215 q 840 -253 903 -253 m 464 83 q 526 100 496 83 q 582 160 557 117 q 622 283 607 203 q 636 489 636 363 q 614 731 636 646 q 553 850 592 817 q 467 883 515 883 q 404 867 435 883 q 349 807 374 850 q 309 685 324 764 q 294 479 294 606 q 317 236 294 322 q 378 117 339 150 q 464 83 417 83 z "},"R":{"ha":907,"x_min":36,"x_max":915,"o":"m 794 -10 q 658 20 706 -10 q 589 100 611 50 q 550 210 567 150 q 526 293 540 250 q 492 369 511 336 q 444 413 472 403 l 353 413 l 353 158 q 381 103 353 119 q 449 88 408 88 q 418 0 449 38 l 69 0 q 38 88 38 39 q 106 103 85 88 q 128 158 128 119 l 128 811 q 106 866 128 850 q 36 882 83 882 q 43 929 36 906 q 64 969 50 953 q 175 972 124 969 q 269 975 226 974 q 345 979 307 978 q 426 981 383 981 q 658 947 571 981 q 785 854 746 914 q 824 713 824 794 q 771 550 824 613 q 607 464 718 488 q 726 378 668 447 q 813 214 783 310 q 852 136 828 163 q 915 104 876 110 l 915 35 q 864 -1 897 8 q 794 -10 831 -10 m 414 508 q 545 561 499 508 q 592 699 592 614 q 551 830 592 785 q 421 875 511 875 q 385 874 407 875 q 353 869 364 872 l 353 511 q 383 509 363 510 q 414 508 404 508 z "},"Ŕ":{"ha":907,"x_min":36,"x_max":915,"o":"m 794 -10 q 658 20 706 -10 q 589 100 611 50 q 550 210 567 150 q 526 293 540 250 q 492 369 511 336 q 444 413 472 403 l 353 413 l 353 158 q 381 103 353 119 q 449 88 408 88 q 418 0 449 38 l 69 0 q 38 88 38 39 q 106 103 85 88 q 128 158 128 119 l 128 811 q 106 866 128 850 q 36 882 83 882 q 43 929 36 906 q 64 969 50 953 q 175 972 124 969 q 269 975 226 974 q 345 979 307 978 q 426 981 383 981 q 658 947 571 981 q 785 854 746 914 q 824 713 824 794 q 771 550 824 613 q 607 464 718 488 q 726 378 668 447 q 813 214 783 310 q 852 136 828 163 q 915 104 876 110 l 915 35 q 864 -1 897 8 q 794 -10 831 -10 m 414 508 q 545 561 499 508 q 592 699 592 614 q 551 830 592 785 q 421 875 511 875 q 385 874 407 875 q 353 869 364 872 l 353 511 q 383 509 363 510 q 414 508 404 508 m 410 1024 q 362 1039 383 1024 q 336 1088 340 1054 q 431 1160 381 1117 q 526 1256 481 1203 q 603 1367 572 1310 q 667 1349 640 1367 q 709 1305 694 1331 q 724 1256 724 1279 q 689 1178 724 1218 q 603 1102 654 1138 q 499 1045 551 1067 q 410 1024 446 1024 z "},"Ř":{"ha":907,"x_min":36,"x_max":915,"o":"m 794 -10 q 658 20 706 -10 q 589 100 611 50 q 550 210 567 150 q 526 293 540 250 q 492 369 511 336 q 444 413 472 403 l 353 413 l 353 158 q 381 103 353 119 q 449 88 408 88 q 418 0 449 38 l 69 0 q 38 88 38 39 q 106 103 85 88 q 128 158 128 119 l 128 811 q 106 866 128 850 q 36 882 83 882 q 43 929 36 906 q 64 969 50 953 q 175 972 124 969 q 269 975 226 974 q 345 979 307 978 q 426 981 383 981 q 658 947 571 981 q 785 854 746 914 q 824 713 824 794 q 771 550 824 613 q 607 464 718 488 q 726 378 668 447 q 813 214 783 310 q 852 136 828 163 q 915 104 876 110 l 915 35 q 864 -1 897 8 q 794 -10 831 -10 m 414 508 q 545 561 499 508 q 592 699 592 614 q 551 830 592 785 q 421 875 511 875 q 385 874 407 875 q 353 869 364 872 l 353 511 q 383 509 363 510 q 414 508 404 508 m 401 1043 l 196 1269 q 224 1313 203 1293 q 271 1342 244 1332 l 454 1201 l 636 1342 q 683 1313 663 1332 q 713 1269 704 1293 l 507 1043 l 401 1043 z "},"Ŗ":{"ha":907,"x_min":36,"x_max":915,"o":"m 794 -10 q 658 20 706 -10 q 589 100 611 50 q 550 210 567 150 q 526 293 540 250 q 492 369 511 336 q 444 413 472 403 l 353 413 l 353 158 q 381 103 353 119 q 449 88 408 88 q 418 0 449 38 l 69 0 q 38 88 38 39 q 106 103 85 88 q 128 158 128 119 l 128 811 q 106 866 128 850 q 36 882 83 882 q 43 929 36 906 q 64 969 50 953 q 175 972 124 969 q 269 975 226 974 q 345 979 307 978 q 426 981 383 981 q 658 947 571 981 q 785 854 746 914 q 824 713 824 794 q 771 550 824 613 q 607 464 718 488 q 726 378 668 447 q 813 214 783 310 q 852 136 828 163 q 915 104 876 110 l 915 35 q 864 -1 897 8 q 794 -10 831 -10 m 414 508 q 545 561 499 508 q 592 699 592 614 q 551 830 592 785 q 421 875 511 875 q 385 874 407 875 q 353 869 364 872 l 353 511 q 383 509 363 510 q 414 508 404 508 m 436 -479 q 411 -460 422 -475 q 400 -426 400 -444 q 449 -387 431 -410 q 467 -331 467 -364 q 464 -315 467 -326 q 456 -317 460 -317 q 447 -318 451 -318 q 369 -285 396 -318 q 342 -212 342 -253 q 373 -131 342 -161 q 454 -101 404 -101 q 548 -138 510 -101 q 586 -257 586 -175 q 574 -331 586 -286 q 530 -416 563 -375 q 436 -479 497 -457 z "},"Ȑ":{"ha":907,"x_min":36,"x_max":915,"o":"m 794 -10 q 658 20 706 -10 q 589 100 611 50 q 550 210 567 150 q 526 293 540 250 q 492 369 511 336 q 444 413 472 403 l 353 413 l 353 158 q 381 103 353 119 q 449 88 408 88 q 418 0 449 38 l 69 0 q 38 88 38 39 q 106 103 85 88 q 128 158 128 119 l 128 811 q 106 866 128 850 q 36 882 83 882 q 43 929 36 906 q 64 969 50 953 q 175 972 124 969 q 269 975 226 974 q 345 979 307 978 q 426 981 383 981 q 658 947 571 981 q 785 854 746 914 q 824 713 824 794 q 771 550 824 613 q 607 464 718 488 q 726 378 668 447 q 813 214 783 310 q 852 136 828 163 q 915 104 876 110 l 915 35 q 864 -1 897 8 q 794 -10 831 -10 m 414 508 q 545 561 499 508 q 592 699 592 614 q 551 830 592 785 q 421 875 511 875 q 385 874 407 875 q 353 869 364 872 l 353 511 q 383 509 363 510 q 414 508 404 508 m 621 1043 q 542 1072 586 1043 q 456 1144 497 1100 q 389 1234 415 1188 q 363 1318 363 1281 q 392 1372 363 1353 q 476 1392 422 1392 q 531 1287 508 1335 q 583 1196 554 1239 q 656 1107 611 1153 q 649 1058 651 1072 q 621 1043 647 1043 m 342 1043 q 258 1070 307 1043 q 164 1140 210 1097 q 88 1229 118 1183 q 57 1313 57 1275 q 88 1367 57 1347 q 172 1386 118 1386 q 265 1225 219 1300 q 376 1107 310 1150 q 370 1058 372 1072 q 342 1043 368 1043 z "},"Ṙ":{"ha":907,"x_min":36,"x_max":915,"o":"m 794 -10 q 658 20 706 -10 q 589 100 611 50 q 550 210 567 150 q 526 293 540 250 q 492 369 511 336 q 444 413 472 403 l 353 413 l 353 158 q 381 103 353 119 q 449 88 408 88 q 418 0 449 38 l 69 0 q 38 88 38 39 q 106 103 85 88 q 128 158 128 119 l 128 811 q 106 866 128 850 q 36 882 83 882 q 43 929 36 906 q 64 969 50 953 q 175 972 124 969 q 269 975 226 974 q 345 979 307 978 q 426 981 383 981 q 658 947 571 981 q 785 854 746 914 q 824 713 824 794 q 771 550 824 613 q 607 464 718 488 q 726 378 668 447 q 813 214 783 310 q 852 136 828 163 q 915 104 876 110 l 915 35 q 864 -1 897 8 q 794 -10 831 -10 m 414 508 q 545 561 499 508 q 592 699 592 614 q 551 830 592 785 q 421 875 511 875 q 385 874 407 875 q 353 869 364 872 l 353 511 q 383 509 363 510 q 414 508 404 508 m 453 1043 q 358 1078 393 1043 q 322 1174 322 1114 q 359 1268 322 1232 q 456 1304 396 1304 q 551 1268 517 1304 q 586 1174 586 1232 q 550 1078 586 1114 q 453 1043 514 1043 z "},"Ṛ":{"ha":907,"x_min":36,"x_max":915,"o":"m 794 -10 q 658 20 706 -10 q 589 100 611 50 q 550 210 567 150 q 526 293 540 250 q 492 369 511 336 q 444 413 472 403 l 353 413 l 353 158 q 381 103 353 119 q 449 88 408 88 q 418 0 449 38 l 69 0 q 38 88 38 39 q 106 103 85 88 q 128 158 128 119 l 128 811 q 106 866 128 850 q 36 882 83 882 q 43 929 36 906 q 64 969 50 953 q 175 972 124 969 q 269 975 226 974 q 345 979 307 978 q 426 981 383 981 q 658 947 571 981 q 785 854 746 914 q 824 713 824 794 q 771 550 824 613 q 607 464 718 488 q 726 378 668 447 q 813 214 783 310 q 852 136 828 163 q 915 104 876 110 l 915 35 q 864 -1 897 8 q 794 -10 831 -10 m 414 508 q 545 561 499 508 q 592 699 592 614 q 551 830 592 785 q 421 875 511 875 q 385 874 407 875 q 353 869 364 872 l 353 511 q 383 509 363 510 q 414 508 404 508 m 461 -362 q 366 -327 401 -362 q 331 -232 331 -292 q 367 -137 331 -174 q 464 -101 404 -101 q 560 -137 525 -101 q 596 -232 596 -174 q 559 -327 596 -292 q 461 -362 522 -362 z "},"Ṝ":{"ha":907,"x_min":36,"x_max":915,"o":"m 794 -10 q 658 20 706 -10 q 589 100 611 50 q 550 210 567 150 q 526 293 540 250 q 492 369 511 336 q 444 413 472 403 l 353 413 l 353 158 q 381 103 353 119 q 449 88 408 88 q 418 0 449 38 l 69 0 q 38 88 38 39 q 106 103 85 88 q 128 158 128 119 l 128 811 q 106 866 128 850 q 36 882 83 882 q 43 929 36 906 q 64 969 50 953 q 175 972 124 969 q 269 975 226 974 q 345 979 307 978 q 426 981 383 981 q 658 947 571 981 q 785 854 746 914 q 824 713 824 794 q 771 550 824 613 q 607 464 718 488 q 726 378 668 447 q 813 214 783 310 q 852 136 828 163 q 915 104 876 110 l 915 35 q 864 -1 897 8 q 794 -10 831 -10 m 414 508 q 545 561 499 508 q 592 699 592 614 q 551 830 592 785 q 421 875 511 875 q 385 874 407 875 q 353 869 364 872 l 353 511 q 383 509 363 510 q 414 508 404 508 m 461 -362 q 366 -327 401 -362 q 331 -232 331 -292 q 367 -137 331 -174 q 464 -101 404 -101 q 560 -137 525 -101 q 596 -232 596 -174 q 559 -327 596 -292 q 461 -362 522 -362 m 236 1067 q 230 1094 232 1078 q 228 1128 228 1111 q 230 1165 228 1147 q 238 1192 232 1182 l 672 1192 q 678 1163 676 1181 q 681 1128 681 1146 q 674 1067 681 1088 l 236 1067 z "},"Ȓ":{"ha":907,"x_min":36,"x_max":915,"o":"m 794 -10 q 658 20 706 -10 q 589 100 611 50 q 550 210 567 150 q 526 293 540 250 q 492 369 511 336 q 444 413 472 403 l 353 413 l 353 158 q 381 103 353 119 q 449 88 408 88 q 418 0 449 38 l 69 0 q 38 88 38 39 q 106 103 85 88 q 128 158 128 119 l 128 811 q 106 866 128 850 q 36 882 83 882 q 43 929 36 906 q 64 969 50 953 q 175 972 124 969 q 269 975 226 974 q 345 979 307 978 q 426 981 383 981 q 658 947 571 981 q 785 854 746 914 q 824 713 824 794 q 771 550 824 613 q 607 464 718 488 q 726 378 668 447 q 813 214 783 310 q 852 136 828 163 q 915 104 876 110 l 915 35 q 864 -1 897 8 q 794 -10 831 -10 m 414 508 q 545 561 499 508 q 592 699 592 614 q 551 830 592 785 q 421 875 511 875 q 385 874 407 875 q 353 869 364 872 l 353 511 q 383 509 363 510 q 414 508 404 508 m 263 1024 q 226 1031 243 1024 q 204 1051 208 1038 q 272 1238 204 1168 q 454 1308 339 1308 q 637 1238 569 1308 q 704 1051 704 1168 q 684 1031 701 1038 q 646 1024 667 1024 q 609 1029 629 1024 q 582 1046 589 1035 q 548 1132 582 1093 q 454 1171 514 1171 q 360 1132 394 1171 q 326 1046 326 1093 q 300 1029 319 1035 q 263 1024 281 1024 z "},"Ṟ":{"ha":907,"x_min":36,"x_max":915,"o":"m 794 -10 q 658 20 706 -10 q 589 100 611 50 q 550 210 567 150 q 526 293 540 250 q 492 369 511 336 q 444 413 472 403 l 353 413 l 353 158 q 381 103 353 119 q 449 88 408 88 q 418 0 449 38 l 69 0 q 38 88 38 39 q 106 103 85 88 q 128 158 128 119 l 128 811 q 106 866 128 850 q 36 882 83 882 q 43 929 36 906 q 64 969 50 953 q 175 972 124 969 q 269 975 226 974 q 345 979 307 978 q 426 981 383 981 q 658 947 571 981 q 785 854 746 914 q 824 713 824 794 q 771 550 824 613 q 607 464 718 488 q 726 378 668 447 q 813 214 783 310 q 852 136 828 163 q 915 104 876 110 l 915 35 q 864 -1 897 8 q 794 -10 831 -10 m 414 508 q 545 561 499 508 q 592 699 592 614 q 551 830 592 785 q 421 875 511 875 q 385 874 407 875 q 353 869 364 872 l 353 511 q 383 509 363 510 q 414 508 404 508 m 246 -243 q 240 -212 242 -232 q 238 -175 238 -192 q 240 -135 238 -156 q 247 -104 242 -114 l 682 -104 q 688 -136 686 -115 q 690 -175 690 -157 q 688 -213 690 -193 q 683 -243 686 -233 l 246 -243 z "},"S":{"ha":818,"x_min":53,"x_max":774,"o":"m 118 -21 q 85 80 100 15 q 62 215 71 144 q 53 342 53 286 l 192 342 q 280 157 214 224 q 433 90 346 90 q 501 108 476 90 q 536 150 525 125 q 547 197 547 175 q 517 276 547 243 q 440 337 486 310 q 346 386 393 364 q 153 523 224 446 q 82 717 82 600 q 124 860 82 801 q 235 951 165 919 q 393 983 306 983 q 488 975 433 983 q 578 947 543 967 l 696 983 q 723 899 715 951 q 733 792 731 847 q 735 690 735 736 l 735 669 l 619 669 q 538 830 590 788 q 424 872 485 872 q 340 840 367 872 q 313 758 313 807 q 337 683 313 714 q 400 630 361 653 q 482 585 439 607 q 581 534 529 563 q 676 468 632 506 q 747 379 719 431 q 774 258 774 328 q 735 119 774 182 q 624 17 696 56 q 449 -21 551 -21 q 345 -10 401 -21 q 225 26 289 0 l 118 -21 z "},"Ś":{"ha":818,"x_min":53,"x_max":774,"o":"m 118 -21 q 85 80 100 15 q 62 215 71 144 q 53 342 53 286 l 192 342 q 280 157 214 224 q 433 90 346 90 q 501 108 476 90 q 536 150 525 125 q 547 197 547 175 q 517 276 547 243 q 440 337 486 310 q 346 386 393 364 q 153 523 224 446 q 82 717 82 600 q 124 860 82 801 q 235 951 165 919 q 393 983 306 983 q 488 975 433 983 q 578 947 543 967 l 696 983 q 723 899 715 951 q 733 792 731 847 q 735 690 735 736 l 735 669 l 619 669 q 538 830 590 788 q 424 872 485 872 q 340 840 367 872 q 313 758 313 807 q 337 683 313 714 q 400 630 361 653 q 482 585 439 607 q 581 534 529 563 q 676 468 632 506 q 747 379 719 431 q 774 258 774 328 q 735 119 774 182 q 624 17 696 56 q 449 -21 551 -21 q 345 -10 401 -21 q 225 26 289 0 l 118 -21 m 382 1024 q 334 1039 356 1024 q 308 1088 313 1054 q 403 1160 353 1117 q 499 1256 453 1203 q 575 1367 544 1310 q 640 1349 613 1367 q 681 1305 667 1331 q 696 1256 696 1279 q 661 1178 696 1218 q 575 1102 626 1138 q 471 1045 524 1067 q 382 1024 418 1024 z "},"Ṥ":{"ha":818,"x_min":53,"x_max":774,"o":"m 118 -21 q 85 80 100 15 q 62 215 71 144 q 53 342 53 286 l 192 342 q 280 157 214 224 q 433 90 346 90 q 501 108 476 90 q 536 150 525 125 q 547 197 547 175 q 517 276 547 243 q 440 337 486 310 q 346 386 393 364 q 153 523 224 446 q 82 717 82 600 q 124 860 82 801 q 235 951 165 919 q 393 983 306 983 q 488 975 433 983 q 578 947 543 967 l 696 983 q 723 899 715 951 q 733 792 731 847 q 735 690 735 736 l 735 669 l 619 669 q 538 830 590 788 q 424 872 485 872 q 340 840 367 872 q 313 758 313 807 q 337 683 313 714 q 400 630 361 653 q 482 585 439 607 q 581 534 529 563 q 676 468 632 506 q 747 379 719 431 q 774 258 774 328 q 735 119 774 182 q 624 17 696 56 q 449 -21 551 -21 q 345 -10 401 -21 q 225 26 289 0 l 118 -21 m 382 1024 q 334 1039 356 1024 q 308 1088 313 1054 q 403 1160 353 1117 q 499 1256 453 1203 q 575 1367 544 1310 q 640 1349 613 1367 q 681 1305 667 1331 q 696 1256 696 1279 q 661 1178 696 1218 q 575 1102 626 1138 q 471 1045 524 1067 q 382 1024 418 1024 m 425 1329 q 330 1365 365 1329 q 294 1460 294 1400 q 331 1554 294 1518 q 428 1590 368 1590 q 524 1554 489 1590 q 558 1460 558 1518 q 522 1365 558 1400 q 425 1329 486 1329 z "},"Ꞌ":{"ha":479,"x_min":40,"x_max":439,"o":"m 124 158 l 124 811 q 105 866 124 850 q 40 882 86 882 q 71 969 40 935 l 408 969 q 431 929 422 953 q 439 882 439 906 q 374 866 393 882 q 356 811 356 850 l 356 158 l 124 158 z "},"Š":{"ha":818,"x_min":53,"x_max":774,"o":"m 118 -21 q 85 80 100 15 q 62 215 71 144 q 53 342 53 286 l 192 342 q 280 157 214 224 q 433 90 346 90 q 501 108 476 90 q 536 150 525 125 q 547 197 547 175 q 517 276 547 243 q 440 337 486 310 q 346 386 393 364 q 153 523 224 446 q 82 717 82 600 q 124 860 82 801 q 235 951 165 919 q 393 983 306 983 q 488 975 433 983 q 578 947 543 967 l 696 983 q 723 899 715 951 q 733 792 731 847 q 735 690 735 736 l 735 669 l 619 669 q 538 830 590 788 q 424 872 485 872 q 340 840 367 872 q 313 758 313 807 q 337 683 313 714 q 400 630 361 653 q 482 585 439 607 q 581 534 529 563 q 676 468 632 506 q 747 379 719 431 q 774 258 774 328 q 735 119 774 182 q 624 17 696 56 q 449 -21 551 -21 q 345 -10 401 -21 q 225 26 289 0 l 118 -21 m 374 1043 l 168 1269 q 196 1313 175 1293 q 243 1342 217 1332 l 426 1201 l 608 1342 q 656 1313 635 1332 q 685 1269 676 1293 l 479 1043 l 374 1043 z "},"Ṧ":{"ha":818,"x_min":53,"x_max":774,"o":"m 118 -21 q 85 80 100 15 q 62 215 71 144 q 53 342 53 286 l 192 342 q 280 157 214 224 q 433 90 346 90 q 501 108 476 90 q 536 150 525 125 q 547 197 547 175 q 517 276 547 243 q 440 337 486 310 q 346 386 393 364 q 153 523 224 446 q 82 717 82 600 q 124 860 82 801 q 235 951 165 919 q 393 983 306 983 q 488 975 433 983 q 578 947 543 967 l 696 983 q 723 899 715 951 q 733 792 731 847 q 735 690 735 736 l 735 669 l 619 669 q 538 830 590 788 q 424 872 485 872 q 340 840 367 872 q 313 758 313 807 q 337 683 313 714 q 400 630 361 653 q 482 585 439 607 q 581 534 529 563 q 676 468 632 506 q 747 379 719 431 q 774 258 774 328 q 735 119 774 182 q 624 17 696 56 q 449 -21 551 -21 q 345 -10 401 -21 q 225 26 289 0 l 118 -21 m 374 1043 l 168 1269 q 196 1313 175 1293 q 243 1342 217 1332 l 426 1201 l 608 1342 q 656 1313 635 1332 q 685 1269 676 1293 l 479 1043 l 374 1043 m 425 1358 q 330 1394 365 1358 q 294 1489 294 1429 q 331 1583 294 1547 q 428 1619 368 1619 q 524 1583 489 1619 q 558 1489 558 1547 q 522 1394 558 1429 q 425 1358 486 1358 z "},"Ş":{"ha":818,"x_min":53,"x_max":774,"o":"m 118 -21 q 85 80 100 15 q 62 215 71 144 q 53 342 53 286 l 192 342 q 280 157 214 224 q 433 90 346 90 q 501 108 476 90 q 536 150 525 125 q 547 197 547 175 q 517 276 547 243 q 440 337 486 310 q 346 386 393 364 q 153 523 224 446 q 82 717 82 600 q 124 860 82 801 q 235 951 165 919 q 393 983 306 983 q 488 975 433 983 q 578 947 543 967 l 696 983 q 723 899 715 951 q 733 792 731 847 q 735 690 735 736 l 735 669 l 619 669 q 538 830 590 788 q 424 872 485 872 q 340 840 367 872 q 313 758 313 807 q 337 683 313 714 q 400 630 361 653 q 482 585 439 607 q 581 534 529 563 q 676 468 632 506 q 747 379 719 431 q 774 258 774 328 q 735 119 774 182 q 624 17 696 56 q 449 -21 551 -21 q 345 -10 401 -21 q 225 26 289 0 l 118 -21 m 440 -417 q 319 -398 369 -417 q 247 -358 269 -379 q 258 -317 247 -337 q 281 -286 268 -297 q 417 -333 347 -333 q 475 -308 457 -333 q 493 -265 493 -283 q 478 -224 493 -247 q 426 -201 463 -201 q 405 -203 417 -201 q 374 -210 393 -204 l 322 -181 l 365 17 l 481 17 l 447 -128 q 524 -117 481 -117 q 603 -136 571 -117 q 651 -185 635 -156 q 667 -246 667 -215 q 641 -326 667 -286 q 565 -391 615 -365 q 440 -417 515 -417 z "},"Ŝ":{"ha":818,"x_min":53,"x_max":774,"o":"m 118 -21 q 85 80 100 15 q 62 215 71 144 q 53 342 53 286 l 192 342 q 280 157 214 224 q 433 90 346 90 q 501 108 476 90 q 536 150 525 125 q 547 197 547 175 q 517 276 547 243 q 440 337 486 310 q 346 386 393 364 q 153 523 224 446 q 82 717 82 600 q 124 860 82 801 q 235 951 165 919 q 393 983 306 983 q 488 975 433 983 q 578 947 543 967 l 696 983 q 723 899 715 951 q 733 792 731 847 q 735 690 735 736 l 735 669 l 619 669 q 538 830 590 788 q 424 872 485 872 q 340 840 367 872 q 313 758 313 807 q 337 683 313 714 q 400 630 361 653 q 482 585 439 607 q 581 534 529 563 q 676 468 632 506 q 747 379 719 431 q 774 258 774 328 q 735 119 774 182 q 624 17 696 56 q 449 -21 551 -21 q 345 -10 401 -21 q 225 26 289 0 l 118 -21 m 242 1044 q 194 1074 215 1054 q 167 1115 174 1093 l 372 1343 l 478 1343 l 685 1115 q 656 1074 676 1093 q 608 1044 635 1054 l 425 1182 l 242 1044 z "},"Ș":{"ha":818,"x_min":53,"x_max":774,"o":"m 118 -21 q 85 80 100 15 q 62 215 71 144 q 53 342 53 286 l 192 342 q 280 157 214 224 q 433 90 346 90 q 501 108 476 90 q 536 150 525 125 q 547 197 547 175 q 517 276 547 243 q 440 337 486 310 q 346 386 393 364 q 153 523 224 446 q 82 717 82 600 q 124 860 82 801 q 235 951 165 919 q 393 983 306 983 q 488 975 433 983 q 578 947 543 967 l 696 983 q 723 899 715 951 q 733 792 731 847 q 735 690 735 736 l 735 669 l 619 669 q 538 830 590 788 q 424 872 485 872 q 340 840 367 872 q 313 758 313 807 q 337 683 313 714 q 400 630 361 653 q 482 585 439 607 q 581 534 529 563 q 676 468 632 506 q 747 379 719 431 q 774 258 774 328 q 735 119 774 182 q 624 17 696 56 q 449 -21 551 -21 q 345 -10 401 -21 q 225 26 289 0 l 118 -21 m 399 -479 q 374 -460 385 -475 q 363 -426 363 -444 q 411 -387 393 -410 q 429 -331 429 -364 q 426 -315 429 -326 q 418 -317 422 -317 q 410 -318 414 -318 q 331 -285 358 -318 q 304 -212 304 -253 q 335 -131 304 -161 q 417 -101 367 -101 q 510 -138 472 -101 q 549 -257 549 -175 q 537 -331 549 -286 q 492 -416 525 -375 q 399 -479 460 -457 z "},"Ṡ":{"ha":818,"x_min":53,"x_max":774,"o":"m 118 -21 q 85 80 100 15 q 62 215 71 144 q 53 342 53 286 l 192 342 q 280 157 214 224 q 433 90 346 90 q 501 108 476 90 q 536 150 525 125 q 547 197 547 175 q 517 276 547 243 q 440 337 486 310 q 346 386 393 364 q 153 523 224 446 q 82 717 82 600 q 124 860 82 801 q 235 951 165 919 q 393 983 306 983 q 488 975 433 983 q 578 947 543 967 l 696 983 q 723 899 715 951 q 733 792 731 847 q 735 690 735 736 l 735 669 l 619 669 q 538 830 590 788 q 424 872 485 872 q 340 840 367 872 q 313 758 313 807 q 337 683 313 714 q 400 630 361 653 q 482 585 439 607 q 581 534 529 563 q 676 468 632 506 q 747 379 719 431 q 774 258 774 328 q 735 119 774 182 q 624 17 696 56 q 449 -21 551 -21 q 345 -10 401 -21 q 225 26 289 0 l 118 -21 m 425 1043 q 330 1078 365 1043 q 294 1174 294 1114 q 331 1268 294 1232 q 428 1304 368 1304 q 524 1268 489 1304 q 558 1174 558 1232 q 522 1078 558 1114 q 425 1043 486 1043 z "},"Ṣ":{"ha":818,"x_min":53,"x_max":774,"o":"m 118 -21 q 85 80 100 15 q 62 215 71 144 q 53 342 53 286 l 192 342 q 280 157 214 224 q 433 90 346 90 q 501 108 476 90 q 536 150 525 125 q 547 197 547 175 q 517 276 547 243 q 440 337 486 310 q 346 386 393 364 q 153 523 224 446 q 82 717 82 600 q 124 860 82 801 q 235 951 165 919 q 393 983 306 983 q 488 975 433 983 q 578 947 543 967 l 696 983 q 723 899 715 951 q 733 792 731 847 q 735 690 735 736 l 735 669 l 619 669 q 538 830 590 788 q 424 872 485 872 q 340 840 367 872 q 313 758 313 807 q 337 683 313 714 q 400 630 361 653 q 482 585 439 607 q 581 534 529 563 q 676 468 632 506 q 747 379 719 431 q 774 258 774 328 q 735 119 774 182 q 624 17 696 56 q 449 -21 551 -21 q 345 -10 401 -21 q 225 26 289 0 l 118 -21 m 424 -362 q 328 -327 364 -362 q 293 -232 293 -292 q 330 -137 293 -174 q 426 -101 367 -101 q 523 -137 488 -101 q 558 -232 558 -174 q 522 -327 558 -292 q 424 -362 485 -362 z "},"Ṩ":{"ha":818,"x_min":53,"x_max":774,"o":"m 118 -21 q 85 80 100 15 q 62 215 71 144 q 53 342 53 286 l 192 342 q 280 157 214 224 q 433 90 346 90 q 501 108 476 90 q 536 150 525 125 q 547 197 547 175 q 517 276 547 243 q 440 337 486 310 q 346 386 393 364 q 153 523 224 446 q 82 717 82 600 q 124 860 82 801 q 235 951 165 919 q 393 983 306 983 q 488 975 433 983 q 578 947 543 967 l 696 983 q 723 899 715 951 q 733 792 731 847 q 735 690 735 736 l 735 669 l 619 669 q 538 830 590 788 q 424 872 485 872 q 340 840 367 872 q 313 758 313 807 q 337 683 313 714 q 400 630 361 653 q 482 585 439 607 q 581 534 529 563 q 676 468 632 506 q 747 379 719 431 q 774 258 774 328 q 735 119 774 182 q 624 17 696 56 q 449 -21 551 -21 q 345 -10 401 -21 q 225 26 289 0 l 118 -21 m 424 -362 q 328 -327 364 -362 q 293 -232 293 -292 q 330 -137 293 -174 q 426 -101 367 -101 q 523 -137 488 -101 q 558 -232 558 -174 q 522 -327 558 -292 q 424 -362 485 -362 m 425 1043 q 330 1078 365 1043 q 294 1174 294 1114 q 331 1268 294 1232 q 428 1304 368 1304 q 524 1268 489 1304 q 558 1174 558 1232 q 522 1078 558 1114 q 425 1043 486 1043 z "},"ẞ":{"ha":1058,"x_min":7,"x_max":1011,"o":"m 39 -18 q 7 69 7 17 q 74 85 54 69 q 93 139 93 101 l 94 518 q 149 777 96 678 q 294 923 201 876 q 506 969 388 969 l 954 969 l 733 531 q 863 494 799 524 q 969 408 926 464 q 1011 272 1011 353 q 926 63 1011 144 q 668 -18 842 -18 q 528 7 590 -18 q 431 79 467 32 q 396 192 396 126 q 422 278 396 249 q 486 308 449 308 q 547 281 525 308 q 569 217 569 254 q 563 173 569 199 q 539 129 557 147 q 581 104 553 115 q 642 93 608 93 q 771 264 771 93 q 736 368 771 322 q 649 440 701 414 q 547 467 597 467 l 460 467 l 649 835 q 600 836 629 836 q 525 836 571 836 q 382 764 436 836 q 328 547 328 692 l 326 -18 l 39 -18 z "},"Ə":{"ha":821,"x_min":35,"x_max":786,"o":"m 375 -19 q 127 71 219 -19 q 35 333 35 161 q 43 419 35 379 q 74 482 51 458 q 140 506 97 506 l 565 506 q 505 717 560 656 q 350 779 450 779 q 220 755 276 779 q 124 699 164 731 q 105 731 115 710 q 88 773 94 751 q 81 807 81 794 q 119 874 81 836 q 226 938 157 911 q 386 965 294 965 q 597 908 507 965 q 737 742 688 850 q 786 481 786 633 q 732 210 786 322 q 585 40 678 99 q 375 -19 492 -19 m 385 124 q 444 134 413 124 q 503 172 475 144 q 548 253 531 200 q 565 390 565 306 l 275 390 q 244 372 249 390 q 240 317 240 353 q 264 199 240 240 q 322 140 288 157 q 385 124 356 124 z "},"T":{"ha":886,"x_min":11,"x_max":875,"o":"m 208 0 q 178 89 178 35 q 294 107 253 89 q 335 164 335 125 l 335 860 l 304 860 q 233 838 268 860 q 172 756 197 815 q 136 585 146 697 q 94 588 119 586 q 47 592 69 589 q 11 600 24 596 q 14 682 11 629 q 22 794 17 735 q 37 906 28 854 q 58 986 46 958 q 115 982 83 986 q 172 969 147 978 l 714 969 q 771 982 740 978 q 828 986 801 986 q 849 906 840 958 q 864 794 858 854 q 872 682 869 735 q 875 600 875 629 q 817 589 857 593 q 750 585 778 585 q 722 756 742 697 q 671 838 703 815 q 589 860 639 860 l 565 860 l 565 164 q 713 89 565 89 q 681 0 713 35 l 208 0 z "}}}
